<?xml version="1.0" encoding="UTF-8" standalone="no"?>
<!-- Created with Inkscape (http://www.inkscape.org/) -->

<svg
   width="80mm"
   height="80mm"
   viewBox="0 0 80 80"
   version="1.1"
   id="svg338"
   inkscape:version="1.2.2 (b0a8486541, 2022-12-01)"
   sodipodi:docname="kompetenzzentrum.svg"
   xml:space="preserve"
   inkscape:export-filename="./kompetenzzentrum.png"
   inkscape:export-xdpi="325.12"
   inkscape:export-ydpi="325.12"
   xmlns:inkscape="http://www.inkscape.org/namespaces/inkscape"
   xmlns:sodipodi="http://sodipodi.sourceforge.net/DTD/sodipodi-0.dtd"
   xmlns:xlink="http://www.w3.org/1999/xlink"
   xmlns="http://www.w3.org/2000/svg"
   xmlns:svg="http://www.w3.org/2000/svg"
   xmlns:rdf="http://www.w3.org/1999/02/22-rdf-syntax-ns#"
   xmlns:cc="http://creativecommons.org/ns#"
   xmlns:dc="http://purl.org/dc/elements/1.1/"><title
     id="title2005">THW Zugtrupp Patch</title><sodipodi:namedview
     id="namedview340"
     pagecolor="#ffffff"
     bordercolor="#000000"
     borderopacity="0.25"
     inkscape:showpageshadow="2"
     inkscape:pageopacity="0.0"
     inkscape:pagecheckerboard="0"
     inkscape:deskcolor="#d1d1d1"
     inkscape:document-units="mm"
     showgrid="false"
     showguides="true"
     inkscape:zoom="2.8284271"
     inkscape:cx="112.96031"
     inkscape:cy="193.04015"
     inkscape:window-width="1920"
     inkscape:window-height="1011"
     inkscape:window-x="1920"
     inkscape:window-y="32"
     inkscape:window-maximized="1"
     inkscape:current-layer="g3478"><sodipodi:guide
       position="-44.832172,39.998692"
       orientation="0,-1"
       id="guide463"
       inkscape:locked="false" /><sodipodi:guide
       position="40.000621,32.922938"
       orientation="1,0"
       id="guide465"
       inkscape:locked="false" /></sodipodi:namedview><defs
     id="defs335"><inkscape:path-effect
       effect="lattice2"
       gridpoint0="26.841514,39.048711"
       gridpoint1="39.907086,38.76778"
       gridpoint2="26.85281,47.054381"
       gridpoint3="39.907086,47.394006"
       gridpoint4="29.923636,38.791365"
       gridpoint5="36.602676,38.76778"
       gridpoint6="29.992743,47.394006"
       gridpoint7="36.602676,47.394006"
       gridpoint8x9="33.433298,38.651603"
       gridpoint10x11="33.29771,47.394006"
       gridpoint12="26.820498,40.942206"
       gridpoint13="39.907642,40.924336"
       gridpoint14="26.808639,45.259619"
       gridpoint15="39.907642,45.237449"
       gridpoint16="29.992743,40.924336"
       gridpoint17="36.602676,40.924336"
       gridpoint18="29.992743,45.237449"
       gridpoint19="36.602676,45.237449"
       gridpoint20x21="33.29771,40.924336"
       gridpoint22x23="33.29771,45.237449"
       gridpoint24x26="26.535888,43.079918"
       gridpoint25x27="39.907642,43.080893"
       gridpoint28x30="29.992743,43.080893"
       gridpoint29x31="36.602676,43.080893"
       gridpoint32x33x34x35="33.29771,43.080893"
       id="path-effect3788"
       is_visible="true"
       lpeversion="1"
       horizontal_mirror="false"
       vertical_mirror="false"
       perimetral="false"
       live_update="true" /></defs><g
     inkscape:label="hintergrund"
     inkscape:groupmode="layer"
     id="layer1"
     style="display:inline"><path
       id="path7506"
       style="display:inline;vector-effect:none;fill:#00387a;fill-opacity:1;fill-rule:evenodd;stroke-width:0;stroke-miterlimit:10;paint-order:markers fill stroke;stop-color:#000000"
       inkscape:label="outer_circle"
       d="M 80,40 A 40,40 0 0 1 40,80 40,40 0 0 1 1.5000003e-8,40 40,40 0 0 1 40,1.4999999e-8 40,40 0 0 1 80,40 Z" /><path
       id="circle7608"
       style="display:inline;fill:#ffffff;fill-rule:evenodd;stroke-width:0;stroke-miterlimit:10;paint-order:markers fill stroke;stop-color:#000000"
       inkscape:label="white_circle"
       d="M 40.000142,1.2479858 A 38.751999,38.752121 0 0 0 1.2479858,40.000142 38.751999,38.752121 0 0 0 40.000142,78.752299 38.751999,38.752121 0 0 0 78.751782,40.000142 38.751999,38.752121 0 0 0 40.000142,1.2479858 Z m 0,6.3810059 A 32.371021,32.371021 0 0 1 72.370776,40.000142 32.371021,32.371021 0 0 1 40.000142,72.370776 32.371021,32.371021 0 0 1 7.6289917,40.000142 32.371021,32.371021 0 0 1 40.000142,7.6289917 Z" /><path
       id="circle166287"
       style="display:inline;fill:#00387a;fill-opacity:1;fill-rule:evenodd;stroke-width:0;stroke-miterlimit:10;paint-order:markers fill stroke;stop-color:#000000"
       d="M 72.371021,40 A 32.371021,32.371021 0 0 1 40,72.371021 32.371021,32.371021 0 0 1 7.6289789,40 32.371021,32.371021 0 0 1 40,7.6289789 32.371021,32.371021 0 0 1 72.371021,40 Z"
       inkscape:label="inner_circle" /></g><g
     inkscape:groupmode="layer"
     id="layer2"
     inkscape:label="Texte"
     sodipodi:insensitive="true"><g
       inkscape:groupmode="layer"
       id="layer3"
       inkscape:label="TECHNISCHES_HILFSWERK"
       sodipodi:insensitive="true"><text
         xml:space="preserve"
         style="font-size:6.35px;font-family:Inter;-inkscape-font-specification:Inter;text-align:end;text-anchor:end;display:inline;fill:#000000;fill-opacity:1;stroke:none;stroke-width:1;-inkscape-stroke:none;paint-order:markers fill stroke;stop-color:#000000"
         id="text1314"
         inkscape:label="text_technisches_hilfswerk"><textPath
           xlink:href="#path1472"
           startOffset="100%"
           id="textPath1475"
           style="font-style:normal;font-variant:normal;font-weight:normal;font-stretch:normal;font-size:6.35px;font-family:'LubalGraph Bk BT';-inkscape-font-specification:'LubalGraph Bk BT';fill:#000000;stroke:none;stroke-width:1">TECHNISCHES HILFSWERK</textPath></text><path
         id="path1472"
         style="display:none;fill:none;fill-opacity:1;fill-rule:evenodd;stroke:#800000;stroke-width:0.100198;stroke-miterlimit:10;stroke-dasharray:none;paint-order:markers fill stroke;stop-color:#000000"
         d="M 70.862002,27.620141 A 33.191595,33.191595 0 0 1 52.445415,70.796446 33.191595,33.191595 0 0 1 9.2691097,52.379859 33.191595,33.191595 0 0 1 27.685698,9.203553 33.191595,33.191595 0 0 1 70.862002,27.620141 Z"
         inkscape:label="text-allign_technisches_hilfswerk"
         sodipodi:insensitive="true" /></g><g
       inkscape:groupmode="layer"
       id="layer4"
       inkscape:label="ZUGTRUPP"><text
         xml:space="preserve"
         style="font-style:normal;font-variant:normal;font-weight:normal;font-stretch:normal;font-size:6.35px;line-height:0;font-family:'LubalGraph Bk BT';-inkscape-font-specification:'LubalGraph Bk BT';text-align:end;letter-spacing:0.486833px;text-anchor:end;fill:#000000;fill-opacity:1;stroke:#800000;stroke-width:0.1;stroke-dasharray:none;paint-order:markers fill stroke;stop-color:#000000"
         id="text1619"
         inkscape:label="text_zugtrupp"><textPath
           xlink:href="#path1628"
           startOffset="100%"
           id="textPath1631"><tspan
             id="tspan1617"
             style="stroke:none;stroke-width:0.1">ZUGTRUPP</tspan></textPath></text><path
         id="path1628"
         style="display:none;fill:none;fill-opacity:1;fill-rule:evenodd;stroke:#ff00ff;stroke-width:0.0999126;stroke-miterlimit:10;stroke-dasharray:none;paint-order:markers fill stroke;stop-color:#000000"
         d="M 58.124863,73.144181 A 37.776282,37.776282 0 0 0 73.144182,21.875136 37.776282,37.776282 0 0 0 21.875137,6.8558172 37.776282,37.776282 0 0 0 6.8558177,58.124863 37.776282,37.776282 0 0 0 58.124863,73.144181 Z"
         inkscape:label="text-allign_zugtrupp"
         sodipodi:insensitive="true" /></g></g><metadata
     id="metadata459"><rdf:RDF><cc:Work
         rdf:about=""><dc:creator><cc:Agent><dc:title>L3D &lt;l3d@c3woc.de&gt;</dc:title></cc:Agent></dc:creator><dc:rights><cc:Agent><dc:title>CC-BY-SA 4.0</dc:title></cc:Agent></dc:rights><cc:license
           rdf:resource="http://creativecommons.org/licenses/by-nc-sa/4.0/" /><dc:title>THW Zugtrupp Patch</dc:title></cc:Work><cc:License
         rdf:about="http://creativecommons.org/licenses/by-nc-sa/4.0/"><cc:permits
           rdf:resource="http://creativecommons.org/ns#Reproduction" /><cc:permits
           rdf:resource="http://creativecommons.org/ns#Distribution" /><cc:requires
           rdf:resource="http://creativecommons.org/ns#Notice" /><cc:requires
           rdf:resource="http://creativecommons.org/ns#Attribution" /><cc:prohibits
           rdf:resource="http://creativecommons.org/ns#CommercialUse" /><cc:permits
           rdf:resource="http://creativecommons.org/ns#DerivativeWorks" /><cc:requires
           rdf:resource="http://creativecommons.org/ns#ShareAlike" /></cc:License></rdf:RDF></metadata><g
     inkscape:groupmode="layer"
     id="layer5"
     inkscape:label="kats_thw_logo"
     style="display:inline"
     sodipodi:insensitive="true"><path
       id="circle832"
       style="display:inline;vector-effect:none;fill:#ff5208;fill-rule:evenodd;stroke-width:0.411395;stroke-linecap:square;stroke-linejoin:round;paint-order:markers fill stroke;stop-color:#000000"
       transform="rotate(-90)"
       d="M -7.6244698,40 A 32.371021,32.371021 0 0 1 -23.809981,68.034127 32.371021,32.371021 0 0 1 -56.181003,68.034126 32.371021,32.371021 0 0 1 -72.366512,40"
       inkscape:label="orange" /><path
       id="path6152"
       style="display:inline;fill:#ffffff;fill-opacity:1;fill-rule:nonzero;stroke:none;stroke-width:0;stroke-linecap:butt;stroke-linejoin:miter;stroke-miterlimit:10"
       d="m 40,10.392647 c 0.930613,9.51e-4 1.860955,0.04293 2.78846,0.127124 0.342943,2.036168 0.685936,4.072503 1.028878,6.108671 1.53988,0.256978 3.053713,0.662145 4.51652,1.208712 1.316032,-1.589327 2.632049,-3.178338 3.948079,-4.767668 1.719459,0.761925 3.342783,1.728863 4.88394,2.805514 -0.722341,1.931915 -1.444967,3.864111 -2.16731,5.796029 1.202006,0.998032 2.335456,2.091239 3.305742,3.319694 1.940337,-0.721581 3.880495,-1.443146 5.820833,-2.164726 1.07663,1.539112 2.047938,3.158606 2.810164,4.878772 -1.591379,1.313873 -3.183006,2.627488 -4.774385,3.941361 0.547547,1.460563 0.952932,2.973631 1.211812,4.512386 l 6.114872,1.026294 c 0.160335,1.872153 0.160494,3.757491 0,5.629631 -2.038372,0.342764 -4.076499,0.685598 -6.114872,1.028361 -0.258196,1.53803 -0.661728,3.050918 -1.211812,4.509802 1.591379,1.314583 3.183006,2.629363 4.774385,3.943945 -0.768293,1.715425 -1.725386,3.34412 -2.810164,4.876189 -1.940338,-0.720696 -3.880496,-1.441445 -5.820833,-2.162142 -0.973932,1.224988 -2.102361,2.322759 -3.305742,3.319177 0.722343,1.931383 1.444969,3.862578 2.16731,5.793962 -1.541397,1.076289 -3.163743,2.045444 -4.88394,2.80603 -1.31603,-1.589503 -2.632047,-3.179198 -3.948079,-4.768701 -1.46078,0.551618 -2.975891,0.961471 -4.51652,1.211812 -0.342942,2.035454 -0.685935,4.070633 -1.028878,6.106087 -0.92757,0.08496 -1.85788,0.127255 -2.78846,0.128158 v -10.70684 c 1.367429,-0.0021 2.734389,-0.149327 4.072102,-0.443901 3.559885,-0.740723 4.035795,-1.425899 5.669422,-2.271179 5.849869,-3.400369 9.477336,-10.16589 9.117273,-16.934367 C 58.703904,32.638727 54.715552,26.360621 48.867159,23.33811 46.600605,22.210621 44.988418,21.36826 40,21.292757 Z"
       inkscape:label="zahnenkranz_right" /><path
       d="M 62.282619,58.89705 40,21.292757 40.001,58.89705"
       id="path828"
       style="font-variation-settings:normal;display:inline;opacity:1;vector-effect:none;fill:#00387a;fill-opacity:1;fill-rule:evenodd;stroke:none;stroke-width:0;stroke-linecap:butt;stroke-linejoin:miter;stroke-miterlimit:10;stroke-dasharray:none;stroke-dashoffset:0;stroke-opacity:1;-inkscape-stroke:none;paint-order:markers fill stroke;stop-color:#000000;stop-opacity:1"
       sodipodi:nodetypes="ccc"
       inkscape:label="dreieck" /><path
       id="path1460"
       style="display:inline;vector-effect:none;fill:#ff5208;fill-rule:evenodd;stroke-width:0.261892;stroke-linecap:square;stroke-linejoin:round;paint-order:markers fill stroke;stop-color:#000000"
       d="m 40,19.096952 c -7.362248,-1e-6 -14.298397,3.940196 -17.979521,10.31609 -3.681124,6.375894 -3.681124,14.231319 10e-7,20.607213 C 25.701604,56.396149 32.637752,60.32864 40,60.32864"
       inkscape:label="orange"
       sodipodi:nodetypes="cssc" /><path
       d="m 26.099243,58.89705 -1.625034,-3.634527 -2.708094,-3.197905 18.234027,-30.771861 -10e-4,37.604293"
       id="path1409"
       style="font-variation-settings:normal;display:inline;opacity:1;vector-effect:none;fill:#00387a;fill-opacity:1;fill-rule:evenodd;stroke:none;stroke-width:0;stroke-linecap:butt;stroke-linejoin:miter;stroke-miterlimit:10;stroke-dasharray:none;stroke-dashoffset:0;stroke-opacity:1;-inkscape-stroke:none;paint-order:markers fill stroke;stop-color:#000000;stop-opacity:1"
       sodipodi:nodetypes="ccccc"
       inkscape:label="dreieck" /></g><g
     id="g9177"
     transform="matrix(1.150957,0,0,1.150957,-79.363223,-13.952981)"
     style="display:inline"
     inkscape:label="Auto"><path
       id="path9066"
       style="font-weight:bold;font-size:1.3068px;font-family:'LubalGraph Bd BT';-inkscape-font-specification:'LubalGraph Bd BT Bold';display:inline;fill:none;stroke:#000000;stroke-width:0.6;stroke-linecap:square;stroke-linejoin:round;stroke-dasharray:none;paint-order:markers fill stroke"
       d="m 177.878,104.112 0.029,-0.633 -0.116,-0.003 0.016,-0.35 0.363,0.009 -0.009,0.2 c 0.037,-0.076 0.08,-0.132 0.128,-0.168 0.048,-0.037 0.102,-0.055 0.162,-0.053 0.06,10e-4 0.11,0.023 0.151,0.066 0.042,0.044 0.074,0.107 0.095,0.189 0.044,-0.083 0.089,-0.144 0.138,-0.182 0.048,-0.039 0.102,-0.058 0.162,-0.057 0.1,0.003 0.175,0.049 0.225,0.141 0.05,0.09 0.072,0.219 0.065,0.386 l -0.021,0.503 0.127,0.005 -0.015,0.36 -0.406,-0.016 0.032,-0.746 c 0.004,-0.102 -0.004,-0.174 -0.023,-0.216 -0.02,-0.044 -0.054,-0.066 -0.103,-0.067 -0.046,-0.001 -0.084,0.023 -0.114,0.073 -0.029,0.049 -0.046,0.116 -0.05,0.201 l -0.016,0.386 0.125,0.005 -0.015,0.358 -0.392,-0.015 0.033,-0.742 c 0.004,-0.099 -0.004,-0.171 -0.024,-0.214 -0.019,-0.043 -0.053,-0.066 -0.102,-0.067 -0.045,-0.001 -0.082,0.023 -0.111,0.071 -0.029,0.049 -0.045,0.116 -0.049,0.202 l -0.017,0.383 0.111,0.004 -0.016,0.356 -0.5,-0.02 0.016,-0.354 z m -0.299,-0.991 -0.045,0.981 0.116,0.004 -0.017,0.351 -0.369,-0.015 0.008,-0.174 c -0.034,0.065 -0.074,0.112 -0.121,0.143 -0.046,0.03 -0.1,0.044 -0.161,0.042 -0.104,-0.004 -0.182,-0.05 -0.233,-0.139 -0.052,-0.089 -0.074,-0.214 -0.066,-0.376 l 0.024,-0.489 -0.116,-0.003 0.017,-0.347 0.386,0.009 -0.035,0.726 c -0.005,0.098 0.003,0.169 0.024,0.211 0.021,0.043 0.059,0.065 0.111,0.067 0.05,0.002 0.091,-0.021 0.123,-0.069 0.032,-0.049 0.05,-0.115 0.054,-0.2 l 0.018,-0.378 -0.108,-0.003 0.016,-0.349 z m -1.597,0.925 0.032,-0.618 -0.105,-0.003 0.018,-0.341 0.349,0.008 -0.009,0.189 c 0.028,-0.069 0.063,-0.12 0.104,-0.153 0.042,-0.034 0.093,-0.051 0.154,-0.052 l -0.018,0.364 c -0.085,0.004 -0.147,0.033 -0.187,0.087 -0.039,0.054 -0.061,0.142 -0.068,0.263 l -0.013,0.265 0.106,0.003 -0.018,0.348 -0.478,-0.019 0.017,-0.345 z m -0.63,0.321 0.05,-0.956 -0.112,-0.003 0.017,-0.338 0.113,0.002 0.02,-0.38 0.259,0.004 -0.02,0.382 0.114,0.003 -0.018,0.34 -0.113,-0.003 -0.032,0.615 0.087,0.003 -0.018,0.345 z m -1.072,-0.381 0.034,-0.604 -0.107,-0.003 0.019,-0.334 0.34,0.008 -0.009,0.169 c 0.033,-0.063 0.071,-0.11 0.114,-0.14 0.044,-0.031 0.094,-0.046 0.15,-0.045 0.099,0.002 0.172,0.047 0.221,0.133 0.048,0.086 0.069,0.208 0.06,0.366 l -0.025,0.478 0.113,0.004 -0.018,0.342 -0.372,-0.014 0.039,-0.708 c 0.005,-0.097 -0.002,-0.166 -0.022,-0.206 -0.018,-0.041 -0.053,-0.062 -0.102,-0.063 -0.047,-0.001 -0.086,0.022 -0.117,0.069 -0.03,0.046 -0.048,0.11 -0.052,0.191 l -0.02,0.366 0.101,0.004 -0.019,0.339 -0.458,-0.018 0.019,-0.337 z m -0.238,-0.05 c -0.045,0.128 -0.108,0.226 -0.187,0.295 -0.079,0.069 -0.167,0.102 -0.263,0.098 -0.067,-0.003 -0.126,-0.021 -0.177,-0.055 -0.052,-0.033 -0.097,-0.083 -0.138,-0.149 -0.039,-0.065 -0.067,-0.137 -0.085,-0.217 -0.017,-0.08 -0.023,-0.166 -0.017,-0.259 0.005,-0.092 0.021,-0.177 0.048,-0.256 0.027,-0.08 0.063,-0.15 0.109,-0.21 0.047,-0.061 0.099,-0.107 0.156,-0.139 0.058,-0.032 0.119,-0.048 0.181,-0.046 0.078,10e-4 0.149,0.029 0.214,0.082 0.065,0.054 0.116,0.128 0.154,0.222 0.022,0.054 0.037,0.112 0.046,0.174 0.009,0.063 0.011,0.13 0.007,0.201 -0.001,0.022 -0.003,0.044 -0.006,0.068 -0.002,0.024 -0.005,0.049 -0.009,0.076 l -0.636,-0.021 c 0.007,0.057 0.026,0.103 0.058,0.138 0.031,0.035 0.07,0.054 0.115,0.055 0.024,0.001 0.048,-0.004 0.069,-0.015 0.022,-0.011 0.043,-0.029 0.064,-0.053 z m -0.594,-0.406 0.383,0.012 c -0.009,-0.07 -0.029,-0.124 -0.06,-0.161 -0.031,-0.038 -0.071,-0.058 -0.121,-0.059 -0.046,-0.001 -0.087,0.017 -0.122,0.053 -0.036,0.037 -0.062,0.088 -0.08,0.155 z m -0.457,0.745 -0.685,-0.027 0.018,-0.304 0.411,-0.607 -0.146,-0.004 -0.006,0.104 -0.21,-0.006 0.026,-0.427 0.655,0.015 -0.02,0.333 -0.394,0.579 0.159,0.006 0.007,-0.107 0.211,0.007 z m -0.871,-0.035 -0.67,-0.026 0.019,-0.301 0.403,-0.599 -0.142,-0.004 -0.007,0.103 -0.205,-0.006 0.027,-0.423 0.64,0.015 -0.021,0.329 -0.386,0.573 0.155,0.006 0.007,-0.106 0.207,0.007 z m -1.585,-0.384 0.037,-0.575 -0.096,-0.003 0.021,-0.317 0.309,0.007 -0.011,0.161 c 0.03,-0.061 0.065,-0.106 0.105,-0.134 0.04,-0.03 0.085,-0.044 0.137,-0.043 0.088,0.002 0.154,0.044 0.197,0.127 0.043,0.081 0.06,0.197 0.05,0.348 l -0.029,0.454 0.103,0.003 -0.02,0.326 -0.337,-0.013 0.044,-0.674 c 0.006,-0.092 0,-0.157 -0.017,-0.195 -0.017,-0.039 -0.047,-0.059 -0.092,-0.06 -0.043,-0.001 -0.078,0.021 -0.107,0.065 -0.028,0.044 -0.044,0.105 -0.049,0.182 l -0.023,0.349 0.091,0.003 -0.021,0.323 -0.414,-0.016 0.021,-0.322 z m -0.215,-0.048 c -0.043,0.122 -0.101,0.216 -0.174,0.281 -0.072,0.066 -0.152,0.097 -0.239,0.094 -0.06,-0.003 -0.114,-0.02 -0.16,-0.052 -0.046,-0.032 -0.087,-0.079 -0.123,-0.142 -0.035,-0.061 -0.059,-0.13 -0.074,-0.206 -0.015,-0.076 -0.019,-0.158 -0.013,-0.247 0.006,-0.087 0.022,-0.168 0.047,-0.244 0.025,-0.075 0.059,-0.142 0.102,-0.2 0.042,-0.058 0.09,-0.102 0.143,-0.132 0.053,-0.03 0.107,-0.045 0.164,-0.044 0.071,0.002 0.135,0.028 0.193,0.078 0.058,0.051 0.104,0.121 0.137,0.211 0.019,0.052 0.032,0.107 0.039,0.166 0.007,0.059 0.009,0.123 0.004,0.191 -0.001,0.02 -0.003,0.042 -0.006,0.065 -0.002,0.022 -0.006,0.046 -0.009,0.072 l -0.576,-0.019 c 0.005,0.054 0.022,0.098 0.05,0.131 0.029,0.034 0.063,0.051 0.104,0.052 0.022,0.001 0.043,-0.004 0.063,-0.014 0.02,-0.011 0.039,-0.028 0.058,-0.051 z m -0.534,-0.385 0.347,0.01 c -0.007,-0.066 -0.024,-0.117 -0.052,-0.153 -0.028,-0.036 -0.064,-0.054 -0.109,-0.055 -0.042,-10e-4 -0.079,0.016 -0.112,0.05 -0.032,0.035 -0.057,0.084 -0.074,0.148 z m -0.704,0.698 0.061,-0.879 -0.095,-0.002 0.021,-0.312 0.096,0.002 0.024,-0.35 0.22,0.004 -0.025,0.351 0.096,0.002 -0.021,0.314 -0.096,-0.003 -0.039,0.565 0.073,0.003 -0.022,0.317 z m -0.168,-0.361 c -0.042,0.119 -0.098,0.211 -0.168,0.276 -0.07,0.064 -0.147,0.095 -0.231,0.091 -0.058,-0.002 -0.109,-0.019 -0.153,-0.05 -0.045,-0.031 -0.084,-0.078 -0.118,-0.139 -0.033,-0.06 -0.057,-0.128 -0.071,-0.203 -0.013,-0.074 -0.017,-0.155 -0.011,-0.241 0.006,-0.086 0.022,-0.166 0.047,-0.24 0.024,-0.074 0.057,-0.139 0.098,-0.196 0.042,-0.057 0.088,-0.1 0.139,-0.129 0.051,-0.031 0.104,-0.045 0.158,-0.044 0.068,0.002 0.13,0.027 0.186,0.077 0.056,0.05 0.099,0.118 0.13,0.206 0.018,0.051 0.031,0.105 0.037,0.163 0.007,0.058 0.008,0.121 0.003,0.188 -0.001,0.019 -0.004,0.04 -0.006,0.063 -0.003,0.022 -0.006,0.045 -0.01,0.071 l -0.554,-0.019 c 0.005,0.053 0.021,0.096 0.048,0.129 0.027,0.033 0.061,0.05 0.1,0.051 0.021,0.001 0.042,-0.004 0.061,-0.014 0.019,-0.011 0.037,-0.027 0.056,-0.05 z m -0.511,-0.377 0.333,0.009 c -0.006,-0.064 -0.022,-0.114 -0.049,-0.15 -0.026,-0.035 -0.061,-0.053 -0.105,-0.054 -0.04,-0.001 -0.075,0.015 -0.107,0.05 -0.032,0.034 -0.056,0.082 -0.072,0.145 z m -0.895,0.091 c -0.006,0.084 0.005,0.154 0.034,0.21 0.029,0.055 0.07,0.084 0.121,0.086 0.05,0.002 0.094,-0.024 0.131,-0.078 0.038,-0.054 0.06,-0.123 0.066,-0.207 0.006,-0.085 -0.006,-0.155 -0.035,-0.211 -0.029,-0.056 -0.069,-0.085 -0.119,-0.086 -0.051,-0.002 -0.096,0.025 -0.133,0.079 -0.037,0.054 -0.058,0.122 -0.065,0.207 z m -0.253,0.637 0.068,-0.918 -0.079,-0.002 0.023,-0.304 0.277,0.007 -0.011,0.143 c 0.031,-0.055 0.065,-0.095 0.104,-0.121 0.038,-0.026 0.082,-0.038 0.131,-0.037 0.103,0.002 0.185,0.061 0.244,0.176 0.06,0.116 0.083,0.261 0.071,0.437 -0.013,0.175 -0.058,0.319 -0.134,0.431 -0.076,0.111 -0.166,0.164 -0.27,0.16 -0.047,-0.002 -0.088,-0.016 -0.122,-0.041 -0.033,-0.026 -0.06,-0.064 -0.081,-0.114 l -0.014,0.191 0.072,0.003 -0.023,0.309 -0.358,-0.016 0.023,-0.307 z m -1.234,-0.413 0.042,-0.539 -0.084,-0.002 0.023,-0.298 0.264,0.006 -0.013,0.17 c 0.03,-0.065 0.063,-0.112 0.099,-0.143 0.036,-0.032 0.076,-0.047 0.12,-0.046 0.043,10e-4 0.079,0.019 0.108,0.056 0.029,0.037 0.05,0.09 0.062,0.161 0.035,-0.071 0.07,-0.123 0.106,-0.156 0.037,-0.033 0.077,-0.049 0.12,-0.048 0.073,0.001 0.126,0.041 0.159,0.118 0.033,0.077 0.045,0.186 0.034,0.328 l -0.032,0.428 0.092,0.004 -0.023,0.306 -0.294,-0.011 0.048,-0.635 c 0.006,-0.087 0.003,-0.148 -0.01,-0.184 -0.012,-0.037 -0.036,-0.056 -0.072,-0.057 -0.033,-0.001 -0.062,0.02 -0.085,0.063 -0.023,0.041 -0.037,0.099 -0.043,0.171 l -0.025,0.329 0.091,0.003 -0.023,0.305 -0.285,-0.011 0.049,-0.631 c 0.007,-0.085 0.003,-0.146 -0.01,-0.182 -0.012,-0.037 -0.036,-0.057 -0.072,-0.057 -0.033,-0.001 -0.061,0.019 -0.083,0.06 -0.023,0.042 -0.037,0.099 -0.043,0.172 l -0.025,0.327 0.081,0.003 -0.024,0.303 -0.364,-0.014 0.024,-0.302 z m -0.67,-0.291 c -0.006,0.077 0.004,0.143 0.031,0.199 0.027,0.056 0.062,0.084 0.106,0.086 0.044,0.001 0.084,-0.025 0.12,-0.078 0.035,-0.053 0.056,-0.119 0.062,-0.197 0.006,-0.08 -0.004,-0.147 -0.031,-0.202 -0.026,-0.056 -0.061,-0.084 -0.106,-0.086 -0.044,-0.001 -0.084,0.026 -0.119,0.08 -0.036,0.054 -0.057,0.12 -0.063,0.198 z m -0.205,-0.006 c 0.007,-0.082 0.022,-0.159 0.045,-0.23 0.024,-0.071 0.055,-0.133 0.093,-0.188 0.039,-0.054 0.082,-0.096 0.128,-0.124 0.048,-0.029 0.096,-0.043 0.146,-0.042 0.049,0.001 0.095,0.017 0.137,0.048 0.043,0.03 0.079,0.074 0.11,0.131 0.03,0.057 0.051,0.122 0.064,0.194 0.012,0.072 0.015,0.15 0.008,0.233 -0.006,0.083 -0.021,0.161 -0.045,0.232 -0.023,0.072 -0.055,0.135 -0.094,0.19 -0.039,0.054 -0.082,0.096 -0.129,0.124 -0.047,0.027 -0.096,0.039 -0.146,0.037 -0.05,-0.002 -0.096,-0.018 -0.139,-0.05 -0.042,-0.031 -0.078,-0.075 -0.108,-0.131 -0.029,-0.057 -0.05,-0.121 -0.062,-0.193 -0.012,-0.072 -0.014,-0.149 -0.008,-0.231 z m -0.621,0.268 0.081,0.003 -0.023,0.272 -0.374,-0.014 0.024,-0.298 0.083,0.003 0.07,-0.846 -0.083,-0.002 0.025,-0.294 0.374,0.007 -0.023,0.273 -0.081,-0.002 -0.03,0.375 0.257,-0.37 -0.091,-0.002 0.022,-0.273 0.378,0.007 -0.024,0.297 -0.074,-0.001 -0.278,0.4 0.24,0.455 0.052,10e-4 -0.024,0.302 -0.38,-0.015 0.023,-0.273 0.083,0.003 -0.196,-0.386 z m 5.688,-2.843 c -0.005,0.086 0.007,0.156 0.039,0.212 0.031,0.056 0.075,0.084 0.129,0.083 0.054,0 0.101,-0.028 0.14,-0.084 0.039,-0.056 0.062,-0.127 0.068,-0.214 0.005,-0.086 -0.008,-0.157 -0.04,-0.213 -0.031,-0.056 -0.074,-0.084 -0.128,-0.083 -0.055,0.001 -0.102,0.029 -0.141,0.086 -0.039,0.056 -0.061,0.127 -0.067,0.213 z m -0.264,0.658 0.064,-0.937 -0.084,0.001 0.021,-0.31 0.295,-0.004 -0.01,0.146 c 0.032,-0.057 0.069,-0.099 0.109,-0.127 0.041,-0.028 0.087,-0.042 0.14,-0.043 0.11,-10e-4 0.198,0.055 0.262,0.17 0.065,0.116 0.092,0.263 0.081,0.442 -0.012,0.179 -0.058,0.327 -0.139,0.444 -0.08,0.116 -0.175,0.173 -0.286,0.173 -0.051,0 -0.094,-0.012 -0.13,-0.037 -0.036,-0.025 -0.065,-0.062 -0.088,-0.113 l -0.014,0.195 0.077,0.001 -0.021,0.315 -0.382,-0.002 0.021,-0.314 z m -0.738,-0.652 c -0.006,0.085 0.006,0.155 0.036,0.21 0.031,0.054 0.073,0.082 0.126,0.082 0.053,0 0.098,-0.028 0.136,-0.083 0.039,-0.056 0.061,-0.126 0.067,-0.211 0.006,-0.086 -0.007,-0.156 -0.038,-0.21 -0.03,-0.056 -0.072,-0.083 -0.125,-0.082 -0.053,0 -0.098,0.028 -0.137,0.084 -0.037,0.055 -0.059,0.125 -0.065,0.21 z m -0.26,0.649 0.066,-0.924 -0.082,0.001 0.021,-0.306 0.287,-0.004 -0.01,0.145 c 0.032,-0.057 0.068,-0.098 0.107,-0.125 0.04,-0.028 0.085,-0.042 0.136,-0.043 0.107,-10e-4 0.192,0.054 0.255,0.168 0.063,0.114 0.088,0.259 0.076,0.435 -0.012,0.177 -0.057,0.323 -0.136,0.438 -0.078,0.114 -0.171,0.171 -0.279,0.171 -0.049,0 -0.092,-0.012 -0.127,-0.037 -0.034,-0.024 -0.063,-0.061 -0.085,-0.111 l -0.013,0.193 h 0.074 l -0.021,0.311 -0.373,-0.002 0.022,-0.31 z m -0.182,-1.226 -0.062,0.858 h 0.091 l -0.021,0.306 h -0.29 l 0.01,-0.152 c -0.028,0.057 -0.061,0.1 -0.098,0.128 -0.037,0.028 -0.08,0.042 -0.128,0.042 -0.082,0 -0.142,-0.038 -0.18,-0.114 -0.038,-0.076 -0.052,-0.185 -0.042,-0.326 l 0.031,-0.428 -0.091,10e-4 0.022,-0.304 0.304,-0.004 -0.046,0.635 c -0.006,0.086 -0.002,0.148 0.013,0.184 0.016,0.036 0.045,0.054 0.086,0.054 0.039,0 0.072,-0.021 0.098,-0.064 0.026,-0.043 0.042,-0.102 0.048,-0.176 l 0.023,-0.331 -0.084,0.001 0.022,-0.306 z m -1.282,0.859 0.041,-0.542 -0.083,10e-4 0.023,-0.299 0.275,-0.004 -0.012,0.166 c 0.024,-0.061 0.053,-0.107 0.087,-0.137 0.033,-0.031 0.074,-0.047 0.122,-0.05 l -0.024,0.318 c -0.066,0.006 -0.116,0.034 -0.149,0.083 -0.032,0.048 -0.052,0.125 -0.06,0.232 l -0.017,0.231 h 0.083 l -0.023,0.304 h -0.377 l 0.023,-0.303 z m -0.506,0.302 0.064,-0.839 -0.089,0.001 0.023,-0.297 0.089,-0.001 0.025,-0.3344 0.205,-0.0039 -0.025,0.3353 0.089,-0.001 -0.022,0.298 -0.09,0.001 -0.041,0.54 h 0.069 l -0.023,0.302 z m -0.432,-0.127 c -0.027,0.049 -0.058,0.085 -0.094,0.108 -0.035,0.023 -0.076,0.034 -0.121,0.034 -0.098,0 -0.175,-0.055 -0.231,-0.165 -0.056,-0.109 -0.077,-0.247 -0.064,-0.414 0.014,-0.167 0.056,-0.305 0.129,-0.415 0.073,-0.11 0.158,-0.165 0.256,-0.167 0.048,0 0.088,0.012 0.121,0.037 0.032,0.025 0.059,0.065 0.081,0.118 l 0.01,-0.139 0.269,-0.004 -0.022,0.297 -0.078,0.001 -0.06,0.78 c -0.013,0.167 -0.055,0.297 -0.127,0.388 -0.072,0.091 -0.166,0.136 -0.282,0.135 -0.097,-10e-4 -0.175,-0.036 -0.233,-0.106 -0.058,-0.07 -0.087,-0.164 -0.089,-0.281 l 0.231,0.001 c 0.005,0.033 0.018,0.057 0.037,0.074 0.019,0.016 0.045,0.025 0.079,0.025 0.054,0 0.096,-0.02 0.127,-0.062 0.031,-0.042 0.05,-0.103 0.056,-0.185 z m -0.3,-0.438 c -0.007,0.081 0.004,0.148 0.031,0.201 0.028,0.053 0.066,0.079 0.115,0.079 0.048,0 0.09,-0.027 0.126,-0.08 0.036,-0.053 0.057,-0.12 0.063,-0.202 0.006,-0.082 -0.004,-0.149 -0.032,-0.201 -0.028,-0.054 -0.065,-0.08 -0.114,-0.079 -0.049,0 -0.091,0.027 -0.127,0.081 -0.035,0.053 -0.056,0.12 -0.062,0.201 z m -0.324,-0.555 -0.065,0.824 h 0.084 l -0.023,0.294 h -0.267 l 0.011,-0.146 c -0.027,0.055 -0.057,0.096 -0.092,0.123 -0.035,0.027 -0.074,0.04 -0.119,0.04 -0.075,0 -0.13,-0.036 -0.165,-0.109 -0.034,-0.073 -0.046,-0.178 -0.035,-0.314 l 0.033,-0.411 -0.084,0.001 0.024,-0.291 0.28,-0.004 -0.049,0.609 c -0.007,0.084 -0.003,0.143 0.011,0.177 0.014,0.035 0.04,0.053 0.078,0.053 0.036,0 0.066,-0.021 0.091,-0.062 0.025,-0.042 0.04,-0.098 0.046,-0.169 l 0.025,-0.318 -0.078,10e-4 0.023,-0.294 z m -1.034,0.823 0.014,-0.167 0.189,-0.001 -0.038,0.462 -0.643,-10e-4 0.025,-0.3 0.456,-0.833 -0.168,0.003 -0.013,0.152 -0.187,0.002 0.037,-0.4417 0.601,-0.0116 -0.024,0.2923 -0.462,0.844 z m 25.40155,11.71894 a 1.8763562,2.071485 0 0 1 -1.87635,2.07148 1.8763562,2.071485 0 0 1 -1.87636,-2.07148 1.8763562,2.071485 0 0 1 1.87636,-2.07149 1.8763562,2.071485 0 0 1 1.87635,2.07149 z m 0.73475,0 a 2.6110995,2.8826368 0 0 1 -2.6111,2.88263 2.6110995,2.8826368 0 0 1 -2.6111,-2.88263 2.6110995,2.8826368 0 0 1 2.6111,-2.88264 2.6110995,2.8826368 0 0 1 2.6111,2.88264 z m -2.0964,2.82513 0.72723,-0.18653 0.0639,-0.32185 -0.97414,0.28427 z m -20.02789,-4.80539 a 1.0785795,1.5226268 0 0 1 -1.07858,1.52263 1.0785795,1.5226268 0 0 1 -1.07858,-1.52263 1.0785795,1.5226268 0 0 1 1.07858,-1.52263 1.0785795,1.5226268 0 0 1 1.07858,1.52263 z m 0.55134,0 a 1.6299182,2.3009496 0 0 1 -1.62992,2.30095 1.6299182,2.3009496 0 0 1 -1.62992,-2.30095 1.6299182,2.3009496 0 0 1 1.62992,-2.30095 1.6299182,2.3009496 0 0 1 1.62992,2.30095 z m -1.47504,2.29362 c 0.57308,-0.0682 0.9067,-0.1097 0.9067,-0.1097 0,0 0.1368,-0.0505 0.18302,-0.11392 0.0462,-0.0634 -0.67836,-0.20308 -0.67836,-0.20308 z m 1.33015,-3.57748 c 0,0 2.311,0.20249 3.1692,0.25378 0.8582,0.0513 3.76446,0.35228 4.64325,0.43034 0.87878,0.0781 3.86537,0.38356 4.57396,0.42798 0.70858,0.0444 3.75294,0.38353 3.75294,0.38353 0,0 -0.2869,0.63561 -0.31708,1.16789 -0.0302,0.53227 0.0961,0.71529 -0.52218,0.62049 -0.61828,-0.0948 -3.28799,-0.43139 -3.80005,-0.46219 -0.51206,-0.0308 -2.94103,-0.32969 -3.61832,-0.40912 -0.67729,-0.0794 -3.59389,-0.37987 -4.0872,-0.45391 -0.4933,-0.074 -2.30554,-0.34148 -2.6998,-0.35334 -0.39425,-0.0118 -0.53426,-0.0137 -0.60595,-0.0629 -0.0717,-0.0492 -0.25685,-0.89337 -0.29291,-1.01888 -0.0361,-0.1255 -0.17671,-0.4917 -0.19586,-0.52368 z m -5.70073,-0.74512 2.23155,0.42322 c 0,0 -0.0949,0.46207 -0.0549,0.76321 0.04,0.30114 0.14751,0.7129 0.10677,0.73687 -0.0408,0.024 -1.37496,-0.42994 -1.57226,-0.49829 -0.1973,-0.0684 -0.36296,-0.15025 -0.39472,-0.18304 -0.0318,-0.0328 -0.35933,-1.28485 -0.31647,-1.24197 z m 35.43805,2.6583 c 0.33244,-0.0645 0.81286,-0.27088 0.86578,-0.23048 0.0529,0.0404 0.0478,0.84962 -0.023,0.89378 -0.0708,0.0442 -1.67666,0.47272 -1.72679,0.44164 -0.0501,-0.0311 0.01,-0.87641 0.0643,-0.92731 0.0543,-0.0509 0.70267,-0.15517 0.81973,-0.17763 z m 0.41733,-2.24065 -0.16649,0.0309 -0.24239,-1.28197 -0.0598,0.0101 -0.0233,-0.36165 0.3192,-0.0486 0.0193,0.35872 -0.0648,0.0111 0.11377,0.67411 0.0575,-1.06316 0.16958,-0.026 0.15228,1.0475 0.0485,-0.71995 -0.0648,0.0101 -0.0132,-0.35682 0.3112,-0.0484 0.0102,0.35588 -0.0589,0.009 -0.11689,1.32624 -0.16351,0.0298 -0.15924,-0.98737 z m -1.13738,-0.12619 -0.0923,-0.99254 -0.0788,0.0124 -0.0354,-0.36444 0.35509,-0.0552 0.0303,0.36353 -0.0728,0.0113 0.0275,0.31357 0.23335,-0.0391 -0.0245,-0.31262 -0.0738,0.0123 -0.0283,-0.36256 0.35011,-0.0541 0.0243,0.36063 -0.0778,0.0124 0.0692,0.98494 0.0748,-0.0133 0.0218,0.32967 -0.32798,0.0617 -0.0268,-0.33158 0.0708,-0.0122 -0.0257,-0.3296 -0.23033,0.04 0.0288,0.33055 0.0708,-0.0132 0.0278,0.33156 -0.33397,0.0618 -0.0318,-0.33249 z m -0.37189,0.0665 0.0748,-0.0133 0.0348,0.33345 -0.33893,0.0639 -0.0399,-0.33536 0.0738,-0.0133 -0.11445,-1.00015 -0.0768,0.0123 0.0282,0.23954 -0.14959,0.0246 -0.0746,-0.60779 0.66331,-0.10258 0.0605,0.60304 -0.1466,0.0246 -0.0242,-0.23862 -0.0768,0.0123 z m -3.19313,1.84871 c 0.0286,0.1582 -0.12446,0.35302 -0.3496,0.35891 -0.24683,0.006 -0.36207,-0.0529 -0.39063,-0.21107 -0.0286,-0.15821 0.0814,-0.2807 0.28719,-0.36184 0.20953,-0.0826 0.42448,0.0558 0.45304,0.214 z m -31.21377,-3.78531 c 0.6938,0.0441 7.43968,0.535 8.17859,0.58343 0.73892,0.0484 7.46363,0.55177 8.55926,0.61532 1.09565,0.0635 11.65823,0.8432 11.65823,0.8432 l -0.22143,0.24629 c 0,0 -8.17344,-0.65628 -9.10952,-0.71827 -0.93609,-0.062 -12.61813,-0.91521 -13.92199,-1.01032 -1.30385,-0.0951 -5.13616,-0.36042 -5.13616,-0.36042 z m -0.0543,-0.88682 c 0,0 5.05659,0.31016 7.63504,0.4166 2.57846,0.10643 10.28729,0.62329 11.34933,0.66934 1.06205,0.0461 9.45767,0.63641 9.55533,0.6382 0.0976,0.002 0.13685,0.11479 0.29843,0.16957 0.16159,0.0548 0.53606,0.19468 0.53606,0.19468 l -0.66739,0.65729 c 0,0 -12.20049,-0.95312 -13.8385,-1.03367 -1.63802,-0.0806 -13.02316,-0.86906 -13.18529,-0.8823 -0.16214,-0.0132 -1.62615,-0.14279 -1.62615,-0.14279 z m 0.97711,-8.109 c 1.33439,-0.09194 4.90698,-0.35852 6.38772,-0.4181 1.48074,-0.05958 3.75662,-0.189036 5.58191,-0.246178 1.82529,-0.05714 6.14121,-0.146138 6.14121,-0.146138 l -0.49192,-0.400678 c 0,0 -6.05255,0.138969 -7.33483,0.20868 -1.28227,0.0697 -6.09364,0.332849 -6.87821,0.391206 -0.78458,0.05835 -3.30935,0.276364 -3.30935,0.276364 -0.0616,0.111612 -0.0694,0.223223 -0.0965,0.334844 z m 16.18679,1.281162 c 0.31309,-0.209237 3.02008,-0.127067 3.37065,0.0083 0.35057,0.135419 0.83022,0.963788 2.29105,3.156698 1.46083,2.19291 1.59692,2.39758 1.64814,2.67683 0.0512,0.27924 -0.54688,0.22056 -4.11731,0.0448 -3.35543,-0.16521 -3.41539,-0.34376 -3.55703,-0.58908 -0.0803,-0.13909 -0.14863,-1.68184 -0.11646,-2.72133 0.0267,-0.86157 0.18313,-2.434491 0.48096,-2.576231 z m 6.45881,0.07532 c 2.01438,0.06038 3.52387,0.155106 3.80901,0.238064 0.28514,0.08296 1.17871,0.834824 1.47086,1.158704 0.29214,0.32389 1.82514,1.99988 1.9879,2.18522 0.16275,0.18535 0.86475,0.97519 0.90236,1.0277 0.0376,0.0525 -1.22322,0.1176 -2.10826,0.13711 -0.88506,0.0195 -2.66366,0.0505 -3.29224,0.0784 -0.62857,0.0279 -0.72886,0.26536 -1.56589,-0.87588 -0.83702,-1.14124 -1.56233,-2.08657 -1.92875,-2.5441 -0.36643,-0.45752 -0.58769,-0.72447 -0.69727,-0.96866 -0.10958,-0.244179 -0.28796,-0.438985 0.34426,-0.432392 0.63222,0.0066 1.07802,-0.0042 1.07802,-0.0042 z M 164.77379,97.22018 c 0.73978,-0.190147 3.57455,-0.426575 4.91287,-0.523037 1.33833,-0.09647 8.07553,-0.419386 8.98179,-0.413009 0.90625,0.0064 2.92326,0.0075 4.24936,0.0267 1.3261,0.01921 3.31313,0.179769 4.57997,0.685373 1.26686,0.505604 3.669,2.844608 4.24144,3.380503 0.57245,0.53588 3.45482,3.76889 3.61388,3.88614 0.15905,0.11726 0.28717,0.0888 0.39546,0.12178 0.1083,0.0329 3.77676,1.47717 4.21047,2.08897 0.43369,0.61181 0.39761,1.8061 0.40614,2.35375 0.009,0.54764 0.0262,0.97874 -0.81598,1.19963 -0.84217,0.22089 -1.41397,0.2507 -1.90752,0.23862 -0.49356,-0.0121 -0.6911,-0.30274 -1.10304,-1.00385 -0.41194,-0.70111 -0.67432,-1.2267 -0.63211,-1.60719 0.0422,-0.38048 -0.61966,-0.28579 -2.39023,-0.49319 -1.77057,-0.20738 -2.50247,-0.39823 -2.17149,0.0909 0.33098,0.48918 0.74088,0.89386 0.99364,1.0262 0.25276,0.13234 -0.007,0.68691 -0.0608,0.74795 -0.0537,0.061 -0.24214,0.1825 -0.37362,0.30053 -0.13148,0.11803 -0.29728,0.42047 -0.53173,0.4543 -0.23447,0.0338 -1.47691,0.0469 -1.47691,0.0469 0,0 -0.78619,-0.51299 -1.66915,-0.56776 -0.88294,-0.0547 -1.62728,0.43495 -1.62728,0.43495 0,0 -3.81142,-0.30155 -4.215,-0.33135 -0.40359,-0.0298 -2.90033,-0.24961 -3.47037,-0.29989 -0.57005,-0.0503 -3.7405,-0.27934 -4.16206,-0.31119 -0.42157,-0.0318 -3.93034,-0.30686 -4.17942,-0.32526 -0.24908,-0.0184 -2.2048,-0.13628 -2.2048,-0.13628 0,0 -0.35955,-0.29299 -0.70787,-0.35037 -0.34834,-0.0574 -0.62922,-0.0457 -0.81026,0.0324 -0.18103,0.0781 -0.25082,0.1357 -0.25082,0.1357 l -3.02895,-0.20029 c 0,0 -0.009,-0.30899 -0.0111,-0.46338 -0.002,-0.15437 -0.009,-0.1079 -0.007,-0.18515 0.002,-0.0772 0,-0.24257 -8e-5,-0.29975 4e-5,-0.0572 -0.0517,-0.57383 -0.0556,-0.59901 -0.004,-0.0252 0.0317,-0.87769 0.04,-1.13488 0.008,-0.2572 0.0158,-0.82814 -0.001,-0.85179 -0.0165,-0.0237 -0.45402,0.0145 -0.47166,0.0118 -0.0176,-0.003 0.16664,-1.67205 0.20877,-1.93703 0.0421,-0.26497 0.22431,-1.55133 0.27254,-1.80957 0.0482,-0.25823 0.23132,-1.190438 0.29541,-1.440957 0.0641,-0.250529 0.35211,-1.768565 0.93408,-1.978962 z m 4.53704,12.35457 c -0.0435,-0.0967 -0.25105,-0.58209 -0.34612,-0.70279 -0.0951,-0.1207 -0.4805,-0.48767 -0.59569,-0.5833 -0.1152,-0.0956 2.80931,-0.042 2.80931,-0.042 l 3.31581,0.23683 3.47099,0.2718 3.4536,0.19273 3.52913,0.44948 1.73118,0.22599 c 0,0 0.0642,-0.0176 -0.0781,0.0711 -0.14231,0.0887 -0.43879,0.35194 -0.56478,0.51678 -0.12598,0.16484 -0.40624,0.51941 -0.48882,0.66505 -0.0826,0.14565 7.9e-4,-0.0137 -0.10068,0.19403 -0.10141,0.2077 -0.48282,0.11288 -0.48282,0.11288 l -9.90386,-0.82791 -5.52293,-0.57201 c 0,0 -0.17079,-0.1368 -0.2262,-0.20867 z m 1.12776,1.16998 a 1.6299182,2.3009496 0 0 1 -1.62992,2.30095 1.6299182,2.3009496 0 0 1 -1.62992,-2.30095 1.6299182,2.3009496 0 0 1 1.62992,-2.30095 1.6299182,2.3009496 0 0 1 1.62992,2.30095 z m -6.86902,-2.86461 c -0.001,0.0652 0.0298,0.92008 0.0362,0.96719 0.006,0.0471 1.66475,0.39868 1.66475,0.39868 0,0 0.53705,0.13717 0.56704,0.0103 0.03,-0.12684 0.51367,-0.99507 0.76342,-1.15623 0.24975,-0.16116 -2.97496,-0.35977 -3.0314,-0.21996 z m 27.6484,-1.1672 4.84415,0.43939 c 0,0 0.20884,1.20936 0.15928,1.28849 -0.0495,0.0791 -0.28386,0.18746 -0.42801,0.24984 -0.14415,0.0624 -1.64051,0.0377 -2.02976,-0.036 -0.38926,-0.0737 -0.75827,-0.13868 -1.04969,-0.25953 -0.29143,-0.12085 -0.67685,-0.20835 -0.67685,-0.20835 l -1.11295,-0.93712 0.11929,-0.42099 z m 5.00577,1.52652 c 0,0 4.00523,-0.0907 4.06788,-0.01 0.0626,0.0808 0.0708,0.85971 0.0709,0.9519 1e-4,0.0922 0.0224,1.30101 0.0298,1.43856 0.007,0.13756 0.0496,0.91156 0.0327,1.04889 -0.0169,0.13734 0.1028,0.39153 -1.27594,0.71224 -1.13408,0.26381 -3.36933,0.91924 -4.36436,1.00656 -0.99502,0.0873 -2.82998,0.0843 -3.03324,0.0123 -0.20326,-0.072 -0.16792,-0.5854 -0.34204,-1.29295 -0.17412,-0.70754 -0.88012,-1.92089 -1.48408,-2.27599 -0.60395,-0.3551 1.80727,-1.5579 1.80727,-1.5579 z m 1.05412,2.76352 a 2.6110995,2.8826368 0 0 1 -2.6111,2.88264 2.6110995,2.8826368 0 0 1 -2.6111,-2.88264 2.6110995,2.8826368 0 0 1 2.6111,-2.88264 2.6110995,2.8826368 0 0 1 2.6111,2.88264 z m -5.75906,1.71252 a 2.6110995,2.8826368 0 0 1 -2.6111,2.88263 2.6110995,2.8826368 0 0 1 -2.6111,-2.88263 2.6110995,2.8826368 0 0 1 2.6111,-2.88264 2.6110995,2.8826368 0 0 1 2.6111,2.88264 z M 163.65,107.76163 c 0,0 -0.55095,0.01 -0.59587,-0.0416 -0.0449,-0.0515 -0.0233,-2.29156 -0.0248,-2.39792 -0.002,-0.10636 0.005,-0.8941 0.0402,-0.96984 0.0349,-0.0757 0.48166,-0.095 0.48166,-0.095 l 0.1384,0.27547 c 0,0 0.19027,2.90476 -0.0396,3.22892 z m 0.27717,2.30883 c -0.1018,-0.0658 -0.52481,-0.14782 -0.63958,-0.34992 -0.11476,-0.2021 -0.26875,-0.9156 -0.23887,-1.22158 0.0299,-0.30598 0.002,-0.67471 0.01,-0.81832 0.008,-0.14361 0.5743,-0.16716 0.5743,-0.16716 l 0.54057,0.73843 z m 14.36852,-13.778029 3.9808,0.0024 c 0,0 -0.46828,-1.276075 -0.57993,-1.338763 -0.11164,-0.06269 -2.11646,-0.05624 -2.23381,0.01455 -0.11735,0.0708 -1.11445,1.169297 -1.16706,1.321928 z m 3.42424,-1.147834 c 0,0 3.78399,0.458597 3.84785,0.508775 0.0639,0.05018 0.36692,0.680543 0.39155,0.75479 0.0246,0.07425 0.1561,0.280818 -0.0567,0.233587 -0.21282,-0.04723 -3.89458,-0.17889 -3.89458,-0.17889 z m 3.8627,0.537757 c -0.0128,-0.02556 -0.0568,-0.09058 0.0405,-0.08382 0.0974,0.0068 0.3716,-0.0034 0.49233,0.12703 0.12073,0.130434 0.89897,1.073665 0.56755,1.023588 -0.33142,-0.05008 -0.74255,-0.094 -0.74255,-0.094 z m 9.52421,18.157616 0.4689,-0.0856 0.31241,-0.40121 -0.97414,0.28427 z m 2.62602,-2.9254 a 2.6110995,2.8826368 0 0 1 -2.61109,2.88264 2.6110995,2.8826368 0 0 1 -2.6111,-2.88264 2.6110995,2.8826368 0 0 1 2.6111,-2.88263 2.6110995,2.8826368 0 0 1 2.61109,2.88263 z m -12.9893,1.77058 c 0,0 0.0252,0.16979 0.14672,0.181 0.1215,0.0112 2.66326,0.28505 3.46377,0.28871 0.80051,0.004 2.96892,0.29485 3.52943,0.26393 0.5605,-0.0309 -0.57834,-3.28431 -0.57834,-3.28431 l -3.734,-1.97716 -3.36942,1.429 z m -19.27403,-2.56465 0.11008,0.50403 c 0,0 0.19512,0.10296 0.29911,0.13666 0.104,0.0337 4.14376,0.37733 4.14376,0.37733 l -0.65977,-2.94443 -2.47489,-1.03166 -1.56002,1.69347 z"
       transform="translate(-75.79868,-53.311261)" /><g
       id="g8794"
       transform="translate(-75.798681,-53.311262)"
       style="display:inline"><path
         style="font-variation-settings:normal;opacity:1;vector-effect:none;fill:#000000;fill-opacity:1;stroke:none;stroke-width:0.411395;stroke-linecap:square;stroke-linejoin:round;stroke-miterlimit:4;stroke-dasharray:none;stroke-dashoffset:0;stroke-opacity:1;-inkscape-stroke:none;paint-order:markers fill stroke;stop-color:#000000;stop-opacity:1"
         d="m 165.46953,110.1205 0.11008,0.50403 c 0,0 0.19512,0.10296 0.29911,0.13666 0.104,0.0337 4.14376,0.37733 4.14376,0.37733 l -0.65977,-2.94443 -2.47489,-1.03166 -1.56002,1.69347 z"
         id="path6422" /><path
         style="font-variation-settings:normal;opacity:1;vector-effect:none;fill:#000000;fill-opacity:1;stroke:none;stroke-width:0.411395;stroke-linecap:square;stroke-linejoin:round;stroke-miterlimit:4;stroke-dasharray:none;stroke-dashoffset:0;stroke-opacity:1;-inkscape-stroke:none;paint-order:markers fill stroke;stop-color:#000000;stop-opacity:1"
         d="m 184.74356,112.68515 c 0,0 0.0252,0.16979 0.14672,0.181 0.1215,0.0112 2.66326,0.28505 3.46377,0.28871 0.80051,0.004 2.96892,0.29485 3.52943,0.26393 0.5605,-0.0309 -0.57834,-3.28431 -0.57834,-3.28431 l -3.734,-1.97716 -3.36942,1.429 z"
         id="path6536" /><path
         id="ellipse8750"
         style="opacity:1;vector-effect:none;stroke-width:0.411395;stroke-linecap:square;stroke-linejoin:round;paint-order:markers fill stroke;stop-color:#000000;stop-opacity:1"
         d="m 197.73286,110.91457 a 2.6110995,2.8826368 0 0 1 -2.61109,2.88264 2.6110995,2.8826368 0 0 1 -2.6111,-2.88264 2.6110995,2.8826368 0 0 1 2.6111,-2.88263 2.6110995,2.8826368 0 0 1 2.61109,2.88263 z" /><path
         style="font-variation-settings:normal;opacity:1;vector-effect:none;fill:#000000;fill-opacity:1;stroke:none;stroke-width:0.411395;stroke-linecap:square;stroke-linejoin:round;stroke-miterlimit:4;stroke-dasharray:none;stroke-dashoffset:0;stroke-opacity:1;-inkscape-stroke:none;paint-order:markers fill stroke;stop-color:#000000;stop-opacity:1"
         d="m 195.10684,113.83997 0.4689,-0.0856 0.31241,-0.40121 -0.97414,0.28427 z"
         id="path8752"
         sodipodi:nodetypes="ccccc" /><path
         style="font-variation-settings:normal;opacity:1;fill:#ffffff;fill-opacity:1;stroke:none;stroke-width:0.1;stroke-linecap:square;stroke-linejoin:round;stroke-miterlimit:4;stroke-dasharray:none;stroke-dashoffset:0;stroke-opacity:1;paint-order:markers fill stroke;stop-color:#000000;stop-opacity:1"
         d="m 185.58263,95.682354 c -0.0128,-0.02556 -0.0568,-0.09058 0.0405,-0.08382 0.0974,0.0068 0.3716,-0.0034 0.49233,0.12703 0.12073,0.130434 0.89897,1.073665 0.56755,1.023588 -0.33142,-0.05008 -0.74255,-0.094 -0.74255,-0.094 z"
         id="path8748" /><path
         style="font-variation-settings:normal;opacity:1;fill:#333333;fill-opacity:1;stroke:none;stroke-width:0.1;stroke-linecap:square;stroke-linejoin:round;stroke-miterlimit:4;stroke-dasharray:none;stroke-dashoffset:0;stroke-opacity:1;paint-order:markers fill stroke;stop-color:#000000;stop-opacity:1"
         d="m 181.71993,95.144597 c 0,0 3.78399,0.458597 3.84785,0.508775 0.0639,0.05018 0.36692,0.680543 0.39155,0.75479 0.0246,0.07425 0.1561,0.280818 -0.0567,0.233587 -0.21282,-0.04723 -3.89458,-0.17889 -3.89458,-0.17889 z"
         id="path8746" /><path
         style="font-variation-settings:normal;opacity:1;fill:#ffffff;fill-opacity:1;stroke:none;stroke-width:0.1;stroke-linecap:square;stroke-linejoin:round;stroke-miterlimit:4;stroke-dasharray:none;stroke-dashoffset:0;stroke-opacity:1;paint-order:markers fill stroke;stop-color:#000000;stop-opacity:1"
         d="m 178.29569,96.292431 3.9808,0.0024 c 0,0 -0.46828,-1.276075 -0.57993,-1.338763 -0.11164,-0.06269 -2.11646,-0.05624 -2.23381,0.01455 -0.11735,0.0708 -1.11445,1.169297 -1.16706,1.321928 z"
         id="path8744" /><path
         style="font-variation-settings:normal;opacity:1;vector-effect:none;fill:#ffffff;fill-opacity:1;stroke:none;stroke-width:0.411395;stroke-linecap:square;stroke-linejoin:round;stroke-miterlimit:4;stroke-dasharray:none;stroke-dashoffset:0;stroke-opacity:1;-inkscape-stroke:none;paint-order:markers fill stroke;stop-color:#000000;stop-opacity:1"
         d="m 163.92717,110.07046 c -0.1018,-0.0658 -0.52481,-0.14782 -0.63958,-0.34992 -0.11476,-0.2021 -0.26875,-0.9156 -0.23887,-1.22158 0.0299,-0.30598 0.002,-0.67471 0.01,-0.81832 0.008,-0.14361 0.5743,-0.16716 0.5743,-0.16716 l 0.54057,0.73843 z"
         id="path6420" /><path
         style="font-variation-settings:normal;opacity:1;vector-effect:none;fill:#ff5208;fill-opacity:1;stroke:none;stroke-width:0.411395;stroke-linecap:square;stroke-linejoin:round;stroke-miterlimit:4;stroke-dasharray:none;stroke-dashoffset:0;stroke-opacity:1;-inkscape-stroke:none;paint-order:markers fill stroke;stop-color:#000000;stop-opacity:1"
         d="m 163.65,107.76163 c 0,0 -0.55095,0.01 -0.59587,-0.0416 -0.0449,-0.0515 -0.0233,-2.29156 -0.0248,-2.39792 -0.002,-0.10636 0.005,-0.8941 0.0402,-0.96984 0.0349,-0.0757 0.48166,-0.095 0.48166,-0.095 l 0.1384,0.27547 c 0,0 0.19027,2.90476 -0.0396,3.22892 z"
         id="path6394" /><path
         id="ellipse6542"
         style="opacity:1;vector-effect:none;stroke-width:0.411395;stroke-linecap:square;stroke-linejoin:round;paint-order:markers fill stroke;stop-color:#000000;stop-opacity:1"
         d="m 191.5188,112.71548 a 2.6110995,2.8826368 0 0 1 -2.6111,2.88263 2.6110995,2.8826368 0 0 1 -2.6111,-2.88263 2.6110995,2.8826368 0 0 1 2.6111,-2.88264 2.6110995,2.8826368 0 0 1 2.6111,2.88264 z" /><path
         id="ellipse8754"
         style="opacity:1;vector-effect:none;fill:#333333;stroke-width:0.411395;stroke-linecap:square;stroke-linejoin:round;paint-order:markers fill stroke;stop-color:#000000;stop-opacity:1"
         d="m 197.27786,111.00296 a 2.6110995,2.8826368 0 0 1 -2.6111,2.88264 2.6110995,2.8826368 0 0 1 -2.6111,-2.88264 2.6110995,2.8826368 0 0 1 2.6111,-2.88264 2.6110995,2.8826368 0 0 1 2.6111,2.88264 z" /><path
         style="fill:#ffffff;stroke:none;stroke-width:0.0187243;-inkscape-stroke:none;stop-color:#000000"
         d="m 196.22374,108.23944 c 0,0 4.00523,-0.0907 4.06788,-0.01 0.0626,0.0808 0.0708,0.85971 0.0709,0.9519 1e-4,0.0922 0.0224,1.30101 0.0298,1.43856 0.007,0.13756 0.0496,0.91156 0.0327,1.04889 -0.0169,0.13734 0.1028,0.39153 -1.27594,0.71224 -1.13408,0.26381 -3.36933,0.91924 -4.36436,1.00656 -0.99502,0.0873 -2.82998,0.0843 -3.03324,0.0123 -0.20326,-0.072 -0.16792,-0.5854 -0.34204,-1.29295 -0.17412,-0.70754 -0.88012,-1.92089 -1.48408,-2.27599 -0.60395,-0.3551 1.80727,-1.5579 1.80727,-1.5579 z"
         id="path977"
         sodipodi:nodetypes="ccscsssssscc" /><path
         style="font-variation-settings:normal;opacity:1;vector-effect:none;fill:#ff5208;fill-opacity:1;stroke:none;stroke-width:0.411395;stroke-linecap:square;stroke-linejoin:round;stroke-miterlimit:4;stroke-dasharray:none;stroke-dashoffset:0;stroke-opacity:1;-inkscape-stroke:none;paint-order:markers fill stroke;stop-color:#000000;stop-opacity:1"
         d="m 191.21797,106.71292 4.84415,0.43939 c 0,0 0.20884,1.20936 0.15928,1.28849 -0.0495,0.0791 -0.28386,0.18746 -0.42801,0.24984 -0.14415,0.0624 -1.64051,0.0377 -2.02976,-0.036 -0.38926,-0.0737 -0.75827,-0.13868 -1.04969,-0.25953 -0.29143,-0.12085 -0.67685,-0.20835 -0.67685,-0.20835 l -1.11295,-0.93712 0.11929,-0.42099 z"
         id="path1195" /><path
         style="font-variation-settings:normal;opacity:1;fill:#333333;fill-opacity:1;stroke:none;stroke-width:0.1;stroke-linecap:square;stroke-linejoin:round;stroke-miterlimit:4;stroke-dasharray:none;stroke-dashoffset:0;stroke-opacity:1;paint-order:markers fill stroke;stop-color:#000000;stop-opacity:1"
         d="m 163.56957,107.88012 c -0.001,0.0652 0.0298,0.92008 0.0362,0.96719 0.006,0.0471 1.66475,0.39868 1.66475,0.39868 0,0 0.53705,0.13717 0.56704,0.0103 0.03,-0.12684 0.51367,-0.99507 0.76342,-1.15623 0.24975,-0.16116 -2.97496,-0.35977 -3.0314,-0.21996 z"
         id="path6334" /><path
         id="ellipse6534"
         style="opacity:1;vector-effect:none;stroke-width:0.411395;stroke-linecap:square;stroke-linejoin:round;paint-order:markers fill stroke;stop-color:#000000;stop-opacity:1"
         d="m 170.43859,110.74473 a 1.6299182,2.3009496 0 0 1 -1.62992,2.30095 1.6299182,2.3009496 0 0 1 -1.62992,-2.30095 1.6299182,2.3009496 0 0 1 1.62992,-2.30095 1.6299182,2.3009496 0 0 1 1.62992,2.30095 z" /><path
         style="font-variation-settings:normal;opacity:1;fill:#333333;fill-opacity:1;stroke:none;stroke-width:0.1;stroke-linecap:square;stroke-linejoin:round;stroke-miterlimit:4;stroke-dasharray:none;stroke-dashoffset:0;stroke-opacity:1;paint-order:markers fill stroke;stop-color:#000000;stop-opacity:1"
         d="m 169.31083,109.57475 c -0.0435,-0.0967 -0.25105,-0.58209 -0.34612,-0.70279 -0.0951,-0.1207 -0.4805,-0.48767 -0.59569,-0.5833 -0.1152,-0.0956 2.80931,-0.042 2.80931,-0.042 l 3.31581,0.23683 3.47099,0.2718 3.4536,0.19273 3.52913,0.44948 1.73118,0.22599 c 0,0 0.0642,-0.0176 -0.0781,0.0711 -0.14231,0.0887 -0.43879,0.35194 -0.56478,0.51678 -0.12598,0.16484 -0.40624,0.51941 -0.48882,0.66505 -0.0826,0.14565 7.9e-4,-0.0137 -0.10068,0.19403 -0.10141,0.2077 -0.48282,0.11288 -0.48282,0.11288 l -9.90386,-0.82791 -5.52293,-0.57201 c 0,0 -0.17079,-0.1368 -0.2262,-0.20867 z"
         id="path6338" /><path
         style="font-variation-settings:normal;display:inline;opacity:1;vector-effect:none;fill:#00387a;fill-opacity:1;stroke:none;stroke-width:0;stroke-linecap:butt;stroke-linejoin:miter;stroke-miterlimit:10;stroke-dasharray:none;stroke-dashoffset:0;stroke-opacity:1;-inkscape-stroke:none;paint-order:markers fill stroke;stop-color:#000000;stop-opacity:1"
         d="m 164.77379,97.22018 c 0.73978,-0.190147 3.57455,-0.426575 4.91287,-0.523037 1.33833,-0.09647 8.07553,-0.419386 8.98179,-0.413009 0.90625,0.0064 2.92326,0.0075 4.24936,0.0267 1.3261,0.01921 3.31313,0.179769 4.57997,0.685373 1.26686,0.505604 3.669,2.844608 4.24144,3.380503 0.57245,0.53588 3.45482,3.76889 3.61388,3.88614 0.15905,0.11726 0.28717,0.0888 0.39546,0.12178 0.1083,0.0329 3.77676,1.47717 4.21047,2.08897 0.43369,0.61181 0.39761,1.8061 0.40614,2.35375 0.009,0.54764 0.0262,0.97874 -0.81598,1.19963 -0.84217,0.22089 -1.41397,0.2507 -1.90752,0.23862 -0.49356,-0.0121 -0.6911,-0.30274 -1.10304,-1.00385 -0.41194,-0.70111 -0.67432,-1.2267 -0.63211,-1.60719 0.0422,-0.38048 -0.61966,-0.28579 -2.39023,-0.49319 -1.77057,-0.20738 -2.50247,-0.39823 -2.17149,0.0909 0.33098,0.48918 0.74088,0.89386 0.99364,1.0262 0.25276,0.13234 -0.007,0.68691 -0.0608,0.74795 -0.0537,0.061 -0.24214,0.1825 -0.37362,0.30053 -0.13148,0.11803 -0.29728,0.42047 -0.53173,0.4543 -0.23447,0.0338 -1.47691,0.0469 -1.47691,0.0469 0,0 -0.78619,-0.51299 -1.66915,-0.56776 -0.88294,-0.0547 -1.62728,0.43495 -1.62728,0.43495 0,0 -3.81142,-0.30155 -4.215,-0.33135 -0.40359,-0.0298 -2.90033,-0.24961 -3.47037,-0.29989 -0.57005,-0.0503 -3.7405,-0.27934 -4.16206,-0.31119 -0.42157,-0.0318 -3.93034,-0.30686 -4.17942,-0.32526 -0.24908,-0.0184 -2.2048,-0.13628 -2.2048,-0.13628 0,0 -0.35955,-0.29299 -0.70787,-0.35037 -0.34834,-0.0574 -0.62922,-0.0457 -0.81026,0.0324 -0.18103,0.0781 -0.25082,0.1357 -0.25082,0.1357 l -3.02895,-0.20029 c 0,0 -0.009,-0.30899 -0.0111,-0.46338 -0.002,-0.15437 -0.009,-0.1079 -0.007,-0.18515 0.002,-0.0772 0,-0.24257 -8e-5,-0.29975 4e-5,-0.0572 -0.0517,-0.57383 -0.0556,-0.59901 -0.004,-0.0252 0.0317,-0.87769 0.04,-1.13488 0.008,-0.2572 0.0158,-0.82814 -0.001,-0.85179 -0.0165,-0.0237 -0.45402,0.0145 -0.47166,0.0118 -0.0176,-0.003 0.16664,-1.67205 0.20877,-1.93703 0.0421,-0.26497 0.22431,-1.55133 0.27254,-1.80957 0.0482,-0.25823 0.23132,-1.190438 0.29541,-1.440957 0.0641,-0.250529 0.35211,-1.768565 0.93408,-1.978962 z"
         id="path776" /><path
         style="display:inline;fill:#333333;stroke:none;stroke-width:0.0187243;-inkscape-stroke:none;stop-color:#000000"
         d="m 187.11633,99.610721 c 2.01438,0.06038 3.52387,0.155106 3.80901,0.238064 0.28514,0.08296 1.17871,0.834825 1.47086,1.158705 0.29214,0.32389 1.82514,1.99988 1.9879,2.18522 0.16275,0.18535 0.86475,0.97519 0.90236,1.0277 0.0376,0.0525 -1.22322,0.1176 -2.10826,0.13711 -0.88506,0.0195 -2.66366,0.0505 -3.29224,0.0784 -0.62857,0.0279 -0.72886,0.26536 -1.56589,-0.87588 -0.83702,-1.14124 -1.56233,-2.08657 -1.92875,-2.5441 -0.36643,-0.45752 -0.58769,-0.72447 -0.69727,-0.96866 -0.10958,-0.24418 -0.28796,-0.438986 0.34426,-0.432393 0.63222,0.0066 1.07802,-0.0042 1.07802,-0.0042 z"
         id="path599" /><path
         style="display:inline;fill:#333333;stroke:none;stroke-width:0.0187243;-inkscape-stroke:none;stop-color:#000000"
         d="m 180.65752,99.535402 c 0.31309,-0.209237 3.02008,-0.127067 3.37065,0.0083 0.35057,0.135419 0.83022,0.963788 2.29105,3.156698 1.46083,2.19291 1.59692,2.39758 1.64814,2.67683 0.0512,0.27924 -0.54688,0.22056 -4.11731,0.0448 -3.35543,-0.16521 -3.41539,-0.34376 -3.55703,-0.58908 -0.0803,-0.13909 -0.14863,-1.68184 -0.11646,-2.72133 0.0267,-0.86157 0.18313,-2.434491 0.48096,-2.576231 z"
         id="path601"
         sodipodi:nodetypes="csssssscc" /><path
         style="display:inline;fill:#ffffff;stroke:none;stroke-width:0.0187243;-inkscape-stroke:none;stop-color:#000000"
         d="m 164.47073,98.25424 c 1.33439,-0.09194 4.90698,-0.35852 6.38772,-0.4181 1.48074,-0.05958 3.75662,-0.189036 5.58191,-0.246178 1.82529,-0.05714 6.14121,-0.146138 6.14121,-0.146138 l -0.49192,-0.400678 c 0,0 -6.05255,0.138969 -7.33483,0.20868 -1.28227,0.0697 -6.09364,0.332849 -6.87821,0.391206 -0.78458,0.05835 -3.30935,0.276364 -3.30935,0.276364 -0.0616,0.111612 -0.0694,0.223223 -0.0965,0.334844 z"
         id="path603"
         sodipodi:nodetypes="cssccsscc" /><path
         style="display:inline;fill:#ffffff;stroke:none;stroke-width:0.0187243;-inkscape-stroke:none;stop-color:#000000"
         d="m 163.49362,106.36324 c 0,0 5.05659,0.31016 7.63504,0.4166 2.57846,0.10643 10.28729,0.62329 11.34933,0.66934 1.06205,0.0461 9.45767,0.63641 9.55533,0.6382 0.0976,0.002 0.13685,0.11479 0.29843,0.16957 0.16159,0.0548 0.53606,0.19468 0.53606,0.19468 l -0.66739,0.65729 c 0,0 -12.20049,-0.95312 -13.8385,-1.03367 -1.63802,-0.0806 -13.02316,-0.86906 -13.18529,-0.8823 -0.16214,-0.0132 -1.62615,-0.14279 -1.62615,-0.14279 z"
         id="path709" /><path
         style="display:inline;fill:#ffffff;stroke:none;stroke-width:0.0187243;-inkscape-stroke:none;stop-color:#000000"
         d="m 163.54794,107.25006 c 0.6938,0.0441 7.43968,0.535 8.17859,0.58343 0.73892,0.0484 7.46363,0.55177 8.55926,0.61532 1.09565,0.0635 11.65823,0.8432 11.65823,0.8432 l -0.22143,0.24629 c 0,0 -8.17344,-0.65628 -9.10952,-0.71827 -0.93609,-0.062 -12.61813,-0.91521 -13.92199,-1.01032 -1.30385,-0.0951 -5.13616,-0.36042 -5.13616,-0.36042 z"
         id="path711"
         sodipodi:nodetypes="cssccsscc" /><path
         id="path1091"
         style="font-variation-settings:normal;opacity:1;vector-effect:none;fill:#ff5208;fill-opacity:1;stroke:none;stroke-width:0.411395;stroke-linecap:square;stroke-linejoin:round;stroke-miterlimit:4;stroke-dasharray:none;stroke-dashoffset:0;stroke-opacity:1;-inkscape-stroke:none;paint-order:markers fill stroke;stop-color:#000000;stop-opacity:1"
         inkscape:transform-center-x="0.091824346"
         inkscape:transform-center-y="-0.0055985146"
         d="m 194.76171,111.03537 c 0.0286,0.1582 -0.12446,0.35302 -0.3496,0.35891 -0.24683,0.006 -0.36207,-0.0529 -0.39063,-0.21107 -0.0286,-0.15821 0.0814,-0.2807 0.28719,-0.36184 0.20953,-0.0826 0.42448,0.0558 0.45304,0.214 z"
         sodipodi:nodetypes="sssss" /><path
         id="path1873"
         style="font-weight:bold;font-size:24.6944px;font-family:'LubalGraph Bd BT';-inkscape-font-specification:'LubalGraph Bd BT Bold';fill:#ffffff;stroke:none;stroke-width:0.00353477;stroke-linecap:square;stroke-linejoin:round;paint-order:markers fill stroke"
         d="m 199.46411,109.24635 -0.16649,0.0309 -0.24239,-1.28197 -0.0598,0.0101 -0.0233,-0.36165 0.3192,-0.0486 0.0193,0.35872 -0.0648,0.0111 0.11377,0.67411 0.0575,-1.06316 0.16958,-0.026 0.15228,1.0475 0.0485,-0.71995 -0.0648,0.0101 -0.0132,-0.35682 0.3112,-0.0484 0.0102,0.35588 -0.0589,0.009 -0.11689,1.32624 -0.16351,0.0298 -0.15924,-0.98737 z m -1.13738,-0.12619 -0.0923,-0.99254 -0.0788,0.0124 -0.0354,-0.36444 0.35509,-0.0552 0.0303,0.36353 -0.0728,0.0113 0.0275,0.31357 0.23335,-0.0391 -0.0245,-0.31262 -0.0738,0.0123 -0.0283,-0.36256 0.35011,-0.0541 0.0243,0.36063 -0.0778,0.0124 0.0692,0.98494 0.0748,-0.0133 0.0218,0.32967 -0.32798,0.0617 -0.0268,-0.33158 0.0708,-0.0122 -0.0257,-0.3296 -0.23033,0.04 0.0288,0.33055 0.0708,-0.0132 0.0278,0.33156 -0.33397,0.0618 -0.0318,-0.33249 z m -0.37189,0.0665 0.0748,-0.0133 0.0348,0.33345 -0.33893,0.0639 -0.0399,-0.33536 0.0738,-0.0133 -0.11445,-1.00015 -0.0768,0.0123 0.0282,0.23954 -0.14959,0.0246 -0.0746,-0.60779 0.66331,-0.10258 0.0605,0.60304 -0.1466,0.0246 -0.0242,-0.23862 -0.0768,0.0123 z" /><path
         style="font-variation-settings:normal;opacity:1;fill:#333333;fill-opacity:1;stroke:none;stroke-width:0.102835;stroke-linecap:square;stroke-linejoin:round;stroke-miterlimit:4;stroke-dasharray:none;stroke-dashoffset:0;stroke-opacity:1;paint-order:markers fill stroke;stop-color:#000000;stop-opacity:1"
         d="m 199.0468,111.49368 c 0.34187,-0.0663 0.83591,-0.27856 0.89033,-0.23701 0.0544,0.0415 0.0491,0.87371 -0.0237,0.91912 -0.0728,0.0454 -1.7242,0.48612 -1.77575,0.45416 -0.0515,-0.032 0.0103,-0.90126 0.0661,-0.9536 0.0558,-0.0523 0.72259,-0.15957 0.84297,-0.18267 z"
         id="path6276" /><path
         style="font-variation-settings:normal;opacity:1;vector-effect:none;fill:#00387a;fill-opacity:1;stroke:none;stroke-width:0;stroke-linecap:butt;stroke-linejoin:miter;stroke-miterlimit:10;stroke-dasharray:none;stroke-dashoffset:0;stroke-opacity:1;-inkscape-stroke:none;paint-order:markers fill stroke;stop-color:#000000;stop-opacity:1"
         d="m 163.60873,108.8287 2.23155,0.42322 c 0,0 -0.0949,0.46207 -0.0549,0.76321 0.04,0.30114 0.14751,0.7129 0.10677,0.73687 -0.0408,0.024 -1.37496,-0.42994 -1.57226,-0.49829 -0.1973,-0.0684 -0.36296,-0.15025 -0.39472,-0.18304 -0.0318,-0.0328 -0.35933,-1.28485 -0.31647,-1.24197 z"
         id="path6332" /><path
         style="font-variation-settings:normal;opacity:1;vector-effect:none;fill:#00387a;fill-opacity:1;stroke:none;stroke-width:0;stroke-linecap:butt;stroke-linejoin:miter;stroke-miterlimit:10;stroke-dasharray:none;stroke-dashoffset:0;stroke-opacity:1;-inkscape-stroke:none;paint-order:markers fill stroke;stop-color:#000000;stop-opacity:1"
         d="m 169.30946,109.57382 c 0,0 2.311,0.20249 3.1692,0.25378 0.8582,0.0513 3.76446,0.35228 4.64325,0.43034 0.87878,0.0781 3.86537,0.38356 4.57396,0.42798 0.70858,0.0444 3.75294,0.38353 3.75294,0.38353 0,0 -0.2869,0.63561 -0.31708,1.16789 -0.0302,0.53227 0.0961,0.71529 -0.52218,0.62049 -0.61828,-0.0948 -3.28799,-0.43139 -3.80005,-0.46219 -0.51206,-0.0308 -2.94103,-0.32969 -3.61832,-0.40912 -0.67729,-0.0794 -3.59389,-0.37987 -4.0872,-0.45391 -0.4933,-0.074 -2.30554,-0.34148 -2.6998,-0.35334 -0.39425,-0.0118 -0.53426,-0.0137 -0.60595,-0.0629 -0.0717,-0.0492 -0.25685,-0.89337 -0.29291,-1.01888 -0.0361,-0.1255 -0.17671,-0.4917 -0.19586,-0.52368 z"
         id="path6336" /><path
         style="font-variation-settings:normal;opacity:1;vector-effect:none;fill:#000000;fill-opacity:1;stroke:none;stroke-width:0.411395;stroke-linecap:square;stroke-linejoin:round;stroke-miterlimit:4;stroke-dasharray:none;stroke-dashoffset:0;stroke-opacity:1;-inkscape-stroke:none;paint-order:markers fill stroke;stop-color:#000000;stop-opacity:1"
         d="m 167.97931,113.1513 c 0.57308,-0.0682 0.9067,-0.1097 0.9067,-0.1097 0,0 0.1368,-0.0505 0.18302,-0.11392 0.0462,-0.0634 -0.67836,-0.20308 -0.67836,-0.20308 z"
         id="path6532" /><path
         id="path6476"
         style="opacity:1;vector-effect:none;fill:#333333;stroke-width:0.411395;stroke-linecap:square;stroke-linejoin:round;paint-order:markers fill stroke;stop-color:#000000;stop-opacity:1"
         d="m 169.45435,110.85768 a 1.6299182,2.3009496 0 0 1 -1.62992,2.30095 1.6299182,2.3009496 0 0 1 -1.62992,-2.30095 1.6299182,2.3009496 0 0 1 1.62992,-2.30095 1.6299182,2.3009496 0 0 1 1.62992,2.30095 z" /><path
         id="ellipse6530"
         style="opacity:1;vector-effect:none;fill:#ffffff;stroke-width:0.272236;stroke-linecap:square;stroke-linejoin:round;paint-order:markers fill stroke;stop-color:#000000;stop-opacity:1"
         d="m 168.90301,110.85768 a 1.0785795,1.5226268 0 0 1 -1.07858,1.52263 1.0785795,1.5226268 0 0 1 -1.07858,-1.52263 1.0785795,1.5226268 0 0 1 1.07858,-1.52263 1.0785795,1.5226268 0 0 1 1.07858,1.52263 z" /><path
         style="font-variation-settings:normal;opacity:1;vector-effect:none;fill:#000000;fill-opacity:1;stroke:none;stroke-width:0.411395;stroke-linecap:square;stroke-linejoin:round;stroke-miterlimit:4;stroke-dasharray:none;stroke-dashoffset:0;stroke-opacity:1;-inkscape-stroke:none;paint-order:markers fill stroke;stop-color:#000000;stop-opacity:1"
         d="m 188.9309,115.66307 0.72723,-0.18653 0.0639,-0.32185 -0.97414,0.28427 z"
         id="path6544"
         sodipodi:nodetypes="ccccc" /><path
         id="path6538"
         style="opacity:1;vector-effect:none;fill:#333333;stroke-width:0.411395;stroke-linecap:square;stroke-linejoin:round;paint-order:markers fill stroke;stop-color:#000000;stop-opacity:1"
         d="m 191.0273,112.83794 a 2.6110995,2.8826368 0 0 1 -2.6111,2.88263 2.6110995,2.8826368 0 0 1 -2.6111,-2.88263 2.6110995,2.8826368 0 0 1 2.6111,-2.88264 2.6110995,2.8826368 0 0 1 2.6111,2.88264 z" /><path
         id="ellipse6540"
         style="opacity:1;vector-effect:none;fill:#ffffff;stroke-width:0.295632;stroke-linecap:square;stroke-linejoin:round;paint-order:markers fill stroke;stop-color:#000000;stop-opacity:1"
         d="m 190.29255,112.83794 a 1.8763562,2.071485 0 0 1 -1.87635,2.07148 1.8763562,2.071485 0 0 1 -1.87636,-2.07148 1.8763562,2.071485 0 0 1 1.87636,-2.07149 1.8763562,2.071485 0 0 1 1.87635,2.07149 z" /><path
         id="path6704"
         style="font-weight:bold;font-size:1.3068px;font-family:'LubalGraph Bd BT';-inkscape-font-specification:'LubalGraph Bd BT Bold';display:none;fill:#ffffff;stroke-width:0.00529191;stroke-linecap:square;stroke-linejoin:round;paint-order:markers fill stroke"
         d="m 177.878,104.112 0.029,-0.633 -0.116,-0.003 0.016,-0.35 0.363,0.009 -0.009,0.2 c 0.037,-0.076 0.08,-0.132 0.128,-0.168 0.048,-0.037 0.102,-0.055 0.162,-0.053 0.06,10e-4 0.11,0.023 0.151,0.066 0.042,0.044 0.074,0.107 0.095,0.189 0.044,-0.083 0.089,-0.144 0.138,-0.182 0.048,-0.039 0.102,-0.058 0.162,-0.057 0.1,0.003 0.175,0.049 0.225,0.141 0.05,0.09 0.072,0.219 0.065,0.386 l -0.021,0.503 0.127,0.005 -0.015,0.36 -0.406,-0.016 0.032,-0.746 c 0.004,-0.102 -0.004,-0.174 -0.023,-0.216 -0.02,-0.044 -0.054,-0.066 -0.103,-0.067 -0.046,-0.001 -0.084,0.023 -0.114,0.073 -0.029,0.049 -0.046,0.116 -0.05,0.201 l -0.016,0.386 0.125,0.005 -0.015,0.358 -0.392,-0.015 0.033,-0.742 c 0.004,-0.099 -0.004,-0.171 -0.024,-0.214 -0.019,-0.043 -0.053,-0.066 -0.102,-0.067 -0.045,-0.001 -0.082,0.023 -0.111,0.071 -0.029,0.049 -0.045,0.116 -0.049,0.202 l -0.017,0.383 0.111,0.004 -0.016,0.356 -0.5,-0.02 0.016,-0.354 z m -0.299,-0.991 -0.045,0.981 0.116,0.004 -0.017,0.351 -0.369,-0.015 0.008,-0.174 c -0.034,0.065 -0.074,0.112 -0.121,0.143 -0.046,0.03 -0.1,0.044 -0.161,0.042 -0.104,-0.004 -0.182,-0.05 -0.233,-0.139 -0.052,-0.089 -0.074,-0.214 -0.066,-0.376 l 0.024,-0.489 -0.116,-0.003 0.017,-0.347 0.386,0.009 -0.035,0.726 c -0.005,0.098 0.003,0.169 0.024,0.211 0.021,0.043 0.059,0.065 0.111,0.067 0.05,0.002 0.091,-0.021 0.123,-0.069 0.032,-0.049 0.05,-0.115 0.054,-0.2 l 0.018,-0.378 -0.108,-0.003 0.016,-0.349 z m -1.597,0.925 0.032,-0.618 -0.105,-0.003 0.018,-0.341 0.349,0.008 -0.009,0.189 c 0.028,-0.069 0.063,-0.12 0.104,-0.153 0.042,-0.034 0.093,-0.051 0.154,-0.052 l -0.018,0.364 c -0.085,0.004 -0.147,0.033 -0.187,0.087 -0.039,0.054 -0.061,0.142 -0.068,0.263 l -0.013,0.265 0.106,0.003 -0.018,0.348 -0.478,-0.019 0.017,-0.345 z m -0.63,0.321 0.05,-0.956 -0.112,-0.003 0.017,-0.338 0.113,0.002 0.02,-0.38 0.259,0.004 -0.02,0.382 0.114,0.003 -0.018,0.34 -0.113,-0.003 -0.032,0.615 0.087,0.003 -0.018,0.345 z m -1.072,-0.381 0.034,-0.604 -0.107,-0.003 0.019,-0.334 0.34,0.008 -0.009,0.169 c 0.033,-0.063 0.071,-0.11 0.114,-0.14 0.044,-0.031 0.094,-0.046 0.15,-0.045 0.099,0.002 0.172,0.047 0.221,0.133 0.048,0.086 0.069,0.208 0.06,0.366 l -0.025,0.478 0.113,0.004 -0.018,0.342 -0.372,-0.014 0.039,-0.708 c 0.005,-0.097 -0.002,-0.166 -0.022,-0.206 -0.018,-0.041 -0.053,-0.062 -0.102,-0.063 -0.047,-0.001 -0.086,0.022 -0.117,0.069 -0.03,0.046 -0.048,0.11 -0.052,0.191 l -0.02,0.366 0.101,0.004 -0.019,0.339 -0.458,-0.018 0.019,-0.337 z m -0.238,-0.05 c -0.045,0.128 -0.108,0.226 -0.187,0.295 -0.079,0.069 -0.167,0.102 -0.263,0.098 -0.067,-0.003 -0.126,-0.021 -0.177,-0.055 -0.052,-0.033 -0.097,-0.083 -0.138,-0.149 -0.039,-0.065 -0.067,-0.137 -0.085,-0.217 -0.017,-0.08 -0.023,-0.166 -0.017,-0.259 0.005,-0.092 0.021,-0.177 0.048,-0.256 0.027,-0.08 0.063,-0.15 0.109,-0.21 0.047,-0.061 0.099,-0.107 0.156,-0.139 0.058,-0.032 0.119,-0.048 0.181,-0.046 0.078,10e-4 0.149,0.029 0.214,0.082 0.065,0.054 0.116,0.128 0.154,0.222 0.022,0.054 0.037,0.112 0.046,0.174 0.009,0.063 0.011,0.13 0.007,0.201 -0.001,0.022 -0.003,0.044 -0.006,0.068 -0.002,0.024 -0.005,0.049 -0.009,0.076 l -0.636,-0.021 c 0.007,0.057 0.026,0.103 0.058,0.138 0.031,0.035 0.07,0.054 0.115,0.055 0.024,0.001 0.048,-0.004 0.069,-0.015 0.022,-0.011 0.043,-0.029 0.064,-0.053 z m -0.594,-0.406 0.383,0.012 c -0.009,-0.07 -0.029,-0.124 -0.06,-0.161 -0.031,-0.038 -0.071,-0.058 -0.121,-0.059 -0.046,-0.001 -0.087,0.017 -0.122,0.053 -0.036,0.037 -0.062,0.088 -0.08,0.155 z m -0.457,0.745 -0.685,-0.027 0.018,-0.304 0.411,-0.607 -0.146,-0.004 -0.006,0.104 -0.21,-0.006 0.026,-0.427 0.655,0.015 -0.02,0.333 -0.394,0.579 0.159,0.006 0.007,-0.107 0.211,0.007 z m -0.871,-0.035 -0.67,-0.026 0.019,-0.301 0.403,-0.599 -0.142,-0.004 -0.007,0.103 -0.205,-0.006 0.027,-0.423 0.64,0.015 -0.021,0.329 -0.386,0.573 0.155,0.006 0.007,-0.106 0.207,0.007 z m -1.585,-0.384 0.037,-0.575 -0.096,-0.003 0.021,-0.317 0.309,0.007 -0.011,0.161 c 0.03,-0.061 0.065,-0.106 0.105,-0.134 0.04,-0.03 0.085,-0.044 0.137,-0.043 0.088,0.002 0.154,0.044 0.197,0.127 0.043,0.081 0.06,0.197 0.05,0.348 l -0.029,0.454 0.103,0.003 -0.02,0.326 -0.337,-0.013 0.044,-0.674 c 0.006,-0.092 0,-0.157 -0.017,-0.195 -0.017,-0.039 -0.047,-0.059 -0.092,-0.06 -0.043,-0.001 -0.078,0.021 -0.107,0.065 -0.028,0.044 -0.044,0.105 -0.049,0.182 l -0.023,0.349 0.091,0.003 -0.021,0.323 -0.414,-0.016 0.021,-0.322 z m -0.215,-0.048 c -0.043,0.122 -0.101,0.216 -0.174,0.281 -0.072,0.066 -0.152,0.097 -0.239,0.094 -0.06,-0.003 -0.114,-0.02 -0.16,-0.052 -0.046,-0.032 -0.087,-0.079 -0.123,-0.142 -0.035,-0.061 -0.059,-0.13 -0.074,-0.206 -0.015,-0.076 -0.019,-0.158 -0.013,-0.247 0.006,-0.087 0.022,-0.168 0.047,-0.244 0.025,-0.075 0.059,-0.142 0.102,-0.2 0.042,-0.058 0.09,-0.102 0.143,-0.132 0.053,-0.03 0.107,-0.045 0.164,-0.044 0.071,0.002 0.135,0.028 0.193,0.078 0.058,0.051 0.104,0.121 0.137,0.211 0.019,0.052 0.032,0.107 0.039,0.166 0.007,0.059 0.009,0.123 0.004,0.191 -0.001,0.02 -0.003,0.042 -0.006,0.065 -0.002,0.022 -0.006,0.046 -0.009,0.072 l -0.576,-0.019 c 0.005,0.054 0.022,0.098 0.05,0.131 0.029,0.034 0.063,0.051 0.104,0.052 0.022,0.001 0.043,-0.004 0.063,-0.014 0.02,-0.011 0.039,-0.028 0.058,-0.051 z m -0.534,-0.385 0.347,0.01 c -0.007,-0.066 -0.024,-0.117 -0.052,-0.153 -0.028,-0.036 -0.064,-0.054 -0.109,-0.055 -0.042,-10e-4 -0.079,0.016 -0.112,0.05 -0.032,0.035 -0.057,0.084 -0.074,0.148 z m -0.704,0.698 0.061,-0.879 -0.095,-0.002 0.021,-0.312 0.096,0.002 0.024,-0.35 0.22,0.004 -0.025,0.351 0.096,0.002 -0.021,0.314 -0.096,-0.003 -0.039,0.565 0.073,0.003 -0.022,0.317 z m -0.168,-0.361 c -0.042,0.119 -0.098,0.211 -0.168,0.276 -0.07,0.064 -0.147,0.095 -0.231,0.091 -0.058,-0.002 -0.109,-0.019 -0.153,-0.05 -0.045,-0.031 -0.084,-0.078 -0.118,-0.139 -0.033,-0.06 -0.057,-0.128 -0.071,-0.203 -0.013,-0.074 -0.017,-0.155 -0.011,-0.241 0.006,-0.086 0.022,-0.166 0.047,-0.24 0.024,-0.074 0.057,-0.139 0.098,-0.196 0.042,-0.057 0.088,-0.1 0.139,-0.129 0.051,-0.031 0.104,-0.045 0.158,-0.044 0.068,0.002 0.13,0.027 0.186,0.077 0.056,0.05 0.099,0.118 0.13,0.206 0.018,0.051 0.031,0.105 0.037,0.163 0.007,0.058 0.008,0.121 0.003,0.188 -0.001,0.019 -0.004,0.04 -0.006,0.063 -0.003,0.022 -0.006,0.045 -0.01,0.071 l -0.554,-0.019 c 0.005,0.053 0.021,0.096 0.048,0.129 0.027,0.033 0.061,0.05 0.1,0.051 0.021,0.001 0.042,-0.004 0.061,-0.014 0.019,-0.011 0.037,-0.027 0.056,-0.05 z m -0.511,-0.377 0.333,0.009 c -0.006,-0.064 -0.022,-0.114 -0.049,-0.15 -0.026,-0.035 -0.061,-0.053 -0.105,-0.054 -0.04,-0.001 -0.075,0.015 -0.107,0.05 -0.032,0.034 -0.056,0.082 -0.072,0.145 z m -0.895,0.091 c -0.006,0.084 0.005,0.154 0.034,0.21 0.029,0.055 0.07,0.084 0.121,0.086 0.05,0.002 0.094,-0.024 0.131,-0.078 0.038,-0.054 0.06,-0.123 0.066,-0.207 0.006,-0.085 -0.006,-0.155 -0.035,-0.211 -0.029,-0.056 -0.069,-0.085 -0.119,-0.086 -0.051,-0.002 -0.096,0.025 -0.133,0.079 -0.037,0.054 -0.058,0.122 -0.065,0.207 z m -0.253,0.637 0.068,-0.918 -0.079,-0.002 0.023,-0.304 0.277,0.007 -0.011,0.143 c 0.031,-0.055 0.065,-0.095 0.104,-0.121 0.038,-0.026 0.082,-0.038 0.131,-0.037 0.103,0.002 0.185,0.061 0.244,0.176 0.06,0.116 0.083,0.261 0.071,0.437 -0.013,0.175 -0.058,0.319 -0.134,0.431 -0.076,0.111 -0.166,0.164 -0.27,0.16 -0.047,-0.002 -0.088,-0.016 -0.122,-0.041 -0.033,-0.026 -0.06,-0.064 -0.081,-0.114 l -0.014,0.191 0.072,0.003 -0.023,0.309 -0.358,-0.016 0.023,-0.307 z m -1.234,-0.413 0.042,-0.539 -0.084,-0.002 0.023,-0.298 0.264,0.006 -0.013,0.17 c 0.03,-0.065 0.063,-0.112 0.099,-0.143 0.036,-0.032 0.076,-0.047 0.12,-0.046 0.043,10e-4 0.079,0.019 0.108,0.056 0.029,0.037 0.05,0.09 0.062,0.161 0.035,-0.071 0.07,-0.123 0.106,-0.156 0.037,-0.033 0.077,-0.049 0.12,-0.048 0.073,0.001 0.126,0.041 0.159,0.118 0.033,0.077 0.045,0.186 0.034,0.328 l -0.032,0.428 0.092,0.004 -0.023,0.306 -0.294,-0.011 0.048,-0.635 c 0.006,-0.087 0.003,-0.148 -0.01,-0.184 -0.012,-0.037 -0.036,-0.056 -0.072,-0.057 -0.033,-0.001 -0.062,0.02 -0.085,0.063 -0.023,0.041 -0.037,0.099 -0.043,0.171 l -0.025,0.329 0.091,0.003 -0.023,0.305 -0.285,-0.011 0.049,-0.631 c 0.007,-0.085 0.003,-0.146 -0.01,-0.182 -0.012,-0.037 -0.036,-0.057 -0.072,-0.057 -0.033,-0.001 -0.061,0.019 -0.083,0.06 -0.023,0.042 -0.037,0.099 -0.043,0.172 l -0.025,0.327 0.081,0.003 -0.024,0.303 -0.364,-0.014 0.024,-0.302 z m -0.67,-0.291 c -0.006,0.077 0.004,0.143 0.031,0.199 0.027,0.056 0.062,0.084 0.106,0.086 0.044,0.001 0.084,-0.025 0.12,-0.078 0.035,-0.053 0.056,-0.119 0.062,-0.197 0.006,-0.08 -0.004,-0.147 -0.031,-0.202 -0.026,-0.056 -0.061,-0.084 -0.106,-0.086 -0.044,-0.001 -0.084,0.026 -0.119,0.08 -0.036,0.054 -0.057,0.12 -0.063,0.198 z m -0.205,-0.006 c 0.007,-0.082 0.022,-0.159 0.045,-0.23 0.024,-0.071 0.055,-0.133 0.093,-0.188 0.039,-0.054 0.082,-0.096 0.128,-0.124 0.048,-0.029 0.096,-0.043 0.146,-0.042 0.049,0.001 0.095,0.017 0.137,0.048 0.043,0.03 0.079,0.074 0.11,0.131 0.03,0.057 0.051,0.122 0.064,0.194 0.012,0.072 0.015,0.15 0.008,0.233 -0.006,0.083 -0.021,0.161 -0.045,0.232 -0.023,0.072 -0.055,0.135 -0.094,0.19 -0.039,0.054 -0.082,0.096 -0.129,0.124 -0.047,0.027 -0.096,0.039 -0.146,0.037 -0.05,-0.002 -0.096,-0.018 -0.139,-0.05 -0.042,-0.031 -0.078,-0.075 -0.108,-0.131 -0.029,-0.057 -0.05,-0.121 -0.062,-0.193 -0.012,-0.072 -0.014,-0.149 -0.008,-0.231 z m -0.621,0.268 0.081,0.003 -0.023,0.272 -0.374,-0.014 0.024,-0.298 0.083,0.003 0.07,-0.846 -0.083,-0.002 0.025,-0.294 0.374,0.007 -0.023,0.273 -0.081,-0.002 -0.03,0.375 0.257,-0.37 -0.091,-0.002 0.022,-0.273 0.378,0.007 -0.024,0.297 -0.074,-0.001 -0.278,0.4 0.24,0.455 0.052,10e-4 -0.024,0.302 -0.38,-0.015 0.023,-0.273 0.083,0.003 -0.196,-0.386 z m 5.688,-2.843 c -0.005,0.086 0.007,0.156 0.039,0.212 0.031,0.056 0.075,0.084 0.129,0.083 0.054,0 0.101,-0.028 0.14,-0.084 0.039,-0.056 0.062,-0.127 0.068,-0.214 0.005,-0.086 -0.008,-0.157 -0.04,-0.213 -0.031,-0.056 -0.074,-0.084 -0.128,-0.083 -0.055,0.001 -0.102,0.029 -0.141,0.086 -0.039,0.056 -0.061,0.127 -0.067,0.213 z m -0.264,0.658 0.064,-0.937 -0.084,0.001 0.021,-0.31 0.295,-0.004 -0.01,0.146 c 0.032,-0.057 0.069,-0.099 0.109,-0.127 0.041,-0.028 0.087,-0.042 0.14,-0.043 0.11,-10e-4 0.198,0.055 0.262,0.17 0.065,0.116 0.092,0.263 0.081,0.442 -0.012,0.179 -0.058,0.327 -0.139,0.444 -0.08,0.116 -0.175,0.173 -0.286,0.173 -0.051,0 -0.094,-0.012 -0.13,-0.037 -0.036,-0.025 -0.065,-0.062 -0.088,-0.113 l -0.014,0.195 0.077,0.001 -0.021,0.315 -0.382,-0.002 0.021,-0.314 z m -0.738,-0.652 c -0.006,0.085 0.006,0.155 0.036,0.21 0.031,0.054 0.073,0.082 0.126,0.082 0.053,0 0.098,-0.028 0.136,-0.083 0.039,-0.056 0.061,-0.126 0.067,-0.211 0.006,-0.086 -0.007,-0.156 -0.038,-0.21 -0.03,-0.056 -0.072,-0.083 -0.125,-0.082 -0.053,0 -0.098,0.028 -0.137,0.084 -0.037,0.055 -0.059,0.125 -0.065,0.21 z m -0.26,0.649 0.066,-0.924 -0.082,0.001 0.021,-0.306 0.287,-0.004 -0.01,0.145 c 0.032,-0.057 0.068,-0.098 0.107,-0.125 0.04,-0.028 0.085,-0.042 0.136,-0.043 0.107,-10e-4 0.192,0.054 0.255,0.168 0.063,0.114 0.088,0.259 0.076,0.435 -0.012,0.177 -0.057,0.323 -0.136,0.438 -0.078,0.114 -0.171,0.171 -0.279,0.171 -0.049,0 -0.092,-0.012 -0.127,-0.037 -0.034,-0.024 -0.063,-0.061 -0.085,-0.111 l -0.013,0.193 h 0.074 l -0.021,0.311 -0.373,-0.002 0.022,-0.31 z m -0.182,-1.226 -0.062,0.858 h 0.091 l -0.021,0.306 h -0.29 l 0.01,-0.152 c -0.028,0.057 -0.061,0.1 -0.098,0.128 -0.037,0.028 -0.08,0.042 -0.128,0.042 -0.082,0 -0.142,-0.038 -0.18,-0.114 -0.038,-0.076 -0.052,-0.185 -0.042,-0.326 l 0.031,-0.428 -0.091,10e-4 0.022,-0.304 0.304,-0.004 -0.046,0.635 c -0.006,0.086 -0.002,0.148 0.013,0.184 0.016,0.036 0.045,0.054 0.086,0.054 0.039,0 0.072,-0.021 0.098,-0.064 0.026,-0.043 0.042,-0.102 0.048,-0.176 l 0.023,-0.331 -0.084,0.001 0.022,-0.306 z m -1.282,0.859 0.041,-0.542 -0.083,10e-4 0.023,-0.299 0.275,-0.004 -0.012,0.166 c 0.024,-0.061 0.053,-0.107 0.087,-0.137 0.033,-0.031 0.074,-0.047 0.122,-0.05 l -0.024,0.318 c -0.066,0.006 -0.116,0.034 -0.149,0.083 -0.032,0.048 -0.052,0.125 -0.06,0.232 l -0.017,0.231 h 0.083 l -0.023,0.304 h -0.377 l 0.023,-0.303 z m -0.506,0.302 0.064,-0.839 -0.089,0.001 0.023,-0.297 0.089,-0.001 0.025,-0.3344 0.205,-0.0039 -0.025,0.3353 0.089,-0.001 -0.022,0.298 -0.09,0.001 -0.041,0.54 h 0.069 l -0.023,0.302 z m -0.432,-0.127 c -0.027,0.049 -0.058,0.085 -0.094,0.108 -0.035,0.023 -0.076,0.034 -0.121,0.034 -0.098,0 -0.175,-0.055 -0.231,-0.165 -0.056,-0.109 -0.077,-0.247 -0.064,-0.414 0.014,-0.167 0.056,-0.305 0.129,-0.415 0.073,-0.11 0.158,-0.165 0.256,-0.167 0.048,0 0.088,0.012 0.121,0.037 0.032,0.025 0.059,0.065 0.081,0.118 l 0.01,-0.139 0.269,-0.004 -0.022,0.297 -0.078,0.001 -0.06,0.78 c -0.013,0.167 -0.055,0.297 -0.127,0.388 -0.072,0.091 -0.166,0.136 -0.282,0.135 -0.097,-10e-4 -0.175,-0.036 -0.233,-0.106 -0.058,-0.07 -0.087,-0.164 -0.089,-0.281 l 0.231,0.001 c 0.005,0.033 0.018,0.057 0.037,0.074 0.019,0.016 0.045,0.025 0.079,0.025 0.054,0 0.096,-0.02 0.127,-0.062 0.031,-0.042 0.05,-0.103 0.056,-0.185 z m -0.3,-0.438 c -0.007,0.081 0.004,0.148 0.031,0.201 0.028,0.053 0.066,0.079 0.115,0.079 0.048,0 0.09,-0.027 0.126,-0.08 0.036,-0.053 0.057,-0.12 0.063,-0.202 0.006,-0.082 -0.004,-0.149 -0.032,-0.201 -0.028,-0.054 -0.065,-0.08 -0.114,-0.079 -0.049,0 -0.091,0.027 -0.127,0.081 -0.035,0.053 -0.056,0.12 -0.062,0.201 z m -0.324,-0.555 -0.065,0.824 h 0.084 l -0.023,0.294 h -0.267 l 0.011,-0.146 c -0.027,0.055 -0.057,0.096 -0.092,0.123 -0.035,0.027 -0.074,0.04 -0.119,0.04 -0.075,0 -0.13,-0.036 -0.165,-0.109 -0.034,-0.073 -0.046,-0.178 -0.035,-0.314 l 0.033,-0.411 -0.084,0.001 0.024,-0.291 0.28,-0.004 -0.049,0.609 c -0.007,0.084 -0.003,0.143 0.011,0.177 0.014,0.035 0.04,0.053 0.078,0.053 0.036,0 0.066,-0.021 0.091,-0.062 0.025,-0.042 0.04,-0.098 0.046,-0.169 l 0.025,-0.318 -0.078,10e-4 0.023,-0.294 z m -1.034,0.823 0.014,-0.167 0.189,-0.001 -0.038,0.462 -0.643,-10e-4 0.025,-0.3 0.456,-0.833 -0.168,0.003 -0.013,0.152 -0.187,0.002 0.037,-0.4417 0.601,-0.0116 -0.024,0.2923 -0.462,0.844 z"
         inkscape:label="zugtrupp" /></g></g><g
     id="g3478"
     inkscape:label="zugtrupp_taktisches_zeichen"
     transform="matrix(0.8745405,0,0,0.8745405,1.8261778,4.6059256)"
     inkscape:path-effect="#path-effect3788"><path
       id="rect3360"
       style="display:inline;fill:#ffffff;stroke-width:0;stroke-miterlimit:10;-inkscape-stroke:none;paint-order:markers fill stroke;stop-color:#000000"
       d="m 26.868681,40.44458 c -0.01734,1.999903 -0.07668,1.928925 -0.02039,4.161315 0.03445,1.366035 0.0045,2.448486 0.0045,2.448486 4.36187,0.122615 13.054276,0.339625 13.054276,0.339625 0.0097,-2.322565 0,-7.134283 0,-7.134283 -4.346135,0.108693 -8.768625,0.19637 -13.038405,0.184857 z m 0.267873,0.261782 c 2.065842,0.006 5.314577,-0.08184 7.891051,-0.108107 2.576474,-0.02626 4.604811,-0.05276 4.604811,-0.05276 0.0088,2.234905 -6.01e-4,6.565831 -6.01e-4,6.565831 -4.147875,-0.08897 -12.49098,-0.303505 -12.49098,-0.303505 0.07426,-2.01116 -0.04161,-4.028403 -0.0043,-6.101458 z"
       inkscape:original-d="m 26.687777,40.224418 v 7.169588 h 13.219865 v -7.169588 z m 0.279569,0.278019 h 12.661243 v 6.61355 H 26.967346 Z" /><circle
       cx="33.16341"
       cy="39.262333"
       fill="#000000"
       id="ellipse3173"
       r="0.52037537"
       style="fill:#ffffff;stroke-width:0.0560158"
       d="m 33.862678,39.367984 c 2.23e-4,0.288175 -0.232881,0.524708 -0.51777,0.529975 -0.285179,0.0053 -0.514473,-0.222075 -0.515529,-0.507985 -0.0011,-0.285925 0.226319,-0.52444 0.512425,-0.531316 0.286427,-0.0069 0.52065,0.221152 0.520874,0.509326 z" /><circle
       cx="29.64752"
       cy="41.456539"
       fill="#ffffff"
       id="ellipse3175"
       r="0.56015819"
       style="stroke-width:0.0560158"
       d="m 30.351417,41.588871 c -0.0067,0.298141 -0.263746,0.53845 -0.574571,0.539696 -0.311116,0.0012 -0.558589,-0.236019 -0.552338,-0.529929 0.0063,-0.294459 0.263474,-0.537539 0.57496,-0.541882 0.311791,-0.0043 0.558666,0.233839 0.551949,0.532115 z" /><circle
       cx="33.177025"
       cy="41.456539"
       fill="#ffffff"
       id="ellipse3177"
       r="0.56015819"
       style="stroke-width:0.0560158"
       d="m 33.879758,41.553603 c -0.0069,0.305264 -0.260005,0.552167 -0.56724,0.55402 -0.307353,0.0019 -0.552078,-0.2409 -0.544815,-0.543829 0.0073,-0.302923 0.263475,-0.554465 0.570248,-0.558239 0.306925,-0.0038 0.548745,0.242783 0.541807,0.548048 z" /><circle
       cx="36.882881"
       cy="41.456539"
       fill="#ffffff"
       id="ellipse3179"
       r="0.56015819"
       style="stroke-width:0.0560158"
       d="m 37.500503,41.528006 c -0.0028,0.308399 -0.248623,0.558462 -0.550014,0.56022 -0.301457,0.0018 -0.542361,-0.245038 -0.537957,-0.552568 0.0044,-0.307696 0.25128,-0.560291 0.55085,-0.562551 0.299225,-0.0023 0.539937,0.246646 0.537121,0.554899 z" /><path
       id="path3489"
       d="m 34.87593,42.91444 c -0.434973,0.01038 -1.343769,0.0019 -1.343769,0.0019 0.0021,0.184088 -0.02171,0.519594 -0.02171,0.519594 0.106677,0.0098 0.290109,4.67e-4 0.290109,4.67e-4 0.02047,-0.06845 0.03236,-0.235045 0.03236,-0.235045 0.202019,0.0097 0.574933,6.6e-5 0.574933,6.6e-5 -0.30484,0.453833 -0.929484,1.301322 -0.929484,1.301322 0.0098,0.08919 -3.7e-5,0.238416 -3.7e-5,0.238416 0.48328,0.01413 1.413698,0.01319 1.413698,0.01319 0.01787,-0.161002 0.02468,-0.514218 0.02468,-0.514218 -0.08583,0.0091 -0.287189,-0.0017 -0.287189,-0.0017 -8.26e-4,0.0875 -0.0318,0.233019 -0.0318,0.233019 -0.208693,0.008 -0.657023,-0.0049 -0.657023,-0.0049 0.315901,-0.418797 0.93231,-1.314826 0.93231,-1.314826 4e-6,-3.84e-4 0.0029,-0.236947 0.0029,-0.237331 z m -1.533991,0.0022 c -0.552433,0.01036 -1.699616,0.0018 -1.699616,0.0018 0.008,0.172178 -0.0043,0.484844 -0.0043,0.484844 0.107579,0.0098 0.292595,7.32e-4 0.292595,7.32e-4 0.01558,-0.05815 0.01733,-0.203659 0.01733,-0.203659 0.126766,0.0097 0.350064,3.21e-4 0.350064,3.21e-4 0.0057,0.441267 -0.0036,1.276013 -0.0036,1.276013 -0.05786,0.02124 -0.2035,0.03519 -0.2035,0.03519 0.01028,0.08143 9.8e-4,0.215449 9.8e-4,0.215449 0.272907,0.01222 0.787004,0.008 0.787004,0.008 0.0098,-0.06252 -3.46e-4,-0.216482 -3.46e-4,-0.216482 -0.05779,-0.0035 -0.203306,-0.03887 -0.203306,-0.03887 0.0092,-0.410187 0.005,-1.279024 0.005,-1.279024 0.126792,0.0097 0.350184,1.84e-4 0.350184,1.84e-4 0.01431,0.07814 0.01361,0.205117 0.01361,0.205117 0.107369,0.0098 0.292113,4.76e-4 0.292113,4.76e-4 0.0015,-0.163288 0.0034,-0.325655 0.0058,-0.490097 z"
       style="font-weight:bold;font-size:2.68876px;font-family:'Roboto Slab';text-anchor:middle;fill:#ffffff;stroke-width:0.0560158"
       inkscape:label="TZ"
       inkscape:original-d="m 34.773035,42.849934 h -1.360134 l -0.01575,0.53959 h 0.292771 l 0.0302,-0.244194 h 0.581602 l -0.932139,1.364073 v 0.252072 h 1.432342 l 0.02363,-0.538278 H 34.5341 l -0.03151,0.244194 h -0.665632 l 0.936077,-1.373263 z m -1.551813,0 h -1.704107 v 0.509394 h 0.29277 l 0.01576,-0.213998 h 0.350536 v 1.347006 l -0.204808,0.03939 v 0.229753 h 0.792974 v -0.229757 l -0.204812,-0.03939 V 43.14533 h 0.351849 l 0.01575,0.213998 h 0.294084 z" /><path
       id="path3484"
       d="m 39.345708,46.301804 c 0.0098,-0.009 7e-6,-0.05688 7e-6,-0.05688 -0.05211,0.009 -0.185733,-0.0031 -0.185733,-0.0031 0.0098,0.02893 -1.8e-5,0.05678 -1.8e-5,0.05678 0.02761,0.01277 0.05329,0.0083 0.05329,0.0083 -0.0089,0.08858 -0.05635,0.235588 -0.05635,0.235588 0.0065,0.02235 -0.01005,0.03694 -0.01005,0.03694 0.0092,0.01013 -0.002,2.83e-4 -0.002,2.83e-4 0.0059,-9.19e-4 -0.01192,-0.03284 -0.01192,-0.03284 -0.0222,-0.09264 -0.09604,-0.307173 -0.09604,-0.307173 -0.01342,0.0096 -0.06973,-0.0012 -0.06973,-0.0012 -0.02058,0.104727 -0.09134,0.283988 -0.09134,0.283988 0.0052,0.02613 -0.01396,0.04836 -0.01396,0.04836 0.0092,0.0099 -0.002,-3.61e-4 -0.002,-3.61e-4 0.0065,-0.004 -0.0099,-0.04207 -0.0099,-0.04207 -0.0085,-0.06644 -0.05493,-0.228877 -0.05493,-0.228877 0.02683,0.0078 0.05101,-0.0064 0.05101,-0.0064 0.0098,-0.0089 4.3e-5,-0.05663 4.3e-5,-0.05663 -0.05324,0.0089 -0.189121,-0.0033 -0.189121,-0.0033 0.0098,0.02881 -6.2e-5,0.05654 -6.2e-5,0.05654 0.02585,0.01185 0.04809,0.0057 0.04809,0.0057 0.04589,0.146009 0.108119,0.409132 0.108119,0.409132 0.03858,0.01063 0.08627,0.0018 0.08627,0.0018 0.04008,-0.08039 0.09054,-0.271218 0.09054,-0.271218 0.01404,-0.0032 0.01263,-0.03973 0.01263,-0.03973 0.01049,0.01001 0.002,3.6e-5 0.002,3.6e-5 0.01348,0.02296 0.01095,0.03888 0.01095,0.03888 0.03944,0.101956 0.08884,0.276331 0.08884,0.276331 0.03839,0.01064 0.08566,0.0018 0.08566,0.0018 0.04676,-0.125478 0.110477,-0.406591 0.110477,-0.406591 -3.1e-5,3e-6 0.04527,-0.0041 0.04524,-0.004 z m -1.196558,-0.02121 c 0.02647,0.01341 0.04997,0.01047 0.04997,0.01047 0.0095,0.121383 -0.0011,0.334652 -0.0011,0.334652 -0.0069,0.01281 -0.05009,0.0085 -0.05009,0.0085 0.0097,0.02866 -2.55e-4,0.05608 -2.55e-4,0.05608 0.07473,0.01137 0.194761,0.0042 0.194761,0.0042 0.0099,-0.0087 2.16e-4,-0.05616 2.16e-4,-0.05616 -0.007,0.0064 -0.05034,-0.01063 -0.05034,-0.01063 0.01,-0.03282 4.38e-4,-0.128249 4.38e-4,-0.128249 0.07373,0.01123 0.191748,0.0038 0.191748,0.0038 0.0097,0.05279 -3.6e-4,0.128445 -3.6e-4,0.128445 -0.007,0.01284 -0.05041,0.0085 -0.05041,0.0085 0.0097,0.02873 -1.97e-4,0.0562 -1.97e-4,0.0562 0.07475,0.01138 0.194794,0.0041 0.194794,0.0041 0.0099,-0.0088 1.61e-4,-0.05629 1.61e-4,-0.05629 -0.007,0.0065 -0.05036,-0.01064 -0.05036,-0.01064 0.01014,-0.102084 6.96e-4,-0.335684 6.96e-4,-0.335684 0.02661,0.0071 0.05035,-0.0087 0.05035,-0.0087 0.0098,-0.0089 6.6e-5,-0.05652 6.6e-5,-0.05652 -0.05506,0.0088 -0.194552,-0.0034 -0.194552,-0.0034 0.0098,0.02876 -8.8e-5,0.05643 -8.8e-5,0.05643 0.02659,0.01344 0.05032,0.01048 0.05032,0.01048 0.0097,0.05487 -2.52e-4,0.134759 -2.52e-4,0.134759 -0.05411,0.0087 -0.191709,-0.0037 -0.191709,-0.0037 0.0099,-0.03494 3.16e-4,-0.134548 3.16e-4,-0.134548 0.0266,0.0071 0.05034,-0.0087 0.05034,-0.0087 0.0099,-0.0089 9.9e-5,-0.05639 9.9e-5,-0.05639 -0.05505,0.0088 -0.194495,-0.0034 -0.194495,-0.0034 1e-6,-2.72e-4 -1.25e-4,0.05657 -1.24e-4,0.0563 z m -0.03051,-0.05684 c -0.12978,0.0074 -0.418568,-0.0075 -0.418568,-0.0075 0.0097,0.05111 -4.39e-4,0.123675 -4.39e-4,0.123675 0.03377,0.01036 0.07193,0.0014 0.07193,0.0014 0.01114,-0.0074 0.004,-0.05192 0.004,-0.05192 0.0385,0.01043 0.08611,0.0016 0.08611,0.0016 0.0094,0.119035 -0.0014,0.327696 -0.0014,0.327696 -0.007,0.01277 -0.05042,0.0085 -0.05042,0.0085 0.0097,0.02859 -3.28e-4,0.05593 -3.28e-4,0.05593 0.07482,0.01136 0.195058,0.0042 0.195058,0.0042 0.0099,-0.0087 2.85e-4,-0.05602 2.85e-4,-0.05602 -0.007,0.0064 -0.05032,-0.01061 -0.05032,-0.01061 0.01035,-0.09956 0.0013,-0.327939 0.0013,-0.327939 0.03862,0.01045 0.08644,0.0016 0.08644,0.0016 0.01103,0.02732 0.0037,0.05218 0.0037,0.05218 0.03389,0.01038 0.07226,0.0014 0.07226,0.0014 5e-6,-0.0012 3.81e-4,-0.122851 3.85e-4,-0.124089 z"
       style="font-weight:bold;font-size:0.672188px;font-family:'Roboto Slab';text-anchor:end;fill:#ffffff;stroke-width:0.0560158"
       inkscape:label="THW"
       inkscape:original-d="m 39.33773,46.301909 v -0.05777 h -0.188725 v 0.05777 l 0.05416,0.0075 -0.05711,0.240583 -0.01017,0.03775 -0.002,3.28e-4 -0.01214,-0.03315 -0.09781,-0.310821 h -0.07089 l -0.09256,0.291128 -0.01411,0.04956 -0.002,-3.28e-4 -0.01017,-0.04267 -0.05613,-0.232378 0.05186,-0.0075 v -0.05777 H 38.6376 v 0.05777 l 0.04891,0.0049 0.110609,0.415194 h 0.08763 l 0.09157,-0.278 0.0128,-0.0407 h 0.002 l 0.01116,0.03939 0.09059,0.279313 h 0.08698 l 0.111922,-0.415194 z m -1.2167,0 0.05087,0.0098 v 0.342986 l -0.05087,0.0098 v 0.05744 h 0.197915 v -0.05744 l -0.0512,-0.0098 v -0.131286 h 0.194961 v 0.131286 l -0.0512,0.0098 v 0.05744 h 0.197915 v -0.05744 l -0.0512,-0.0098 v -0.342986 l 0.0512,-0.0098 v -0.05777 h -0.197915 v 0.05777 l 0.0512,0.0098 v 0.137851 h -0.194961 v -0.137851 l 0.0512,-0.0098 v -0.05777 H 38.12103 Z m -0.03118,-0.05777 h -0.426025 v 0.127348 h 0.07319 l 0.0039,-0.0535 h 0.08763 v 0.33675 l -0.0512,0.0098 v 0.05744 h 0.198243 v -0.05744 l -0.0512,-0.0098 v -0.33675 h 0.08796 l 0.0039,0.0535 h 0.07352 z" /></g><g
     inkscape:groupmode="layer"
     id="layer6"
     inkscape:label="thw_kranz"
     transform="translate(3.2185991,1.2130823)"
     style="display:inline"
     sodipodi:insensitive="true"><path
       id="path804"
       style="display:inline;fill:#ffffff;fill-opacity:1;fill-rule:nonzero;stroke:none;stroke-width:0;stroke-linecap:butt;stroke-linejoin:miter;stroke-miterlimit:10"
       d="m 36.781401,9.1795647 c -0.930613,9.51e-4 -1.860955,0.04293 -2.78846,0.127124 -0.342943,2.0361683 -0.685936,4.0725033 -1.028878,6.1086713 -1.53988,0.256978 -3.053713,0.662145 -4.51652,1.208712 -1.316032,-1.589327 -2.632049,-3.178338 -3.948079,-4.767668 -1.719459,0.761925 -3.342783,1.728863 -4.88394,2.805514 0.722341,1.931915 1.444967,3.864111 2.16731,5.796029 -1.202006,0.998032 -2.335456,2.091239 -3.305742,3.319694 -1.940337,-0.721581 -3.880495,-1.443146 -5.820833,-2.164726 -1.07663,1.539112 -2.047938,3.158606 -2.8101641,4.878772 1.5913791,1.313873 3.1830061,2.627488 4.7743851,3.941361 -0.547547,1.460563 -0.952932,2.973631 -1.211812,4.512386 l -6.1148721,1.026294 c -0.160335,1.872153 -0.160494,3.757491 0,5.629631 2.038372,0.342764 4.0764991,0.685598 6.1148721,1.028361 0.258196,1.53803 0.661728,3.050918 1.211812,4.509802 -1.591379,1.314583 -3.183006,2.629363 -4.7743851,3.943945 0.7682931,1.715425 1.7253861,3.34412 2.8101641,4.876189 1.940338,-0.720696 3.880496,-1.441445 5.820833,-2.162142 0.973932,1.224988 2.102361,2.322759 3.305742,3.319177 -0.722343,1.931383 -1.444969,3.862578 -2.16731,5.793962 1.541397,1.076289 3.163743,2.045444 4.88394,2.80603 1.31603,-1.589503 2.632047,-3.179198 3.948079,-4.768701 1.46078,0.551618 2.975891,0.961471 4.51652,1.211812 0.342942,2.035454 0.685935,4.070633 1.028878,6.106087 0.92757,0.08496 1.85788,0.127255 2.78846,0.128158 v -10.70684 c -1.367429,-0.0021 -2.734389,-0.149327 -4.072102,-0.443901 -3.559885,-0.740723 -4.035795,-1.425899 -5.669422,-2.271179 -5.849869,-3.400369 -9.477336,-10.16589 -9.117273,-16.934367 0.154893,-6.612107 4.143245,-12.890213 9.991638,-15.912724 2.266554,-1.127489 3.878741,-1.96985 8.867159,-2.045353 z"
       inkscape:label="zahnenkranz_left" /></g></svg>
