<?xml version="1.0" encoding="UTF-8" standalone="no"?>
<!-- Created with Inkscape (http://www.inkscape.org/) -->

<svg
   width="80mm"
   height="80mm"
   viewBox="0 0 80 80"
   version="1.1"
   id="svg338"
   inkscape:version="1.2.2 (b0a8486541, 2022-12-01)"
   sodipodi:docname="kompetenzzentrum.svg"
   xml:space="preserve"
   inkscape:export-filename="./kompetenzzentrum.png"
   inkscape:export-xdpi="325.12"
   inkscape:export-ydpi="325.12"
   xmlns:inkscape="http://www.inkscape.org/namespaces/inkscape"
   xmlns:sodipodi="http://sodipodi.sourceforge.net/DTD/sodipodi-0.dtd"
   xmlns="http://www.w3.org/2000/svg"
   xmlns:svg="http://www.w3.org/2000/svg"
   xmlns:rdf="http://www.w3.org/1999/02/22-rdf-syntax-ns#"
   xmlns:cc="http://creativecommons.org/ns#"
   xmlns:dc="http://purl.org/dc/elements/1.1/"><title
     id="title2005">THW Zugtrupp Patch</title><sodipodi:namedview
     id="namedview340"
     pagecolor="#ffffff"
     bordercolor="#000000"
     borderopacity="0.25"
     inkscape:showpageshadow="2"
     inkscape:pageopacity="0.0"
     inkscape:pagecheckerboard="0"
     inkscape:deskcolor="#d1d1d1"
     inkscape:document-units="mm"
     showgrid="false"
     showguides="true"
     inkscape:zoom="2.8284271"
     inkscape:cx="124.09724"
     inkscape:cy="130.81475"
     inkscape:window-width="1920"
     inkscape:window-height="1027"
     inkscape:window-x="0"
     inkscape:window-y="53"
     inkscape:window-maximized="1"
     inkscape:current-layer="g3478"><sodipodi:guide
       position="-44.832172,39.998692"
       orientation="0,-1"
       id="guide463"
       inkscape:locked="false" /><sodipodi:guide
       position="40.000621,32.922938"
       orientation="1,0"
       id="guide465"
       inkscape:locked="false" /></sodipodi:namedview><defs
     id="defs335"><inkscape:path-effect
       effect="lattice2"
       gridpoint0="27.034409,39.300333"
       gridpoint1="40.069237,38.763344"
       gridpoint2="26.763326,46.953778"
       gridpoint3="40.076749,47.843285"
       gridpoint4="30.294532,39.00348"
       gridpoint5="36.635719,38.757093"
       gridpoint6="29.637324,47.396225"
       gridpoint7="36.635445,47.485727"
       gridpoint8x9="33.052425,38.770063"
       gridpoint10x11="33.312148,47.333604"
       gridpoint12="26.699538,41.338491"
       gridpoint13="39.9982,40.647045"
       gridpoint14="26.593568,45.322466"
       gridpoint15="39.900466,45.362156"
       gridpoint16="29.728432,40.696717"
       gridpoint17="36.560179,40.761664"
       gridpoint18="29.958812,45.341102"
       gridpoint19="36.712296,45.547921"
       gridpoint20x21="33.335441,40.806866"
       gridpoint22x23="33.18272,45.441623"
       gridpoint24x26="26.57348,43.105988"
       gridpoint25x27="39.852913,43.167484"
       gridpoint28x30="29.961232,43.019271"
       gridpoint29x31="36.602676,43.080893"
       gridpoint32x33x34x35="33.29771,43.080893"
       id="path-effect3788"
       is_visible="true"
       lpeversion="1"
       horizontal_mirror="false"
       vertical_mirror="false"
       perimetral="false"
       live_update="true" /></defs><g
     inkscape:label="hintergrund"
     inkscape:groupmode="layer"
     id="layer1"
     style="display:inline"
     sodipodi:insensitive="true"><path
       id="path7506"
       style="display:inline;vector-effect:none;fill:#00387a;fill-opacity:1;fill-rule:evenodd;stroke-width:0;stroke-miterlimit:10;paint-order:markers fill stroke;stop-color:#000000"
       inkscape:label="outer_circle"
       d="M 80,40 A 40,40 0 0 1 40,80 40,40 0 0 1 1.5000003e-8,40 40,40 0 0 1 40,1.4999999e-8 40,40 0 0 1 80,40 Z" /><path
       id="circle7608"
       style="display:inline;fill:#ffffff;fill-rule:evenodd;stroke-width:0;stroke-miterlimit:10;paint-order:markers fill stroke;stop-color:#000000"
       inkscape:label="white_circle"
       d="M 40.000142,1.2479858 A 38.751999,38.752121 0 0 0 1.2479858,40.000142 38.751999,38.752121 0 0 0 40.000142,78.752299 38.751999,38.752121 0 0 0 78.751782,40.000142 38.751999,38.752121 0 0 0 40.000142,1.2479858 Z m 0,6.3810059 A 32.371021,32.371021 0 0 1 72.370776,40.000142 32.371021,32.371021 0 0 1 40.000142,72.370776 32.371021,32.371021 0 0 1 7.6289917,40.000142 32.371021,32.371021 0 0 1 40.000142,7.6289917 Z" /><path
       id="circle166287"
       style="display:inline;fill:#00387a;fill-opacity:1;fill-rule:evenodd;stroke-width:0;stroke-miterlimit:10;paint-order:markers fill stroke;stop-color:#000000"
       d="M 72.371021,40 A 32.371021,32.371021 0 0 1 40,72.371021 32.371021,32.371021 0 0 1 7.6289789,40 32.371021,32.371021 0 0 1 40,7.6289789 32.371021,32.371021 0 0 1 72.371021,40 Z"
       inkscape:label="inner_circle" /></g><g
     inkscape:groupmode="layer"
     id="layer2"
     inkscape:label="Texte"
     sodipodi:insensitive="true"><g
       inkscape:groupmode="layer"
       id="layer3"
       inkscape:label="TECHNISCHES_HILFSWERK"><g
         aria-label="TECHNISCHES HILFSWERK"
         id="text1314"
         style="font-size:6.35px;font-family:Inter;-inkscape-font-specification:Inter;text-align:end;text-anchor:end;display:inline;paint-order:markers fill stroke;stop-color:#000000"
         inkscape:label="text_technisches_hilfswerk"><path
           id="path476"
           style="font-family:'LubalGraph Bk BT';-inkscape-font-specification:'LubalGraph Bk BT'"
           d="m 71.122878,27.073357 0.215321,0.457232 -0.373079,0.175691 -0.619543,-1.315595 0.373079,-0.175691 0.170408,0.361859 0.969388,-2.351743 -1.699895,0.800519 0.216642,0.460037 -0.373079,0.175691 -0.622185,-1.321205 0.373079,-0.175691 0.219284,0.465647 3.349298,-1.577259 -0.219284,-0.465648 0.361859,-0.170407 0.622185,1.321205 -0.361859,0.170408 -0.216642,-0.460038 -1.584885,0.746358 2.335206,0.846943 -0.178333,-0.378689 0.361858,-0.170408 0.619544,1.315595 -0.361859,0.170408 -0.216642,-0.460038 -2.365247,-0.867068 z m 0.08448,-7.562234 -3.100146,1.942966 0.270039,0.430868 -0.349423,0.218995 -0.77554,-1.237431 0.349423,-0.218996 0.270039,0.430868 3.136928,-1.966018 -0.270039,-0.430868 0.338914,-0.212409 0.917146,1.463374 q 0.214055,0.341542 0.289944,0.579398 0.08016,0.238838 0.06732,0.481077 -0.01701,0.329012 -0.202659,0.628325 -0.184003,0.301941 -0.483508,0.489651 -0.444004,0.278272 -0.930832,0.213804 -0.486829,-0.06447 -0.762716,-0.440443 l -0.697607,1.43252 0.270039,0.430868 -0.349423,0.218995 -0.418232,-0.66732 1.133001,-2.290869 0.225582,0.359933 q 0.227228,0.362559 0.581641,0.455129 0.356059,0.0952 0.689719,-0.113919 0.40985,-0.256867 0.473132,-0.640494 0.06328,-0.383627 -0.229809,-0.851276 z m -3.680233,-0.147118 0.258493,0.321305 -0.881776,0.709398 -1.947446,-2.420657 0.321305,-0.258493 0.318743,0.396195 2.884496,-2.320609 -0.318744,-0.396195 0.311642,-0.250719 1.947445,2.420657 -0.884192,0.711342 -0.258493,-0.321304 0.538729,-0.433414 -1.096167,-1.362525 -1.232071,0.991215 1.107829,1.37702 -0.347879,0.279872 -1.107829,-1.37702 -1.251397,1.006763 1.096167,1.362526 z m -5.558407,-4.328043 -0.341468,-0.315763 1.880593,-3.864994 -0.339192,-0.313658 0.271556,-0.293663 0.992534,0.917818 -0.271556,0.293663 -0.28911,-0.267346 -1.571489,3.128844 3.195602,-2.163322 0.368785,0.341024 -1.904853,3.356907 2.998826,-1.808955 -0.284556,-0.263136 0.271556,-0.293663 0.992534,0.917818 -0.271557,0.293663 -0.341468,-0.315763 -3.710861,2.172504 -0.336915,-0.311553 1.901719,-3.38092 z m 0.502468,-5.3894815 -0.658129,0.9510005 -0.293204,-0.202908 q 0.149155,-0.4171286 0.094,-0.7079323 -0.05339,-0.2933533 -0.310901,-0.4715597 -0.280456,-0.1940862 -0.598123,-0.1273549 -0.315903,0.064182 -0.524105,0.3650343 -0.08822,0.12748 -0.125847,0.263579 -0.03508,0.1378635 -0.01328,0.2698337 0.03868,0.2492339 0.41173,0.6582269 0.11729,0.130188 0.171229,0.19391 0.34462,0.41194 0.389014,0.827268 0.04616,0.412778 -0.211447,0.78502 -0.337005,0.486973 -0.854881,0.592372 -0.517876,0.105399 -0.971705,-0.208668 -0.262609,-0.181735 -0.412665,-0.40624 -0.148291,-0.227055 -0.159708,-0.461194 l -0.165855,0.239662 -0.313601,-0.217023 0.711061,-1.027489 0.313601,0.217024 q -0.241522,0.387142 -0.183807,0.728735 0.05772,0.341592 0.40446,0.581553 0.336547,0.232904 0.686962,0.162441 0.352964,-0.0687 0.59469,-0.417994 0.169384,-0.244762 0.138153,-0.526549 -0.02868,-0.280023 -0.255031,-0.568639 -0.06394,-0.08196 -0.206535,-0.240967 -0.378744,-0.428013 -0.469983,-0.721164 -0.07907,-0.2507949 -0.04244,-0.4780795 0.03839,-0.2298342 0.191898,-0.4516493 0.31936,-0.4614774 0.800959,-0.5580454 0.485914,-0.097353 0.929544,0.2096558 0.198869,0.1376248 0.310875,0.3244861 0.114556,0.1886256 0.164022,0.4604088 l 0.165856,-0.2396623 z m -6.728621,0.6245885 0.445958,0.244314 -0.198133,0.361661 -1.28077,-0.701659 0.198133,-0.3616613 0.445958,0.2443143 L 57.13244,6.8112452 56.686482,6.5669307 56.878656,6.2161465 59.603351,7.7088486 59.058113,8.7040967 58.696452,8.5059636 59.02866,7.8995692 57.494999,7.0593657 56.73524,8.4461868 58.285217,9.2953287 58.070697,9.6869017 56.526159,8.8407393 Z M 51.31135,8.7331494 51.468861,8.3520381 51.938803,8.5462623 53.352849,5.1248571 52.882908,4.9306329 53.035682,4.5609836 54.385331,5.1187859 54.232557,5.4884352 53.762616,5.2942111 52.348569,8.7156163 53.96471,9.3835579 54.239466,8.7187622 54.620578,8.8762733 54.188311,9.9221802 Z M 49.952191,7.8814025 51.06679,4.3510753 50.581888,4.1979813 50.702309,3.816564 52.094926,4.2562425 51.974504,4.6376598 51.489602,4.4845658 50.375003,8.014893 50.859905,8.167987 50.73575,8.5612311 49.343133,8.1215526 49.467289,7.7283085 Z M 45.389795,6.7807035 46.143496,3.156138 45.64565,3.0526145 l 0.08143,-0.3915987 1.429791,0.2973144 -0.08143,0.3915988 -0.497847,-0.1035235 -0.324458,1.5603238 2.115848,0.4399748 0.324458,-1.5603238 -0.503918,-0.104786 0.08143,-0.3915988 1.429791,0.2973144 -0.08143,0.3915988 -0.497847,-0.1035235 -0.753701,3.6245656 0.497846,0.1035234 -0.08396,0.4037414 -1.429791,-0.2973144 0.08396,-0.4037414 0.503918,0.104786 0.346551,-1.6665716 -2.115847,-0.4399748 -0.346551,1.6665716 0.497846,0.1035235 -0.08396,0.4037413 -1.429791,-0.2973144 0.08395,-0.4037413 z M 42.313903,2.3364575 42.278793,3.4924431 41.92239,3.4816201 Q 41.820714,3.0504542 41.616277,2.836411 41.411934,2.6192686 41.098919,2.6097632 40.758012,2.5994107 40.52772,2.8281705 q -0.230198,0.2256606 -0.241303,0.5913612 -0.0047,0.1549579 0.03773,0.2896333 0.04554,0.1347696 0.135597,0.2336669 0.168,0.1881206 0.703488,0.3284626 0.169231,0.045465 0.24915,0.069606 0.51323,0.1582781 0.776356,0.4826741 0.263221,0.3212969 0.24948,0.7737738 -0.01797,0.5919391 -0.395252,0.96203 Q 41.66569,6.9294694 41.11404,6.9127173 40.794826,6.9030273 40.546806,6.7962274 40.29888,6.686332 40.161966,6.4960534 l -0.0088,0.2913208 -0.381196,-0.011576 0.03793,-1.2489603 0.381197,0.011576 q 0.0079,0.4562349 0.242064,0.7115083 0.234206,0.2552734 0.655691,0.2680728 0.409089,0.012423 0.664833,-0.237278 0.258843,-0.2496069 0.271736,-0.6741914 0.009,-0.2975191 -0.17042,-0.5170078 Q 41.678599,4.8701235 41.331688,4.7510182 41.233457,4.717015 41.027319,4.6611229 40.476711,4.5079137 40.240717,4.3115243 40.037968,4.1440625 39.9451,3.9334074 39.85233,3.7196531 39.86052,3.4500264 q 0.01703,-0.5609475 0.36867,-0.9038989 0.35483,-0.3459566 0.894083,-0.3295809 0.241734,0.00734 0.437351,0.1032397 0.198716,0.095993 0.388034,0.2971689 l 0.0088,-0.2913207 z m -3.708652,3.3429281 0.411181,-0.031386 0.08614,1.1284311 -3.097775,0.2364602 -0.03139,-0.4111818 0.507021,-0.038702 -0.281769,-3.6913611 -0.507022,0.038702 -0.03044,-0.3988154 3.097775,-0.2364601 0.08637,1.1315227 -0.411182,0.031386 -0.05262,-0.6894251 -1.743658,0.1330973 0.120354,1.576712 1.762207,-0.1345132 0.03398,0.4451893 -1.762208,0.1345132 0.122242,1.6014448 1.743658,-0.1330973 z m -6.759049,1.697629 -0.745184,-3.6263261 -0.498089,0.1023537 -0.08051,-0.391789 1.430486,-0.2939548 0.08051,0.391789 -0.498089,0.1023537 0.320792,1.5610817 2.116875,-0.4350032 -0.320791,-1.5610817 -0.504163,0.1036019 -0.08051,-0.391789 1.430486,-0.2939548 0.08051,0.3917889 -0.498089,0.1023537 0.745185,3.6263261 0.498088,-0.1023537 0.08301,0.4039375 -1.430486,0.2939548 -0.08301,-0.4039375 0.504163,-0.1036019 -0.342636,-1.6673811 -2.116875,0.4350033 0.342635,1.667381 0.498089,-0.1023537 0.08301,0.4039375 -1.430486,0.2939549 -0.08301,-0.4039375 z M 29.024459,4.3151759 28.893998,3.9502196 29.270633,3.8155846 29.652621,4.8841767 29.366495,4.9864576 Q 28.913407,4.7137814 28.503348,4.6628005 28.092244,4.6089 27.654297,4.7654523 26.941902,5.0201108 26.624665,5.7262049 26.307429,6.432299 26.566262,7.1563724 26.84075,7.9242406 27.5358,8.27506 q 0.694006,0.3478998 1.406401,0.093241 0.440867,-0.157596 0.728393,-0.4678195 0.287525,-0.3102236 0.419834,-0.7691113 l 0.513858,-0.1836881 q -0.157052,0.7212734 -0.52317,1.1616661 -0.364243,0.4364293 -0.994887,0.6618646 -0.913851,0.3266725 -1.765347,-0.093346 -0.852539,-0.4229385 -1.191736,-1.371825 -0.159683,-0.4467066 -0.133328,-0.9072323 0.02636,-0.4605257 0.235632,-0.897536 0.19802,-0.4132303 0.51934,-0.7026068 0.323196,-0.2933398 0.761143,-0.4498922 0.376635,-0.134635 0.739333,-0.1424566 0.362697,-0.00782 0.773193,0.108858 z M 24.195013,5.7774245 24.71158,6.8121679 24.392557,6.9714312 Q 24.0988,6.6398451 23.817372,6.5481526 q -0.282813,-0.094467 -0.562998,0.045408 -0.305152,0.1523387 -0.399636,0.4628838 -0.09587,0.3077709 0.06755,0.635116 0.06924,0.1387055 0.170407,0.2372189 0.103937,0.097128 0.230092,0.1415789 0.237059,0.086118 0.77515,-0.04389 0.17058,-0.040106 0.252401,-0.056694 0.526982,-0.1036688 0.912363,0.057419 0.383997,0.1583143 0.586192,0.5633345 0.264515,0.5298552 0.107513,1.0344887 -0.157003,0.5046336 -0.650795,0.7511456 -0.285733,0.142644 -0.554753,0.166049 -0.270405,0.02063 -0.481108,-0.08211 l 0.13018,0.260767 -0.341216,0.170343 L 23.5006,9.7732439 23.841816,9.6029015 q 0.222999,0.3981005 0.550171,0.5120065 0.327173,0.113907 0.704452,-0.07444 Q 25.462621,9.8576627 25.569604,9.5166197 25.67936,9.1741918 25.489629,8.7941386 25.356679,8.527824 25.094675,8.4195041 24.835444,8.3097994 24.473498,8.369199 24.370878,8.385775 24.162854,8.434177 23.605353,8.5600128 23.304493,8.498814 23.046613,8.447348 22.865053,8.3057997 22.682109,8.1614768 22.561623,7.9201291 22.310956,7.418015 22.45823,6.9494276 q 0.148663,-0.4727463 0.631359,-0.7137185 0.21638,-0.108022 0.434085,-0.1162062 0.22048,-0.00957 0.482497,0.077951 l -0.13018,-0.2607664 z m -1.751663,5.6027675 -1.916325,-3.1675287 -0.435071,0.2632138 -0.20704,-0.3422204 1.249503,-0.7559373 0.20704,0.3422204 -0.435071,0.2632139 1.916325,3.1675293 0.435071,-0.263214 0.21346,0.352832 -1.249503,0.755937 -0.21346,-0.352832 z m -1.899005,0.901555 -2.081332,-2.7331972 -0.404552,0.3080672 -0.242322,-0.3182152 1.156922,-0.8809971 0.242322,0.3182152 -0.404553,0.3080672 2.492715,3.2734229 -0.424287,0.323095 -4.255146,-1.580579 2.073818,2.72333 0.404553,-0.308067 0.249835,0.328082 -1.161856,0.884754 -0.249835,-0.328082 0.404553,-0.308068 -2.24288,-2.94534 -0.404552,0.308067 -0.242321,-0.318215 0.833773,-0.634919 z m -5.573008,5.30552 -2.648134,-2.587069 -0.355343,0.36373 -0.286104,-0.279508 1.020527,-1.044615 0.286105,0.279507 -0.355343,0.363731 1.139984,1.113696 1.510207,-1.545853 -1.139983,-1.113697 -0.359677,0.368166 -0.286105,-0.279507 1.020528,-1.044616 0.286105,0.279508 -0.355343,0.36373 2.648133,2.58707 0.355343,-0.36373 0.294976,0.288174 -1.020527,1.044616 -0.294976,-0.288175 0.359676,-0.368166 -1.217609,-1.189532 -1.510208,1.545853 1.217609,1.189533 0.355343,-0.363731 0.294977,0.288175 -1.020528,1.044615 -0.294976,-0.288174 z m -4.05491,-0.953509 -0.312677,-0.229011 0.236339,-0.322683 0.915519,0.670544 -0.179544,0.245139 q -0.528053,0.02832 -0.896156,0.216061 -0.370605,0.185912 -0.645418,0.561124 -0.4470288,0.610347 -0.3137244,1.372867 0.1333044,0.762521 0.7536564,1.216879 0.657873,0.481838 1.430082,0.382533 0.769707,-0.101138 1.216736,-0.711484 0.276645,-0.377714 0.340738,-0.795807 0.06409,-0.418094 -0.0837,-0.872232 l 0.322447,-0.44025 q 0.274444,0.685261 0.218275,1.255202 -0.05684,0.565608 -0.452568,1.105915 -0.573443,0.782944 -1.513989,0.912687 -0.943048,0.127911 -1.756009,-0.467517 Q 9.813721,20.453416 9.5772877,20.057338 9.3408544,19.661259 9.2690599,19.182073 9.2012815,18.728887 9.3050454,18.309103 9.40814,17.884986 9.6829529,17.509773 9.919292,17.18709 10.215206,16.97722 10.51112,16.76735 10.916427,16.633758 Z m -0.31177,5.714653 0.199807,-0.360739 0.989998,0.548345 -1.50532,2.717745 -0.3607384,-0.199808 0.2463794,-0.44482 -3.2385107,-1.793764 -0.2463796,0.444821 -0.3498894,-0.193799 1.5053193,-2.717745 0.9927094,0.549847 -0.1998079,0.360738 -0.6048475,-0.335016 -0.8473054,1.529749 1.3832835,0.766181 0.8563194,-1.546023 0.3905741,0.216333 -0.8563193,1.546023 1.4049821,0.778199 0.847305,-1.529749 z m -1.470546,5.590363 -0.3807759,-0.15832 0.1952216,-0.469528 -3.3783132,-1.404644 -0.3642549,0.876071 0.6384439,0.265454 -0.15832,0.380776 -1.0478497,-0.435677 1.2165639,-2.925963 1.0478497,0.435677 -0.15832,0.380776 -0.6384439,-0.265453 -0.3678261,0.88466 3.3783132,1.404643 0.1952216,-0.469528 0.380776,0.15832 z" /></g><path
         id="path1472"
         style="display:none;fill:none;fill-opacity:1;fill-rule:evenodd;stroke:#800000;stroke-width:0.100198;stroke-miterlimit:10;stroke-dasharray:none;paint-order:markers fill stroke;stop-color:#000000"
         d="M 70.862002,27.620141 A 33.191595,33.191595 0 0 1 52.445415,70.796446 33.191595,33.191595 0 0 1 9.2691097,52.379859 33.191595,33.191595 0 0 1 27.685698,9.203553 33.191595,33.191595 0 0 1 70.862002,27.620141 Z"
         inkscape:label="text-allign_technisches_hilfswerk"
         sodipodi:insensitive="true" /></g><g
       inkscape:groupmode="layer"
       id="layer4"
       inkscape:label="ZUGTRUPP"><g
         aria-label="ZUGTRUPP"
         id="text1619"
         style="font-size:6.35px;line-height:0;font-family:'LubalGraph Bk BT';-inkscape-font-specification:'LubalGraph Bk BT';text-align:end;letter-spacing:0.486833px;text-anchor:end;stroke:#800000;stroke-width:0.1;paint-order:markers fill stroke;stop-color:#000000"
         inkscape:label="text_zugtrupp"><path
           id="path435"
           style="stroke:none"
           d="m 54.50745,72.326763 0.59764,-0.281046 q 0.479796,-0.225628 0.625929,-0.53419 0.147619,-0.312688 -0.03579,-0.702697 -0.187364,-0.398427 -0.512943,-0.471457 -0.324094,-0.07716 -0.843171,0.166945 l -0.563971,0.265212 z m 0.192641,0.40965 0.632023,1.34399 0.460155,-0.216392 0.175489,0.373174 -1.321543,0.621468 -0.175489,-0.373175 0.460155,-0.216392 -1.575439,-3.350154 -0.460155,0.216392 -0.170211,-0.361951 1.402912,-0.659732 q 0.350728,-0.164933 0.561483,-0.2195 0.212241,-0.05869 0.386672,-0.04478 0.337637,0.0331 0.619945,0.232691 0.285114,0.198275 0.431575,0.509721 0.259934,0.552747 0.0243,1.064434 -0.234146,0.507562 -0.91035,0.825552 z m -3.846622,0.998601 0.624939,-0.213568 q 0.501712,-0.171457 0.680915,-0.462063 0.181133,-0.294542 0.04176,-0.702367 -0.142378,-0.416626 -0.457943,-0.525043 -0.313634,-0.112353 -0.856422,0.07314 l -0.589732,0.201536 z m 0.146389,0.428362 0.480278,1.405381 0.481174,-0.164438 0.133355,0.390221 -1.381909,0.472256 -0.133355,-0.39022 0.481174,-0.164438 -1.197185,-3.503182 -0.481174,0.164437 -0.129344,-0.378484 1.466994,-0.501334 q 0.366749,-0.125334 0.582229,-0.156376 0.217411,-0.03498 0.389251,-0.002 0.331945,0.07005 0.590573,0.299503 0.261562,0.228448 0.372858,0.55412 0.197526,0.577996 -0.09299,1.060644 -0.288581,0.47871 -0.995672,0.720353 z m -5.482856,-0.91476 -0.503641,0.106108 -0.08246,-0.391383 1.429005,-0.301068 0.08246,0.391384 -0.497573,0.10483 0.488356,2.317962 q 0.0767,0.364078 0.141724,0.53733 0.06438,0.170218 0.156858,0.293324 0.17138,0.226891 0.432645,0.323942 0.261264,0.09705 0.546459,0.03697 0.22148,-0.04666 0.396479,-0.178591 0.174359,-0.134963 0.275093,-0.33363 0.09115,-0.183975 0.104856,-0.389656 0.01306,-0.208714 -0.06875,-0.597064 l -0.02237,-0.106189 -0.488356,-2.317962 -0.494539,0.104191 -0.08246,-0.391384 1.422938,-0.299789 0.08246,0.391384 -0.497573,0.10483 0.508171,2.412016 q 0.180896,0.858616 -0.07309,1.35257 -0.250956,0.493315 -0.948772,0.640333 -0.740292,0.155967 -1.179166,-0.182506 -0.43584,-0.339112 -0.620572,-1.215933 z m -3.558406,0.41776 0.295346,3.646751 0.506837,-0.04105 0.03329,0.411032 -1.45561,0.117888 -0.03329,-0.411032 0.506836,-0.04105 -0.29885,-3.690017 -0.506836,0.04105 -0.03229,-0.398671 1.72139,-0.139413 q 0.401761,-0.03254 0.647823,0.0097 0.248903,0.03894 0.457956,0.161998 0.284138,0.166743 0.464191,0.469456 0.183144,0.302462 0.211677,0.654776 0.0423,0.522288 -0.239301,0.924605 -0.281602,0.402317 -0.742419,0.473856 l 0.949735,1.279364 0.506837,-0.04105 0.03329,0.411032 -0.784979,0.06357 -1.510787,-2.061381 0.423394,-0.03429 q 0.426484,-0.03454 0.67199,-0.306394 0.248597,-0.272103 0.21681,-0.664592 -0.03905,-0.482113 -0.350324,-0.715094 -0.311278,-0.232982 -0.861381,-0.18843 z m -4.029301,4.065477 0.01495,-0.412107 0.508161,0.01844 0.132649,-3.656286 -0.948156,-0.0344 -0.02507,0.690976 -0.412107,-0.01495 0.04114,-1.134068 3.166715,0.114887 -0.04114,1.134068 -0.412107,-0.01495 0.02507,-0.690976 -0.957451,-0.03474 -0.132648,3.656286 0.508161,0.01844 -0.01495,0.412107 z m -2.228622,-0.896812 q -0.436471,0.354604 -0.904457,0.483893 -0.467474,0.12623 -0.993485,0.03835 -0.969449,-0.161965 -1.50844,-0.943597 -0.538992,-0.781633 -0.372428,-1.778606 0.07817,-0.467904 0.325546,-0.857243 0.247373,-0.389339 0.643035,-0.669028 0.384955,-0.272047 0.812148,-0.364141 0.427193,-0.09209 0.931795,-0.0078 0.382275,0.06387 0.681934,0.227099 0.302718,0.163743 0.592129,0.463579 l 0.06284,-0.376158 0.388392,0.06489 -0.187001,1.119301 -0.299704,-0.05007 q -0.25112,-0.453761 -0.58031,-0.70366 -0.325621,-0.252445 -0.76906,-0.32653 -0.767608,-0.128244 -1.39476,0.332819 -0.624094,0.461574 -0.752338,1.229182 -0.13693,0.819597 0.300682,1.455406 0.437611,0.635809 1.214394,0.765585 0.61164,0.102187 1.163293,-0.208025 0.551653,-0.310211 0.802676,-0.909559 l -2.250834,-0.376046 0.06591,-0.394507 2.657575,0.443999 -0.35663,2.134623 -0.394508,-0.06591 z m -7.142928,-5.144576 -0.491163,-0.153855 0.119562,-0.381687 1.393603,0.43654 -0.119562,0.381688 -0.485246,-0.152002 -0.708104,2.260538 q -0.11122,0.355058 -0.139274,0.53797 -0.02713,0.179953 -0.0067,0.332563 0.03847,0.281729 0.218849,0.494192 0.180382,0.212462 0.458511,0.299585 0.215993,0.06766 0.433163,0.03821 0.218096,-0.03241 0.403146,-0.156392 0.169507,-0.115858 0.282083,-0.288539 0.113503,-0.17564 0.232139,-0.554369 l 0.03244,-0.103559 0.708103,-2.260537 -0.482287,-0.151075 0.119562,-0.381687 1.387686,0.434686 -0.119562,0.381688 -0.485247,-0.152001 -0.736835,2.35226 q -0.262295,0.837346 -0.725472,1.143889 -0.460217,0.30747 -1.140746,0.0943 -0.721951,-0.226149 -0.939125,-0.736061 -0.214214,-0.508985 0.05364,-1.364084 z m -1.503281,-0.55837 -1.578718,-0.700193 -0.277814,0.626385 -0.371297,-0.164677 0.457577,-1.031693 2.409174,1.068517 -0.172219,0.388302 -3.447859,2.466419 1.635404,0.725335 0.281586,-0.634888 0.371296,0.164677 -0.458834,1.034528 -2.494204,-1.10623 0.17222,-0.388302 z" /></g><path
         id="path1628"
         style="display:none;fill:none;fill-opacity:1;fill-rule:evenodd;stroke:#ff00ff;stroke-width:0.0999126;stroke-miterlimit:10;stroke-dasharray:none;paint-order:markers fill stroke;stop-color:#000000"
         d="M 58.124863,73.144181 A 37.776282,37.776282 0 0 0 73.144182,21.875136 37.776282,37.776282 0 0 0 21.875137,6.8558172 37.776282,37.776282 0 0 0 6.8558177,58.124863 37.776282,37.776282 0 0 0 58.124863,73.144181 Z"
         inkscape:label="text-allign_zugtrupp" /></g></g><metadata
     id="metadata459"><rdf:RDF><cc:Work
         rdf:about=""><dc:creator><cc:Agent><dc:title>L3D &lt;l3d@c3woc.de&gt;</dc:title></cc:Agent></dc:creator><dc:rights><cc:Agent><dc:title>CC-BY-SA 4.0</dc:title></cc:Agent></dc:rights><cc:license
           rdf:resource="http://creativecommons.org/licenses/by-nc-sa/4.0/" /><dc:title>THW Zugtrupp Patch</dc:title></cc:Work><cc:License
         rdf:about="http://creativecommons.org/licenses/by-nc-sa/4.0/"><cc:permits
           rdf:resource="http://creativecommons.org/ns#Reproduction" /><cc:permits
           rdf:resource="http://creativecommons.org/ns#Distribution" /><cc:requires
           rdf:resource="http://creativecommons.org/ns#Notice" /><cc:requires
           rdf:resource="http://creativecommons.org/ns#Attribution" /><cc:prohibits
           rdf:resource="http://creativecommons.org/ns#CommercialUse" /><cc:permits
           rdf:resource="http://creativecommons.org/ns#DerivativeWorks" /><cc:requires
           rdf:resource="http://creativecommons.org/ns#ShareAlike" /></cc:License></rdf:RDF></metadata><g
     inkscape:groupmode="layer"
     id="layer5"
     inkscape:label="kats_thw_logo"
     style="display:inline"
     sodipodi:insensitive="true"><path
       id="circle832"
       style="display:inline;vector-effect:none;fill:#ff5208;fill-rule:evenodd;stroke-width:0.411395;stroke-linecap:square;stroke-linejoin:round;paint-order:markers fill stroke;stop-color:#000000"
       transform="rotate(-90)"
       d="M -7.6244698,40 A 32.371021,32.371021 0 0 1 -23.809981,68.034127 32.371021,32.371021 0 0 1 -56.181003,68.034126 32.371021,32.371021 0 0 1 -72.366512,40"
       inkscape:label="orange" /><path
       id="path1460"
       style="display:inline;vector-effect:none;fill:#ff5208;fill-rule:evenodd;stroke-width:0.261892;stroke-linecap:square;stroke-linejoin:round;paint-order:markers fill stroke;stop-color:#000000"
       d="m 40,19.096952 c -7.362248,-1e-6 -14.298397,3.940196 -17.979521,10.31609 -3.681124,6.375894 -3.681124,14.231319 10e-7,20.607213 C 25.701604,56.396149 32.637752,60.32864 40,60.32864"
       inkscape:label="orange"
       sodipodi:nodetypes="cssc" /><path
       id="path804-3"
       style="display:inline;fill:#ffffff;fill-opacity:1;fill-rule:nonzero;stroke:none;stroke-width:0;stroke-linecap:butt;stroke-linejoin:miter;stroke-miterlimit:10"
       inkscape:label="zahnenkranz_left"
       d="m 40,10.392646 c -0.930613,9.51e-4 -1.860955,0.04293 -2.78846,0.127124 -0.342943,2.036168 -0.685936,4.072503 -1.028878,6.108671 -1.53988,0.256978 -3.053713,0.662145 -4.51652,1.208712 -1.316032,-1.589327 -2.632049,-3.178338 -3.948079,-4.767668 -1.719459,0.761925 -3.342783,1.728863 -4.88394,2.805514 0.722341,1.931915 1.444967,3.864111 2.16731,5.796029 -1.202006,0.998032 -2.335456,2.091239 -3.305742,3.319694 -1.940337,-0.721581 -3.880495,-1.443146 -5.820833,-2.164726 -1.07663,1.539112 -2.047938,3.158606 -2.810164,4.878772 1.591379,1.313873 3.183006,2.627488 4.774385,3.941361 -0.547547,1.460563 -0.952932,2.973631 -1.211812,4.512386 l -6.114872,1.026294 c -0.160335,1.872153 -0.160494,3.757491 0,5.629631 2.038372,0.342764 4.076499,0.685598 6.114872,1.028361 0.258196,1.53803 0.661728,3.050918 1.211812,4.509802 -1.591379,1.314583 -3.183006,2.629363 -4.774385,3.943945 0.768293,1.715425 1.725386,3.34412 2.810164,4.876189 1.940338,-0.720696 3.880496,-1.441445 5.820833,-2.162142 0.973932,1.224988 2.102361,2.322759 3.305742,3.319177 -0.722343,1.931383 -1.444969,3.862578 -2.16731,5.793962 1.541397,1.076289 3.163743,2.045444 4.88394,2.80603 1.31603,-1.589503 2.632047,-3.179198 3.948079,-4.768701 1.46078,0.551618 2.975891,0.961471 4.51652,1.211812 0.342942,2.035454 0.685935,4.070633 1.028878,6.106087 0.92757,0.08496 1.85788,0.127255 2.78846,0.128158 V 58.90028 C 38.632571,58.89818 37.265611,58.750953 35.927898,58.456379 32.368013,57.715656 31.892103,57.03048 30.258476,56.1852 24.408607,52.784831 20.78114,46.01931 21.141203,39.250833 21.296096,32.638726 25.284448,26.36062 31.132841,23.338109 33.399395,22.21062 35.011582,21.368259 40,21.292756 Z m 0,1e-6 c 0.930613,9.51e-4 1.860955,0.04293 2.78846,0.127124 0.342943,2.036168 0.685936,4.072503 1.028878,6.108671 1.53988,0.256978 3.053713,0.662145 4.51652,1.208712 1.316032,-1.589327 2.632049,-3.178338 3.948079,-4.767668 1.719459,0.761925 3.342783,1.728863 4.88394,2.805514 -0.722341,1.931915 -1.444967,3.864111 -2.16731,5.796029 1.202006,0.998032 2.335456,2.091239 3.305742,3.319694 1.940337,-0.721581 3.880495,-1.443146 5.820833,-2.164726 1.07663,1.539112 2.047938,3.158606 2.810164,4.878772 -1.591379,1.313873 -3.183006,2.627488 -4.774385,3.941361 0.547547,1.460563 0.952932,2.973631 1.211812,4.512386 l 6.114872,1.026294 c 0.160335,1.872153 0.160494,3.757491 0,5.629631 -2.038372,0.342764 -4.076499,0.685598 -6.114872,1.028361 -0.258196,1.53803 -0.661728,3.050918 -1.211812,4.509802 1.591379,1.314583 3.183006,2.629363 4.774385,3.943945 -0.768293,1.715425 -1.725386,3.34412 -2.810164,4.876189 -1.940338,-0.720696 -3.880496,-1.441445 -5.820833,-2.162142 -0.973932,1.224988 -2.102361,2.322759 -3.305742,3.319177 0.722343,1.931383 1.444969,3.862578 2.16731,5.793962 -1.541397,1.076289 -3.163743,2.045444 -4.88394,2.80603 -1.31603,-1.589503 -2.632047,-3.179198 -3.948079,-4.768701 -1.46078,0.551618 -2.975891,0.961471 -4.51652,1.211812 -0.342942,2.035454 -0.685935,4.070633 -1.028878,6.106087 -0.92757,0.08496 -1.85788,0.127255 -2.78846,0.128158 v -3.023695 -7.683145 c 1.367429,-0.0021 2.734389,-0.149327 4.072102,-0.443901 3.559885,-0.740723 4.035795,-1.425899 5.669422,-2.271179 5.849869,-3.400369 9.477336,-10.16589 9.117273,-16.934367 C 58.703904,32.638727 54.715552,26.360621 48.867159,23.33811 46.600605,22.210621 44.988418,21.36826 40,21.292757 Z" /><path
       id="path1409"
       style="font-variation-settings:normal;display:inline;opacity:1;vector-effect:none;fill:#00387a;fill-opacity:1;fill-rule:evenodd;stroke:none;stroke-width:0;stroke-linecap:butt;stroke-linejoin:miter;stroke-miterlimit:10;stroke-dasharray:none;stroke-dashoffset:0;stroke-opacity:1;-inkscape-stroke:none;paint-order:markers fill stroke;stop-color:#000000;stop-opacity:1"
       inkscape:label="dreieck"
       d="m 26.099243,58.89705 -1.625034,-3.634527 -2.708094,-3.197905 18.234027,-30.771861 -10e-4,37.604293 m 22.283477,0 L 40,21.292757 40.001,58.89705"
       sodipodi:nodetypes="cccccccc" /></g><g
     id="g9177"
     transform="matrix(1.150957,0,0,1.150957,-79.363223,-13.952981)"
     style="display:inline"
     inkscape:label="Auto"><path
       id="path523"
       style="font-weight:bold;font-size:1.3068px;font-family:'LubalGraph Bd BT';-inkscape-font-specification:'LubalGraph Bd BT Bold';display:inline;fill:#000000;stroke:#000000;stroke-width:1.21638;stroke-linecap:square;stroke-linejoin:round;stroke-dasharray:none;paint-order:markers fill stroke"
       inkscape:label="elw_schatten"
       d="m 177.878,104.112 0.029,-0.633 -0.116,-0.003 0.016,-0.35 0.363,0.009 -0.009,0.2 c 0.037,-0.076 0.08,-0.132 0.128,-0.168 0.048,-0.037 0.102,-0.055 0.162,-0.053 0.06,10e-4 0.11,0.023 0.151,0.066 0.042,0.044 0.074,0.107 0.095,0.189 0.044,-0.083 0.089,-0.144 0.138,-0.182 0.048,-0.039 0.102,-0.058 0.162,-0.057 0.1,0.003 0.175,0.049 0.225,0.141 0.05,0.09 0.072,0.219 0.065,0.386 l -0.021,0.503 0.127,0.005 -0.015,0.36 -0.406,-0.016 0.032,-0.746 c 0.004,-0.102 -0.004,-0.174 -0.023,-0.216 -0.02,-0.044 -0.054,-0.066 -0.103,-0.067 -0.046,-0.001 -0.084,0.023 -0.114,0.073 -0.029,0.049 -0.046,0.116 -0.05,0.201 l -0.016,0.386 0.125,0.005 -0.015,0.358 -0.392,-0.015 0.033,-0.742 c 0.004,-0.099 -0.004,-0.171 -0.024,-0.214 -0.019,-0.043 -0.053,-0.066 -0.102,-0.067 -0.045,-0.001 -0.082,0.023 -0.111,0.071 -0.029,0.049 -0.045,0.116 -0.049,0.202 l -0.017,0.383 0.111,0.004 -0.016,0.356 -0.5,-0.02 0.016,-0.354 z m -0.299,-0.991 -0.045,0.981 0.116,0.004 -0.017,0.351 -0.369,-0.015 0.008,-0.174 c -0.034,0.065 -0.074,0.112 -0.121,0.143 -0.046,0.03 -0.1,0.044 -0.161,0.042 -0.104,-0.004 -0.182,-0.05 -0.233,-0.139 -0.052,-0.089 -0.074,-0.214 -0.066,-0.376 l 0.024,-0.489 -0.116,-0.003 0.017,-0.347 0.386,0.009 -0.035,0.726 c -0.005,0.098 0.003,0.169 0.024,0.211 0.021,0.043 0.059,0.065 0.111,0.067 0.05,0.002 0.091,-0.021 0.123,-0.069 0.032,-0.049 0.05,-0.115 0.054,-0.2 l 0.018,-0.378 -0.108,-0.003 0.016,-0.349 z m -1.597,0.925 0.032,-0.618 -0.105,-0.003 0.018,-0.341 0.349,0.008 -0.009,0.189 c 0.028,-0.069 0.063,-0.12 0.104,-0.153 0.042,-0.034 0.093,-0.051 0.154,-0.052 l -0.018,0.364 c -0.085,0.004 -0.147,0.033 -0.187,0.087 -0.039,0.054 -0.061,0.142 -0.068,0.263 l -0.013,0.265 0.106,0.003 -0.018,0.348 -0.478,-0.019 0.017,-0.345 z m -0.63,0.321 0.05,-0.956 -0.112,-0.003 0.017,-0.338 0.113,0.002 0.02,-0.38 0.259,0.004 -0.02,0.382 0.114,0.003 -0.018,0.34 -0.113,-0.003 -0.032,0.615 0.087,0.003 -0.018,0.345 z m -1.072,-0.381 0.034,-0.604 -0.107,-0.003 0.019,-0.334 0.34,0.008 -0.009,0.169 c 0.033,-0.063 0.071,-0.11 0.114,-0.14 0.044,-0.031 0.094,-0.046 0.15,-0.045 0.099,0.002 0.172,0.047 0.221,0.133 0.048,0.086 0.069,0.208 0.06,0.366 l -0.025,0.478 0.113,0.004 -0.018,0.342 -0.372,-0.014 0.039,-0.708 c 0.005,-0.097 -0.002,-0.166 -0.022,-0.206 -0.018,-0.041 -0.053,-0.062 -0.102,-0.063 -0.047,-0.001 -0.086,0.022 -0.117,0.069 -0.03,0.046 -0.048,0.11 -0.052,0.191 l -0.02,0.366 0.101,0.004 -0.019,0.339 -0.458,-0.018 0.019,-0.337 z m -0.238,-0.05 c -0.045,0.128 -0.108,0.226 -0.187,0.295 -0.079,0.069 -0.167,0.102 -0.263,0.098 -0.067,-0.003 -0.126,-0.021 -0.177,-0.055 -0.052,-0.033 -0.097,-0.083 -0.138,-0.149 -0.039,-0.065 -0.067,-0.137 -0.085,-0.217 -0.017,-0.08 -0.023,-0.166 -0.017,-0.259 0.005,-0.092 0.021,-0.177 0.048,-0.256 0.027,-0.08 0.063,-0.15 0.109,-0.21 0.047,-0.061 0.099,-0.107 0.156,-0.139 0.058,-0.032 0.119,-0.048 0.181,-0.046 0.078,10e-4 0.149,0.029 0.214,0.082 0.065,0.054 0.116,0.128 0.154,0.222 0.022,0.054 0.037,0.112 0.046,0.174 0.009,0.063 0.011,0.13 0.007,0.201 -0.001,0.022 -0.003,0.044 -0.006,0.068 -0.002,0.024 -0.005,0.049 -0.009,0.076 l -0.636,-0.021 c 0.007,0.057 0.026,0.103 0.058,0.138 0.031,0.035 0.07,0.054 0.115,0.055 0.024,0.001 0.048,-0.004 0.069,-0.015 0.022,-0.011 0.043,-0.029 0.064,-0.053 z m -0.594,-0.406 0.383,0.012 c -0.009,-0.07 -0.029,-0.124 -0.06,-0.161 -0.031,-0.038 -0.071,-0.058 -0.121,-0.059 -0.046,-0.001 -0.087,0.017 -0.122,0.053 -0.036,0.037 -0.062,0.088 -0.08,0.155 z m -0.457,0.745 -0.685,-0.027 0.018,-0.304 0.411,-0.607 -0.146,-0.004 -0.006,0.104 -0.21,-0.006 0.026,-0.427 0.655,0.015 -0.02,0.333 -0.394,0.579 0.159,0.006 0.007,-0.107 0.211,0.007 z m -0.871,-0.035 -0.67,-0.026 0.019,-0.301 0.403,-0.599 -0.142,-0.004 -0.007,0.103 -0.205,-0.006 0.027,-0.423 0.64,0.015 -0.021,0.329 -0.386,0.573 0.155,0.006 0.007,-0.106 0.207,0.007 z m -1.585,-0.384 0.037,-0.575 -0.096,-0.003 0.021,-0.317 0.309,0.007 -0.011,0.161 c 0.03,-0.061 0.065,-0.106 0.105,-0.134 0.04,-0.03 0.085,-0.044 0.137,-0.043 0.088,0.002 0.154,0.044 0.197,0.127 0.043,0.081 0.06,0.197 0.05,0.348 l -0.029,0.454 0.103,0.003 -0.02,0.326 -0.337,-0.013 0.044,-0.674 c 0.006,-0.092 0,-0.157 -0.017,-0.195 -0.017,-0.039 -0.047,-0.059 -0.092,-0.06 -0.043,-0.001 -0.078,0.021 -0.107,0.065 -0.028,0.044 -0.044,0.105 -0.049,0.182 l -0.023,0.349 0.091,0.003 -0.021,0.323 -0.414,-0.016 0.021,-0.322 z m -0.215,-0.048 c -0.043,0.122 -0.101,0.216 -0.174,0.281 -0.072,0.066 -0.152,0.097 -0.239,0.094 -0.06,-0.003 -0.114,-0.02 -0.16,-0.052 -0.046,-0.032 -0.087,-0.079 -0.123,-0.142 -0.035,-0.061 -0.059,-0.13 -0.074,-0.206 -0.015,-0.076 -0.019,-0.158 -0.013,-0.247 0.006,-0.087 0.022,-0.168 0.047,-0.244 0.025,-0.075 0.059,-0.142 0.102,-0.2 0.042,-0.058 0.09,-0.102 0.143,-0.132 0.053,-0.03 0.107,-0.045 0.164,-0.044 0.071,0.002 0.135,0.028 0.193,0.078 0.058,0.051 0.104,0.121 0.137,0.211 0.019,0.052 0.032,0.107 0.039,0.166 0.007,0.059 0.009,0.123 0.004,0.191 -0.001,0.02 -0.003,0.042 -0.006,0.065 -0.002,0.022 -0.006,0.046 -0.009,0.072 l -0.576,-0.019 c 0.005,0.054 0.022,0.098 0.05,0.131 0.029,0.034 0.063,0.051 0.104,0.052 0.022,0.001 0.043,-0.004 0.063,-0.014 0.02,-0.011 0.039,-0.028 0.058,-0.051 z m -0.534,-0.385 0.347,0.01 c -0.007,-0.066 -0.024,-0.117 -0.052,-0.153 -0.028,-0.036 -0.064,-0.054 -0.109,-0.055 -0.042,-10e-4 -0.079,0.016 -0.112,0.05 -0.032,0.035 -0.057,0.084 -0.074,0.148 z m -0.704,0.698 0.061,-0.879 -0.095,-0.002 0.021,-0.312 0.096,0.002 0.024,-0.35 0.22,0.004 -0.025,0.351 0.096,0.002 -0.021,0.314 -0.096,-0.003 -0.039,0.565 0.073,0.003 -0.022,0.317 z m -0.168,-0.361 c -0.042,0.119 -0.098,0.211 -0.168,0.276 -0.07,0.064 -0.147,0.095 -0.231,0.091 -0.058,-0.002 -0.109,-0.019 -0.153,-0.05 -0.045,-0.031 -0.084,-0.078 -0.118,-0.139 -0.033,-0.06 -0.057,-0.128 -0.071,-0.203 -0.013,-0.074 -0.017,-0.155 -0.011,-0.241 0.006,-0.086 0.022,-0.166 0.047,-0.24 0.024,-0.074 0.057,-0.139 0.098,-0.196 0.042,-0.057 0.088,-0.1 0.139,-0.129 0.051,-0.031 0.104,-0.045 0.158,-0.044 0.068,0.002 0.13,0.027 0.186,0.077 0.056,0.05 0.099,0.118 0.13,0.206 0.018,0.051 0.031,0.105 0.037,0.163 0.007,0.058 0.008,0.121 0.003,0.188 -0.001,0.019 -0.004,0.04 -0.006,0.063 -0.003,0.022 -0.006,0.045 -0.01,0.071 l -0.554,-0.019 c 0.005,0.053 0.021,0.096 0.048,0.129 0.027,0.033 0.061,0.05 0.1,0.051 0.021,0.001 0.042,-0.004 0.061,-0.014 0.019,-0.011 0.037,-0.027 0.056,-0.05 z m -0.511,-0.377 0.333,0.009 c -0.006,-0.064 -0.022,-0.114 -0.049,-0.15 -0.026,-0.035 -0.061,-0.053 -0.105,-0.054 -0.04,-0.001 -0.075,0.015 -0.107,0.05 -0.032,0.034 -0.056,0.082 -0.072,0.145 z m -0.895,0.091 c -0.006,0.084 0.005,0.154 0.034,0.21 0.029,0.055 0.07,0.084 0.121,0.086 0.05,0.002 0.094,-0.024 0.131,-0.078 0.038,-0.054 0.06,-0.123 0.066,-0.207 0.006,-0.085 -0.006,-0.155 -0.035,-0.211 -0.029,-0.056 -0.069,-0.085 -0.119,-0.086 -0.051,-0.002 -0.096,0.025 -0.133,0.079 -0.037,0.054 -0.058,0.122 -0.065,0.207 z m -0.253,0.637 0.068,-0.918 -0.079,-0.002 0.023,-0.304 0.277,0.007 -0.011,0.143 c 0.031,-0.055 0.065,-0.095 0.104,-0.121 0.038,-0.026 0.082,-0.038 0.131,-0.037 0.103,0.002 0.185,0.061 0.244,0.176 0.06,0.116 0.083,0.261 0.071,0.437 -0.013,0.175 -0.058,0.319 -0.134,0.431 -0.076,0.111 -0.166,0.164 -0.27,0.16 -0.047,-0.002 -0.088,-0.016 -0.122,-0.041 -0.033,-0.026 -0.06,-0.064 -0.081,-0.114 l -0.014,0.191 0.072,0.003 -0.023,0.309 -0.358,-0.016 0.023,-0.307 z m -1.234,-0.413 0.042,-0.539 -0.084,-0.002 0.023,-0.298 0.264,0.006 -0.013,0.17 c 0.03,-0.065 0.063,-0.112 0.099,-0.143 0.036,-0.032 0.076,-0.047 0.12,-0.046 0.043,10e-4 0.079,0.019 0.108,0.056 0.029,0.037 0.05,0.09 0.062,0.161 0.035,-0.071 0.07,-0.123 0.106,-0.156 0.037,-0.033 0.077,-0.049 0.12,-0.048 0.073,0.001 0.126,0.041 0.159,0.118 0.033,0.077 0.045,0.186 0.034,0.328 l -0.032,0.428 0.092,0.004 -0.023,0.306 -0.294,-0.011 0.048,-0.635 c 0.006,-0.087 0.003,-0.148 -0.01,-0.184 -0.012,-0.037 -0.036,-0.056 -0.072,-0.057 -0.033,-0.001 -0.062,0.02 -0.085,0.063 -0.023,0.041 -0.037,0.099 -0.043,0.171 l -0.025,0.329 0.091,0.003 -0.023,0.305 -0.285,-0.011 0.049,-0.631 c 0.007,-0.085 0.003,-0.146 -0.01,-0.182 -0.012,-0.037 -0.036,-0.057 -0.072,-0.057 -0.033,-0.001 -0.061,0.019 -0.083,0.06 -0.023,0.042 -0.037,0.099 -0.043,0.172 l -0.025,0.327 0.081,0.003 -0.024,0.303 -0.364,-0.014 0.024,-0.302 z m -0.67,-0.291 c -0.006,0.077 0.004,0.143 0.031,0.199 0.027,0.056 0.062,0.084 0.106,0.086 0.044,0.001 0.084,-0.025 0.12,-0.078 0.035,-0.053 0.056,-0.119 0.062,-0.197 0.006,-0.08 -0.004,-0.147 -0.031,-0.202 -0.026,-0.056 -0.061,-0.084 -0.106,-0.086 -0.044,-0.001 -0.084,0.026 -0.119,0.08 -0.036,0.054 -0.057,0.12 -0.063,0.198 z m -0.205,-0.006 c 0.007,-0.082 0.022,-0.159 0.045,-0.23 0.024,-0.071 0.055,-0.133 0.093,-0.188 0.039,-0.054 0.082,-0.096 0.128,-0.124 0.048,-0.029 0.096,-0.043 0.146,-0.042 0.049,0.001 0.095,0.017 0.137,0.048 0.043,0.03 0.079,0.074 0.11,0.131 0.03,0.057 0.051,0.122 0.064,0.194 0.012,0.072 0.015,0.15 0.008,0.233 -0.006,0.083 -0.021,0.161 -0.045,0.232 -0.023,0.072 -0.055,0.135 -0.094,0.19 -0.039,0.054 -0.082,0.096 -0.129,0.124 -0.047,0.027 -0.096,0.039 -0.146,0.037 -0.05,-0.002 -0.096,-0.018 -0.139,-0.05 -0.042,-0.031 -0.078,-0.075 -0.108,-0.131 -0.029,-0.057 -0.05,-0.121 -0.062,-0.193 -0.012,-0.072 -0.014,-0.149 -0.008,-0.231 z m -0.621,0.268 0.081,0.003 -0.023,0.272 -0.374,-0.014 0.024,-0.298 0.083,0.003 0.07,-0.846 -0.083,-0.002 0.025,-0.294 0.374,0.007 -0.023,0.273 -0.081,-0.002 -0.03,0.375 0.257,-0.37 -0.091,-0.002 0.022,-0.273 0.378,0.007 -0.024,0.297 -0.074,-0.001 -0.278,0.4 0.24,0.455 0.052,10e-4 -0.024,0.302 -0.38,-0.015 0.023,-0.273 0.083,0.003 -0.196,-0.386 z m 5.688,-2.843 c -0.005,0.086 0.007,0.156 0.039,0.212 0.031,0.056 0.075,0.084 0.129,0.083 0.054,0 0.101,-0.028 0.14,-0.084 0.039,-0.056 0.062,-0.127 0.068,-0.214 0.005,-0.086 -0.008,-0.157 -0.04,-0.213 -0.031,-0.056 -0.074,-0.084 -0.128,-0.083 -0.055,0.001 -0.102,0.029 -0.141,0.086 -0.039,0.056 -0.061,0.127 -0.067,0.213 z m -0.264,0.658 0.064,-0.937 -0.084,0.001 0.021,-0.31 0.295,-0.004 -0.01,0.146 c 0.032,-0.057 0.069,-0.099 0.109,-0.127 0.041,-0.028 0.087,-0.042 0.14,-0.043 0.11,-10e-4 0.198,0.055 0.262,0.17 0.065,0.116 0.092,0.263 0.081,0.442 -0.012,0.179 -0.058,0.327 -0.139,0.444 -0.08,0.116 -0.175,0.173 -0.286,0.173 -0.051,0 -0.094,-0.012 -0.13,-0.037 -0.036,-0.025 -0.065,-0.062 -0.088,-0.113 l -0.014,0.195 0.077,0.001 -0.021,0.315 -0.382,-0.002 0.021,-0.314 z m -0.738,-0.652 c -0.006,0.085 0.006,0.155 0.036,0.21 0.031,0.054 0.073,0.082 0.126,0.082 0.053,0 0.098,-0.028 0.136,-0.083 0.039,-0.056 0.061,-0.126 0.067,-0.211 0.006,-0.086 -0.007,-0.156 -0.038,-0.21 -0.03,-0.056 -0.072,-0.083 -0.125,-0.082 -0.053,0 -0.098,0.028 -0.137,0.084 -0.037,0.055 -0.059,0.125 -0.065,0.21 z m -0.26,0.649 0.066,-0.924 -0.082,0.001 0.021,-0.306 0.287,-0.004 -0.01,0.145 c 0.032,-0.057 0.068,-0.098 0.107,-0.125 0.04,-0.028 0.085,-0.042 0.136,-0.043 0.107,-10e-4 0.192,0.054 0.255,0.168 0.063,0.114 0.088,0.259 0.076,0.435 -0.012,0.177 -0.057,0.323 -0.136,0.438 -0.078,0.114 -0.171,0.171 -0.279,0.171 -0.049,0 -0.092,-0.012 -0.127,-0.037 -0.034,-0.024 -0.063,-0.061 -0.085,-0.111 l -0.013,0.193 h 0.074 l -0.021,0.311 -0.373,-0.002 0.022,-0.31 z m -0.182,-1.226 -0.062,0.858 h 0.091 l -0.021,0.306 h -0.29 l 0.01,-0.152 c -0.028,0.057 -0.061,0.1 -0.098,0.128 -0.037,0.028 -0.08,0.042 -0.128,0.042 -0.082,0 -0.142,-0.038 -0.18,-0.114 -0.038,-0.076 -0.052,-0.185 -0.042,-0.326 l 0.031,-0.428 -0.091,10e-4 0.022,-0.304 0.304,-0.004 -0.046,0.635 c -0.006,0.086 -0.002,0.148 0.013,0.184 0.016,0.036 0.045,0.054 0.086,0.054 0.039,0 0.072,-0.021 0.098,-0.064 0.026,-0.043 0.042,-0.102 0.048,-0.176 l 0.023,-0.331 -0.084,0.001 0.022,-0.306 z m -1.282,0.859 0.041,-0.542 -0.083,10e-4 0.023,-0.299 0.275,-0.004 -0.012,0.166 c 0.024,-0.061 0.053,-0.107 0.087,-0.137 0.033,-0.031 0.074,-0.047 0.122,-0.05 l -0.024,0.318 c -0.066,0.006 -0.116,0.034 -0.149,0.083 -0.032,0.048 -0.052,0.125 -0.06,0.232 l -0.017,0.231 h 0.083 l -0.023,0.304 h -0.377 l 0.023,-0.303 z m -0.506,0.302 0.064,-0.839 -0.089,0.001 0.023,-0.297 0.089,-0.001 0.025,-0.3344 0.205,-0.0039 -0.025,0.3353 0.089,-0.001 -0.022,0.298 -0.09,0.001 -0.041,0.54 h 0.069 l -0.023,0.302 z m -0.432,-0.127 c -0.027,0.049 -0.058,0.085 -0.094,0.108 -0.035,0.023 -0.076,0.034 -0.121,0.034 -0.098,0 -0.175,-0.055 -0.231,-0.165 -0.056,-0.109 -0.077,-0.247 -0.064,-0.414 0.014,-0.167 0.056,-0.305 0.129,-0.415 0.073,-0.11 0.158,-0.165 0.256,-0.167 0.048,0 0.088,0.012 0.121,0.037 0.032,0.025 0.059,0.065 0.081,0.118 l 0.01,-0.139 0.269,-0.004 -0.022,0.297 -0.078,0.001 -0.06,0.78 c -0.013,0.167 -0.055,0.297 -0.127,0.388 -0.072,0.091 -0.166,0.136 -0.282,0.135 -0.097,-10e-4 -0.175,-0.036 -0.233,-0.106 -0.058,-0.07 -0.087,-0.164 -0.089,-0.281 l 0.231,0.001 c 0.005,0.033 0.018,0.057 0.037,0.074 0.019,0.016 0.045,0.025 0.079,0.025 0.054,0 0.096,-0.02 0.127,-0.062 0.031,-0.042 0.05,-0.103 0.056,-0.185 z m -0.3,-0.438 c -0.007,0.081 0.004,0.148 0.031,0.201 0.028,0.053 0.066,0.079 0.115,0.079 0.048,0 0.09,-0.027 0.126,-0.08 0.036,-0.053 0.057,-0.12 0.063,-0.202 0.006,-0.082 -0.004,-0.149 -0.032,-0.201 -0.028,-0.054 -0.065,-0.08 -0.114,-0.079 -0.049,0 -0.091,0.027 -0.127,0.081 -0.035,0.053 -0.056,0.12 -0.062,0.201 z m -0.324,-0.555 -0.065,0.824 h 0.084 l -0.023,0.294 h -0.267 l 0.011,-0.146 c -0.027,0.055 -0.057,0.096 -0.092,0.123 -0.035,0.027 -0.074,0.04 -0.119,0.04 -0.075,0 -0.13,-0.036 -0.165,-0.109 -0.034,-0.073 -0.046,-0.178 -0.035,-0.314 l 0.033,-0.411 -0.084,0.001 0.024,-0.291 0.28,-0.004 -0.049,0.609 c -0.007,0.084 -0.003,0.143 0.011,0.177 0.014,0.035 0.04,0.053 0.078,0.053 0.036,0 0.066,-0.021 0.091,-0.062 0.025,-0.042 0.04,-0.098 0.046,-0.169 l 0.025,-0.318 -0.078,10e-4 0.023,-0.294 z m -1.034,0.823 0.014,-0.167 0.189,-0.001 -0.038,0.462 -0.643,-10e-4 0.025,-0.3 0.456,-0.833 -0.168,0.003 -0.013,0.152 -0.187,0.002 0.037,-0.4417 0.601,-0.0116 -0.024,0.2923 -0.462,0.844 z m 25.40155,11.71894 c 0,1.14404 -0.84007,2.07148 -1.87635,2.07148 -1.03628,0 -1.87636,-0.92743 -1.87636,-2.07148 0,-1.14405 0.84007,-2.07149 1.87636,-2.07149 1.03628,0 1.87635,0.92744 1.87635,2.07149 z m 0.73475,0 c 0,1.59203 -1.16903,2.88263 -2.6111,2.88263 -1.44207,0 -2.6111,-1.2906 -2.6111,-2.88263 0,-1.59204 1.16903,-2.88264 2.6111,-2.88264 1.44207,0 2.6111,1.2906 2.6111,2.88264 z m -2.0964,2.82513 0.72723,-0.18653 0.0639,-0.32185 -0.97414,0.28427 z m -20.02789,-4.80539 c 0,0.84093 -0.4829,1.52263 -1.07858,1.52263 -0.59568,0 -1.07858,-0.6817 -1.07858,-1.52263 0,-0.84093 0.4829,-1.52263 1.07858,-1.52263 0.59568,0 1.07858,0.6817 1.07858,1.52263 z m 0.55134,0 c 0,1.27078 -0.72974,2.30095 -1.62992,2.30095 -0.90018,0 -1.62992,-1.03017 -1.62992,-2.30095 0,-1.27078 0.72974,-2.30095 1.62992,-2.30095 0.90018,0 1.62992,1.03017 1.62992,2.30095 z m -1.47504,2.29362 c 0.57308,-0.0682 0.9067,-0.1097 0.9067,-0.1097 0,0 0.1368,-0.0505 0.18302,-0.11392 0.0462,-0.0634 -0.67836,-0.20308 -0.67836,-0.20308 z m 1.48603,-3.58247 c 0,0 2.15512,0.20748 3.01332,0.25877 0.8582,0.0513 3.76446,0.35228 4.64325,0.43034 0.87878,0.0781 3.86537,0.38356 4.57396,0.42798 0.70858,0.0444 3.75294,0.38353 3.75294,0.38353 0,0 -0.2869,0.63561 -0.31708,1.16789 -0.0302,0.53227 0.0961,0.71529 -0.52218,0.62049 -3.28158,-0.34899 -10.29307,-1.07134 -13.85812,-1.43749 -0.83883,-0.0862 -0.92469,-0.0159 -0.94316,-0.34077 -0.10479,-0.90161 -0.19337,-1.13198 -0.34293,-1.51076 z m 29.58146,1.92485 c 0.34187,-0.0663 0.83591,-0.27856 0.89033,-0.23701 0.0544,0.0415 0.0491,0.87371 -0.0237,0.91912 -0.0728,0.0454 -1.7242,0.48612 -1.77575,0.45416 -0.0515,-0.032 0.0103,-0.90126 0.0661,-0.9536 0.0558,-0.0523 0.72259,-0.15957 0.84297,-0.18267 z m 0.41731,-2.24733 -0.16649,0.0309 -0.24239,-1.28197 -0.0598,0.0101 -0.0233,-0.36165 0.3192,-0.0486 0.0193,0.35872 -0.0648,0.0111 0.11377,0.67411 0.0575,-1.06316 0.16958,-0.026 0.15228,1.0475 0.0485,-0.71995 -0.0648,0.0101 -0.0132,-0.35682 0.3112,-0.0484 0.0102,0.35588 -0.0589,0.009 -0.11689,1.32624 -0.16351,0.0298 -0.15924,-0.98737 z m -1.13738,-0.12619 -0.0923,-0.99254 -0.0788,0.0124 -0.0354,-0.36444 0.35509,-0.0552 0.0303,0.36353 -0.0728,0.0113 0.0275,0.31357 0.23335,-0.0391 -0.0245,-0.31262 -0.0738,0.0123 -0.0283,-0.36256 0.35011,-0.0541 0.0243,0.36063 -0.0778,0.0124 0.0692,0.98494 0.0748,-0.0133 0.0218,0.32967 -0.32798,0.0617 -0.0268,-0.33158 0.0708,-0.0122 -0.0257,-0.3296 -0.23033,0.04 0.0288,0.33055 0.0708,-0.0132 0.0278,0.33156 -0.33397,0.0618 -0.0318,-0.33249 z m -0.37189,0.0665 0.0748,-0.0133 0.0348,0.33345 -0.33893,0.0639 -0.0399,-0.33536 0.0738,-0.0133 -0.11445,-1.00015 -0.0768,0.0123 0.0282,0.23954 -0.14959,0.0246 -0.0746,-0.60779 0.66331,-0.10258 0.0605,0.60304 -0.1466,0.0246 -0.0242,-0.23862 -0.0768,0.0123 z m -3.16038,1.84137 c 0.0318,0.17601 -0.13847,0.39277 -0.38897,0.39933 -0.27462,0.007 -0.40284,-0.0589 -0.43461,-0.23484 -0.0318,-0.17603 0.0906,-0.31231 0.31953,-0.40259 0.23312,-0.0919 0.47228,0.0621 0.50405,0.2381 z m -31.24652,-3.77797 c 0.6938,0.0441 7.43968,0.535 8.17859,0.58343 0.73892,0.0484 7.46363,0.55177 8.55926,0.61532 1.09565,0.0635 11.65823,0.8432 11.65823,0.8432 l -0.22143,0.24629 c 0,0 -8.17344,-0.65628 -9.10952,-0.71827 -0.93609,-0.062 -12.61813,-0.91521 -13.92199,-1.01032 -1.30385,-0.0951 -5.13616,-0.36042 -5.13616,-0.36042 z m -0.0543,-0.88682 c 0,0 5.05659,0.31016 7.63504,0.4166 2.57846,0.10643 10.28729,0.62329 11.34933,0.66934 1.06205,0.0461 9.45767,0.63641 9.55533,0.6382 0.0976,0.002 0.13685,0.11479 0.29843,0.16957 0.16159,0.0548 0.53606,0.19468 0.53606,0.19468 l -0.66739,0.65729 c 0,0 -12.20049,-0.95312 -13.8385,-1.03367 -1.63802,-0.0806 -13.02316,-0.86906 -13.18529,-0.8823 -0.16214,-0.0132 -1.62615,-0.14279 -1.62615,-0.14279 z m 0.97711,-8.109 c 1.33439,-0.09194 4.90698,-0.35852 6.38772,-0.4181 1.48074,-0.05958 3.75662,-0.189036 5.58191,-0.246178 1.82529,-0.05714 6.14121,-0.146138 6.14121,-0.146138 l -0.49192,-0.400678 c 0,0 -6.05255,0.138969 -7.33483,0.20868 -1.28227,0.0697 -6.09364,0.332849 -6.87821,0.391206 -0.78458,0.05835 -3.30935,0.276364 -3.30935,0.276364 -0.0616,0.111612 -0.0694,0.223223 -0.0965,0.334844 z m 16.18679,1.281162 c 0.31309,-0.209237 3.02008,-0.127067 3.37065,0.0083 0.35057,0.135419 0.83022,0.963788 2.29105,3.156698 1.46083,2.19291 1.59692,2.39758 1.64814,2.67683 0.0512,0.27924 -0.54688,0.22056 -4.11731,0.0448 -3.35543,-0.16521 -3.41539,-0.34376 -3.55703,-0.58908 -0.0803,-0.13909 -0.14863,-1.68184 -0.11646,-2.72133 0.0267,-0.86157 0.18313,-2.434491 0.48096,-2.576231 z m 6.45881,0.07532 c 2.01438,0.06038 3.52387,0.155106 3.80901,0.238064 0.28514,0.08296 1.17871,0.834824 1.47086,1.158704 0.29214,0.32389 1.82514,1.99988 1.9879,2.18522 0.16275,0.18535 0.86475,0.97519 0.90236,1.0277 0.0376,0.0525 -1.22322,0.1176 -2.10826,0.13711 -0.88506,0.0195 -2.66366,0.0505 -3.29224,0.0784 -0.62857,0.0279 -0.72886,0.26536 -1.56589,-0.87588 -0.83702,-1.14124 -1.56233,-2.08657 -1.92875,-2.5441 -0.36643,-0.45752 -0.58769,-0.72447 -0.69727,-0.96866 -0.10958,-0.244179 -0.28796,-0.438985 0.34426,-0.432392 0.63222,0.0066 1.07802,-0.0042 1.07802,-0.0042 z M 164.77379,97.22018 c 0.73978,-0.190147 3.57455,-0.426575 4.91287,-0.523037 1.33833,-0.09647 8.07553,-0.419386 8.98179,-0.413009 0.90625,0.0064 4.6009,0.438624 5.927,0.457824 1.3261,0.01921 1.63549,-0.251355 2.90233,0.254249 1.26686,0.505604 3.669,2.844608 4.24144,3.380503 0.57245,0.53588 3.45482,3.76889 3.61388,3.88614 0.15905,0.11726 0.28717,0.0888 0.39546,0.12178 0.1083,0.0329 3.77676,1.47717 4.21047,2.08897 0.43369,0.61181 0.39761,1.8061 0.40614,2.35375 0.009,0.54764 0.0262,0.97874 -0.81598,1.19963 -0.84217,0.22089 -1.41397,0.2507 -1.90752,0.23862 -0.49356,-0.0121 -0.6911,-0.30274 -1.10304,-1.00385 -0.41194,-0.70111 -0.67432,-1.2267 -0.63211,-1.60719 0.0422,-0.38048 -0.61966,-0.28579 -2.39023,-0.49319 -1.77057,-0.20738 -2.50247,-0.39823 -2.17149,0.0909 0.33098,0.48918 0.74088,0.89386 0.99364,1.0262 0.25276,0.13234 -0.007,0.68691 -0.0608,0.74795 -0.0537,0.061 -0.24214,0.1825 -0.37362,0.30053 -0.13148,0.11803 -0.29728,0.42047 -0.53173,0.4543 -0.23447,0.0338 -1.47691,0.0469 -1.47691,0.0469 0,0 -0.78619,-0.51299 -1.66915,-0.56776 -0.88294,-0.0547 -1.62728,0.43495 -1.62728,0.43495 -2.00562,-0.13362 -15.65072,-1.18229 -18.35178,-1.33432 -0.27732,-0.13995 -0.8059,-0.18234 -1.19793,-0.0303 l -3.38512,-0.2595 c 0,0 -0.10372,-0.4714 -0.10582,-0.62579 -0.002,-0.15437 -0.009,-0.1079 -0.007,-0.18515 0.002,-0.0772 0,-0.24257 -8e-5,-0.29975 4e-5,-0.0572 -0.0517,-0.57383 -0.0556,-0.59901 -0.004,-0.0252 0.0317,-0.87769 0.04,-1.13488 0.008,-0.2572 0.0158,-0.82814 -0.001,-0.85179 -0.0165,-0.0237 -0.45402,0.0145 -0.47166,0.0118 -0.0176,-0.003 0.16664,-1.67205 0.20877,-1.93703 0.0421,-0.26497 0.22431,-1.55133 0.27254,-1.80957 0.0482,-0.25823 0.23132,-1.190438 0.29541,-1.440957 0.0641,-0.250529 0.35211,-1.768565 0.93408,-1.978962 z m 4.69155,12.34865 c -0.28907,-0.71493 -0.7265,-0.99169 -1.21817,-1.20781 0.3661,-0.0602 2.93116,-0.11436 2.93116,-0.11436 l 3.31581,0.23683 3.47099,0.2718 3.4536,0.19273 3.52913,0.44948 1.73118,0.22599 c 0,0 0.0642,-0.0176 -0.0781,0.0711 -0.14231,0.0887 -0.43879,0.35194 -0.56478,0.51678 -0.12598,0.16484 -0.40624,0.51941 -0.48882,0.66505 -0.0826,0.14565 7.9e-4,-0.0137 -0.10068,0.19403 -0.10141,0.2077 -0.48282,0.11288 -0.48282,0.11288 l -9.90386,-0.82791 c -1.40588,-0.50964 -4.58843,0.17171 -5.59464,-0.78659 z m 0.97325,1.1759 c 0,1.27078 -0.72974,2.30095 -1.62992,2.30095 -0.90018,0 -1.62992,-1.03017 -1.62992,-2.30095 0,-1.27078 0.72974,-2.30095 1.62992,-2.30095 0.90018,0 1.62992,1.03017 1.62992,2.30095 z m -6.86902,-2.86461 c -0.001,0.0652 0.0298,0.92008 0.0362,0.96719 0.006,0.0471 1.51062,0.8137 1.51062,0.8137 0,0 0.81003,0.25613 0.84002,0.12926 0.25088,-0.96265 0.78944,-1.3172 1.09283,-1.45955 0.26908,-0.12626 -3.42322,-0.59043 -3.47966,-0.45062 z m 27.6484,-1.1672 4.84415,0.43939 c 0,0 0.20884,1.20936 0.15928,1.28849 -0.0495,0.0791 -0.28386,0.18746 -0.42801,0.24984 -0.14415,0.0624 -1.64051,0.0377 -2.02976,-0.036 -0.38926,-0.0737 -0.75827,-0.13868 -1.04969,-0.25953 -0.29143,-0.12085 -0.67685,-0.20835 -0.67685,-0.20835 l -1.11295,-0.93712 0.11929,-0.42099 z m 5.00577,1.52652 c 0,0 4.00523,-0.0907 4.06788,-0.01 0.0626,0.0808 0.0708,0.85971 0.0709,0.9519 1e-4,0.0922 0.0224,1.30101 0.0298,1.43856 0.007,0.13756 0.0496,0.91156 0.0327,1.04889 -0.0169,0.13734 0.1028,0.39153 -1.27594,0.71224 -1.13408,0.26381 -3.36933,0.91924 -4.36436,1.00656 -0.99502,0.0873 -2.82998,0.0843 -3.03324,0.0123 -0.20326,-0.072 -0.16792,-0.5854 -0.34204,-1.29295 -0.17412,-0.70754 -0.88012,-1.92089 -1.48408,-2.27599 -0.60395,-0.3551 1.80727,-1.5579 1.80727,-1.5579 z m 1.05412,2.76352 c 0,1.59204 -1.16903,2.88264 -2.6111,2.88264 -1.44207,0 -2.6111,-1.2906 -2.6111,-2.88264 0,-1.59204 1.16903,-2.88264 2.6111,-2.88264 1.44207,0 2.6111,1.2906 2.6111,2.88264 z m -5.75906,1.71252 c 0,1.59203 -1.16903,2.88263 -2.6111,2.88263 -1.44207,0 -2.6111,-1.2906 -2.6111,-2.88263 0,-1.59204 1.16903,-2.88264 2.6111,-2.88264 1.44207,0 2.6111,1.2906 2.6111,2.88264 z M 163.65,107.76163 c 0,0 -0.55095,0.01 -0.59587,-0.0416 -0.0449,-0.0515 -0.0233,-2.29156 -0.0248,-2.39792 -0.002,-0.10636 0.005,-0.8941 0.0402,-0.96984 0.0349,-0.0757 0.48166,-0.095 0.48166,-0.095 l 0.1384,0.27547 c 0,0 0.19027,2.90476 -0.0396,3.22892 z m 0.27717,2.30883 c -0.1018,-0.0658 -0.52481,-0.14782 -0.63958,-0.34992 -0.11476,-0.2021 -0.26875,-0.9156 -0.23887,-1.22158 0.0299,-0.30598 0.002,-0.67471 0.01,-0.81832 0.008,-0.14361 0.5743,-0.16716 0.5743,-0.16716 l 0.54057,0.73843 z m 14.36852,-13.778029 3.9808,0.0024 c 0,0 -0.46828,-1.276075 -0.57993,-1.338763 -0.11164,-0.06269 -2.11646,-0.05624 -2.23381,0.01455 -0.11735,0.0708 -1.11445,1.169297 -1.16706,1.321928 z m 3.42424,-1.147834 c 1.24887,0.08743 2.36002,0.335859 3.10933,0.516312 0.9287,0.223651 1.06032,-0.117233 1.25516,0.142836 3.05122,4.072721 -1.21065,0.691061 -4.07637,0.659114 z m 13.38691,18.695373 0.4689,-0.0856 0.31241,-0.40121 -0.97414,0.28427 z m 2.62602,-2.9254 c 0,1.59203 -1.16902,2.88263 -2.61109,2.88264 -1.44207,0 -2.6111,-1.2906 -2.6111,-2.88264 0,-1.59203 1.16903,-2.88263 2.6111,-2.88263 1.44206,10e-6 2.61109,1.2906 2.61109,2.88263 z m -12.9893,1.77058 c 0,0 0.0252,0.16979 0.14672,0.181 0.1215,0.0112 2.66326,0.28505 3.46377,0.28871 0.80051,0.004 2.96892,0.29485 3.52943,0.26393 0.5605,-0.0309 -0.57834,-3.28431 -0.57834,-3.28431 l -3.734,-1.97716 -3.36942,1.429 z m -19.27403,-2.56465 0.11008,0.50403 c 0,0 0.19512,0.10296 0.29911,0.13666 0.104,0.0337 4.14376,0.37733 4.14376,0.37733 l -0.65977,-2.94443 -2.47489,-1.03166 -1.56002,1.69347 z"
       transform="translate(-75.798682,-53.311263)"
       sodipodi:nodetypes="cccccccccccccccccccccccccccccccccccccccccccccccccccccccccccccccccccccccccccccccccccccccccccccccccccccccccccccccccccccccscccccccccccccccccccccccccccccccccccccccccccccccccccccccccccccccccccccccccccccccccccccscscccscccscccccccccccsccccccccccccccccccccccccsccccsccccccscccccccccccccccscscccccccccccccccccccccccccccccscccsccccccccccccccccccccccccccscccccccccccccccccccsccsccccccccccccccccccccccccccccccccsccccccccccccccccsscccccccscscccccsccccccccsccsccccccccccccccssscccccccsscccccccccccccccccccccccccccccccccccccccsccsccccccccscscccssccccsssccccccccccssccccccccscccccccccccccccccccccsssssssssscccccssssssssssccscccscccccccccscsccssccccccccccccccccccccccccccccccccccccccccccccccccccccccccccccccccccccccccccccccssccccccccccccccsscccscccccsccsccccsccsssscsscccsccscccccscssccscsccccccccscccccccsccccccccccsscccccsssssscccsssccccssccccccscsscsssccsssssssssscccccccccscscccccsscccsscccccccssssscsccccccccsccccc"
       sodipodi:insensitive="true" /><g
       id="g8794"
       transform="translate(-75.798681,-53.311262)"
       style="display:inline"
       inkscape:label="auto_colored"
       sodipodi:insensitive="true"><path
         style="font-variation-settings:normal;opacity:1;vector-effect:none;fill:#000000;fill-opacity:1;stroke:none;stroke-width:0.411395;stroke-linecap:square;stroke-linejoin:round;stroke-miterlimit:4;stroke-dasharray:none;stroke-dashoffset:0;stroke-opacity:1;-inkscape-stroke:none;paint-order:markers fill stroke;stop-color:#000000;stop-opacity:1"
         d="m 165.46953,110.1205 0.11008,0.50403 c 0,0 0.19512,0.10296 0.29911,0.13666 0.104,0.0337 4.14376,0.37733 4.14376,0.37733 l -0.65977,-2.94443 -2.47489,-1.03166 -1.56002,1.69347 z"
         id="path6422" /><path
         style="font-variation-settings:normal;opacity:1;vector-effect:none;fill:#000000;fill-opacity:1;stroke:none;stroke-width:0.411395;stroke-linecap:square;stroke-linejoin:round;stroke-miterlimit:4;stroke-dasharray:none;stroke-dashoffset:0;stroke-opacity:1;-inkscape-stroke:none;paint-order:markers fill stroke;stop-color:#000000;stop-opacity:1"
         d="m 184.74356,112.68515 c 0,0 0.0252,0.16979 0.14672,0.181 0.1215,0.0112 2.66326,0.28505 3.46377,0.28871 0.80051,0.004 2.96892,0.29485 3.52943,0.26393 0.5605,-0.0309 -0.57834,-3.28431 -0.57834,-3.28431 l -3.734,-1.97716 -3.36942,1.429 z"
         id="path6536" /><path
         id="ellipse8750"
         style="opacity:1;vector-effect:none;stroke-width:0.411395;stroke-linecap:square;stroke-linejoin:round;paint-order:markers fill stroke;stop-color:#000000;stop-opacity:1"
         d="m 197.73286,110.91457 a 2.6110995,2.8826368 0 0 1 -2.61109,2.88264 2.6110995,2.8826368 0 0 1 -2.6111,-2.88264 2.6110995,2.8826368 0 0 1 2.6111,-2.88263 2.6110995,2.8826368 0 0 1 2.61109,2.88263 z" /><path
         style="font-variation-settings:normal;opacity:1;vector-effect:none;fill:#000000;fill-opacity:1;stroke:none;stroke-width:0.411395;stroke-linecap:square;stroke-linejoin:round;stroke-miterlimit:4;stroke-dasharray:none;stroke-dashoffset:0;stroke-opacity:1;-inkscape-stroke:none;paint-order:markers fill stroke;stop-color:#000000;stop-opacity:1"
         d="m 195.10684,113.83997 0.4689,-0.0856 0.31241,-0.40121 -0.97414,0.28427 z"
         id="path8752"
         sodipodi:nodetypes="ccccc" /><path
         style="font-variation-settings:normal;opacity:1;fill:#ffffff;fill-opacity:1;stroke:none;stroke-width:0.1;stroke-linecap:square;stroke-linejoin:round;stroke-miterlimit:4;stroke-dasharray:none;stroke-dashoffset:0;stroke-opacity:1;paint-order:markers fill stroke;stop-color:#000000;stop-opacity:1"
         d="m 185.58263,95.682354 c -0.0128,-0.02556 -0.0568,-0.09058 0.0405,-0.08382 0.0974,0.0068 0.3716,-0.0034 0.49233,0.12703 0.12073,0.130434 0.89897,1.073665 0.56755,1.023588 -0.33142,-0.05008 -0.74255,-0.094 -0.74255,-0.094 z"
         id="path8748" /><path
         style="font-variation-settings:normal;opacity:1;fill:#333333;fill-opacity:1;stroke:none;stroke-width:0.1;stroke-linecap:square;stroke-linejoin:round;stroke-miterlimit:4;stroke-dasharray:none;stroke-dashoffset:0;stroke-opacity:1;paint-order:markers fill stroke;stop-color:#000000;stop-opacity:1"
         d="m 181.71993,95.144597 c 0,0 3.78399,0.458597 3.84785,0.508775 0.0639,0.05018 0.36692,0.680543 0.39155,0.75479 0.0246,0.07425 0.1561,0.280818 -0.0567,0.233587 -0.21282,-0.04723 -3.89458,-0.17889 -3.89458,-0.17889 z"
         id="path8746" /><path
         style="font-variation-settings:normal;opacity:1;fill:#ffffff;fill-opacity:1;stroke:none;stroke-width:0.1;stroke-linecap:square;stroke-linejoin:round;stroke-miterlimit:4;stroke-dasharray:none;stroke-dashoffset:0;stroke-opacity:1;paint-order:markers fill stroke;stop-color:#000000;stop-opacity:1"
         d="m 178.29569,96.292431 3.9808,0.0024 c 0,0 -0.46828,-1.276075 -0.57993,-1.338763 -0.11164,-0.06269 -2.11646,-0.05624 -2.23381,0.01455 -0.11735,0.0708 -1.11445,1.169297 -1.16706,1.321928 z"
         id="path8744" /><path
         style="font-variation-settings:normal;opacity:1;vector-effect:none;fill:#ffffff;fill-opacity:1;stroke:none;stroke-width:0.411395;stroke-linecap:square;stroke-linejoin:round;stroke-miterlimit:4;stroke-dasharray:none;stroke-dashoffset:0;stroke-opacity:1;-inkscape-stroke:none;paint-order:markers fill stroke;stop-color:#000000;stop-opacity:1"
         d="m 163.92717,110.07046 c -0.1018,-0.0658 -0.52481,-0.14782 -0.63958,-0.34992 -0.11476,-0.2021 -0.26875,-0.9156 -0.23887,-1.22158 0.0299,-0.30598 0.002,-0.67471 0.01,-0.81832 0.008,-0.14361 0.5743,-0.16716 0.5743,-0.16716 l 0.54057,0.73843 z"
         id="path6420" /><path
         style="font-variation-settings:normal;opacity:1;vector-effect:none;fill:#ff5208;fill-opacity:1;stroke:none;stroke-width:0.411395;stroke-linecap:square;stroke-linejoin:round;stroke-miterlimit:4;stroke-dasharray:none;stroke-dashoffset:0;stroke-opacity:1;-inkscape-stroke:none;paint-order:markers fill stroke;stop-color:#000000;stop-opacity:1"
         d="m 163.65,107.76163 c 0,0 -0.55095,0.01 -0.59587,-0.0416 -0.0449,-0.0515 -0.0233,-2.29156 -0.0248,-2.39792 -0.002,-0.10636 0.005,-0.8941 0.0402,-0.96984 0.0349,-0.0757 0.48166,-0.095 0.48166,-0.095 l 0.1384,0.27547 c 0,0 0.19027,2.90476 -0.0396,3.22892 z"
         id="path6394" /><path
         id="ellipse6542"
         style="opacity:1;vector-effect:none;stroke-width:0.411395;stroke-linecap:square;stroke-linejoin:round;paint-order:markers fill stroke;stop-color:#000000;stop-opacity:1"
         d="m 191.5188,112.71548 a 2.6110995,2.8826368 0 0 1 -2.6111,2.88263 2.6110995,2.8826368 0 0 1 -2.6111,-2.88263 2.6110995,2.8826368 0 0 1 2.6111,-2.88264 2.6110995,2.8826368 0 0 1 2.6111,2.88264 z" /><path
         id="ellipse8754"
         style="opacity:1;vector-effect:none;fill:#333333;stroke-width:0.411395;stroke-linecap:square;stroke-linejoin:round;paint-order:markers fill stroke;stop-color:#000000;stop-opacity:1"
         d="m 197.27786,111.00296 a 2.6110995,2.8826368 0 0 1 -2.6111,2.88264 2.6110995,2.8826368 0 0 1 -2.6111,-2.88264 2.6110995,2.8826368 0 0 1 2.6111,-2.88264 2.6110995,2.8826368 0 0 1 2.6111,2.88264 z" /><path
         style="fill:#ffffff;stroke:none;stroke-width:0.0187243;-inkscape-stroke:none;stop-color:#000000"
         d="m 196.22374,108.23944 c 0,0 4.00523,-0.0907 4.06788,-0.01 0.0626,0.0808 0.0708,0.85971 0.0709,0.9519 1e-4,0.0922 0.0224,1.30101 0.0298,1.43856 0.007,0.13756 0.0496,0.91156 0.0327,1.04889 -0.0169,0.13734 0.1028,0.39153 -1.27594,0.71224 -1.13408,0.26381 -3.36933,0.91924 -4.36436,1.00656 -0.99502,0.0873 -2.82998,0.0843 -3.03324,0.0123 -0.20326,-0.072 -0.16792,-0.5854 -0.34204,-1.29295 -0.17412,-0.70754 -0.88012,-1.92089 -1.48408,-2.27599 -0.60395,-0.3551 1.80727,-1.5579 1.80727,-1.5579 z"
         id="path977"
         sodipodi:nodetypes="ccscsssssscc" /><path
         style="font-variation-settings:normal;opacity:1;vector-effect:none;fill:#ff5208;fill-opacity:1;stroke:none;stroke-width:0.411395;stroke-linecap:square;stroke-linejoin:round;stroke-miterlimit:4;stroke-dasharray:none;stroke-dashoffset:0;stroke-opacity:1;-inkscape-stroke:none;paint-order:markers fill stroke;stop-color:#000000;stop-opacity:1"
         d="m 191.21797,106.71292 4.84415,0.43939 c 0,0 0.20884,1.20936 0.15928,1.28849 -0.0495,0.0791 -0.28386,0.18746 -0.42801,0.24984 -0.14415,0.0624 -1.64051,0.0377 -2.02976,-0.036 -0.38926,-0.0737 -0.75827,-0.13868 -1.04969,-0.25953 -0.29143,-0.12085 -0.67685,-0.20835 -0.67685,-0.20835 l -1.11295,-0.93712 0.11929,-0.42099 z"
         id="path1195" /><path
         style="font-variation-settings:normal;opacity:1;fill:#333333;fill-opacity:1;stroke:none;stroke-width:0.1;stroke-linecap:square;stroke-linejoin:round;stroke-miterlimit:4;stroke-dasharray:none;stroke-dashoffset:0;stroke-opacity:1;paint-order:markers fill stroke;stop-color:#000000;stop-opacity:1"
         d="m 163.56957,107.88012 c -0.001,0.0652 0.0298,0.92008 0.0362,0.96719 0.006,0.0471 1.51062,0.8137 1.51062,0.8137 0,0 0.81003,0.25613 0.84002,0.12926 0.25088,-0.96265 0.78944,-1.3172 1.09283,-1.45955 0.26908,-0.12626 -3.42322,-0.59043 -3.47966,-0.45062 z"
         id="path6334"
         sodipodi:nodetypes="scccsss" /><path
         id="ellipse6534"
         style="opacity:1;vector-effect:none;stroke-width:0.411395;stroke-linecap:square;stroke-linejoin:round;paint-order:markers fill stroke;stop-color:#000000;stop-opacity:1"
         d="m 170.43859,110.74473 a 1.6299182,2.3009496 0 0 1 -1.62992,2.30095 1.6299182,2.3009496 0 0 1 -1.62992,-2.30095 1.6299182,2.3009496 0 0 1 1.62992,-2.30095 1.6299182,2.3009496 0 0 1 1.62992,2.30095 z" /><path
         style="font-variation-settings:normal;opacity:1;fill:#333333;fill-opacity:1;stroke:none;stroke-width:0.1;stroke-linecap:square;stroke-linejoin:round;stroke-miterlimit:4;stroke-dasharray:none;stroke-dashoffset:0;stroke-opacity:1;paint-order:markers fill stroke;stop-color:#000000;stop-opacity:1"
         d="m 169.46534,109.56883 c -0.23199,-0.56387 -0.57439,-0.98192 -1.18042,-1.20633 0.3661,-0.0602 2.89341,-0.11584 2.89341,-0.11584 l 3.31581,0.23683 3.47099,0.2718 3.4536,0.19273 3.52913,0.44948 1.73118,0.22599 c 0,0 0.0642,-0.0176 -0.0781,0.0711 -0.14231,0.0887 -0.43879,0.35194 -0.56478,0.51678 -0.12598,0.16484 -0.40624,0.51941 -0.48882,0.66505 -0.0826,0.14565 7.9e-4,-0.0137 -0.10068,0.19403 -0.10141,0.2077 -0.48282,0.11288 -0.48282,0.11288 l -9.90386,-0.82791 c -1.40588,-0.50964 -4.58843,0.17171 -5.59464,-0.78659 z"
         id="path6338"
         sodipodi:nodetypes="ccccccccssccccc" /><path
         style="font-variation-settings:normal;display:inline;opacity:1;vector-effect:none;fill:#00387a;fill-opacity:1;stroke:none;stroke-width:0;stroke-linecap:butt;stroke-linejoin:miter;stroke-miterlimit:10;stroke-dasharray:none;stroke-dashoffset:0;stroke-opacity:1;-inkscape-stroke:none;paint-order:markers fill stroke;stop-color:#000000;stop-opacity:1"
         d="m 164.77379,97.22018 c 0.73978,-0.190147 3.57455,-0.426575 4.91287,-0.523037 1.33833,-0.09647 8.07553,-0.419386 8.98179,-0.413009 0.90625,0.0064 2.92326,0.0075 4.24936,0.0267 1.3261,0.01921 3.31313,0.179769 4.57997,0.685373 1.26686,0.505604 3.669,2.844608 4.24144,3.380503 0.57245,0.53588 3.45482,3.76889 3.61388,3.88614 0.15905,0.11726 0.28717,0.0888 0.39546,0.12178 0.1083,0.0329 3.77676,1.47717 4.21047,2.08897 0.43369,0.61181 0.39761,1.8061 0.40614,2.35375 0.009,0.54764 0.0262,0.97874 -0.81598,1.19963 -0.84217,0.22089 -1.41397,0.2507 -1.90752,0.23862 -0.49356,-0.0121 -0.6911,-0.30274 -1.10304,-1.00385 -0.41194,-0.70111 -0.67432,-1.2267 -0.63211,-1.60719 0.0422,-0.38048 -0.61966,-0.28579 -2.39023,-0.49319 -1.77057,-0.20738 -2.50247,-0.39823 -2.17149,0.0909 0.33098,0.48918 0.74088,0.89386 0.99364,1.0262 0.25276,0.13234 -0.007,0.68691 -0.0608,0.74795 -0.0537,0.061 -0.24214,0.1825 -0.37362,0.30053 -0.13148,0.11803 -0.29728,0.42047 -0.53173,0.4543 -0.23447,0.0338 -1.47691,0.0469 -1.47691,0.0469 0,0 -0.78619,-0.51299 -1.66915,-0.56776 -0.88294,-0.0547 -1.62728,0.43495 -1.62728,0.43495 -2.00562,-0.13362 -15.61297,-1.18081 -18.31403,-1.33284 -0.27732,-0.13995 -0.84365,-0.18382 -1.23568,-0.0318 l -3.38512,-0.2595 c 0,0 -0.10372,-0.4714 -0.10582,-0.62579 -0.002,-0.15437 -0.009,-0.1079 -0.007,-0.18515 0.002,-0.0772 0,-0.24257 -8e-5,-0.29975 4e-5,-0.0572 -0.0517,-0.57383 -0.0556,-0.59901 -0.004,-0.0252 0.0317,-0.87769 0.04,-1.13488 0.008,-0.2572 0.0158,-0.82814 -0.001,-0.85179 -0.0165,-0.0237 -0.45402,0.0145 -0.47166,0.0118 -0.0176,-0.003 0.16664,-1.67205 0.20877,-1.93703 0.0421,-0.26497 0.22431,-1.55133 0.27254,-1.80957 0.0482,-0.25823 0.23132,-1.190438 0.29541,-1.440957 0.0641,-0.250529 0.35211,-1.768565 0.93408,-1.978962 z"
         id="path776"
         sodipodi:nodetypes="csccscccccscssccscsccccccccscccccccscc" /><path
         style="display:inline;fill:#333333;stroke:none;stroke-width:0.0187243;-inkscape-stroke:none;stop-color:#000000"
         d="m 187.11633,99.610721 c 2.01438,0.06038 3.66645,0.04813 3.95159,0.131093 1.25788,1.149486 2.15536,2.224756 3.31618,3.450896 0.16275,0.18535 0.88953,0.97639 0.92714,1.0289 0.0505,0.063 -2.2474,0.43856 -3.70693,0.58217 -1.01731,0.1001 -1.84892,0.0867 -2.28138,-0.0432 -0.20371,-0.086 -0.59679,-0.64698 -1.00286,-1.20063 -0.83703,-1.14124 -1.56233,-2.08657 -1.92875,-2.5441 -0.36643,-0.45752 -0.58769,-0.72447 -0.69727,-0.96866 -0.10958,-0.24418 -0.28796,-0.438986 0.34426,-0.432393 0.63222,0.0066 1.07802,-0.0042 1.07802,-0.0042 z"
         id="path599"
         sodipodi:nodetypes="ccccscscsscc" /><path
         style="display:inline;fill:#333333;stroke:none;stroke-width:0.0187243;-inkscape-stroke:none;stop-color:#000000"
         d="m 180.65752,99.535402 c 0.31309,-0.209237 3.02008,-0.127067 3.37065,0.0083 0.35057,0.135419 0.83022,0.963788 2.29105,3.156698 1.46083,2.19291 1.59692,2.39758 1.64814,2.67683 0.0512,0.27924 -0.54688,0.22056 -4.11731,0.0448 -3.35543,-0.16521 -3.41539,-0.34376 -3.55703,-0.58908 -0.0803,-0.13909 -0.14863,-1.68184 -0.11646,-2.72133 0.0267,-0.86157 0.18313,-2.434491 0.48096,-2.576231 z"
         id="path601"
         sodipodi:nodetypes="csssssscc" /><path
         style="display:none;fill:#ffffff;stroke:none;stroke-width:0.0187243;-inkscape-stroke:none;stop-color:#000000"
         d="m 164.01097,98.25424 c 6.8475,-0.418101 12.82875,-0.511737 19.08468,-0.642846 0.079,0.0048 -0.0364,-0.12827 -0.14239,-0.267591 -0.0994,-0.130722 -0.13594,-0.224727 -0.21429,-0.225861 -5.95688,0.04924 -12.77464,0.262842 -18.49128,0.736306 -0.0616,0.111612 -0.13565,0.309694 -0.16275,0.421315 z"
         id="path603"
         sodipodi:nodetypes="ccscccc"
         sodipodi:insensitive="true" /><path
         style="display:inline;fill:#ffffff;stroke:none;stroke-width:0.0187243;-inkscape-stroke:none;stop-color:#000000"
         d="m 163.2958,105.89712 c 9.70638,0.78232 20.21867,1.66736 28.66203,2.08739 0.27505,0.23233 0.55016,0.33392 0.90998,0.46712 l -0.66739,0.65729 c -10.34637,-0.68094 -22.34966,-1.52558 -28.64994,-2.05876 z"
         id="path709"
         sodipodi:nodetypes="cccccc" /><path
         id="path1091"
         style="font-variation-settings:normal;opacity:1;vector-effect:none;fill:#ff5208;fill-opacity:1;stroke:none;stroke-width:0.457723;stroke-linecap:square;stroke-linejoin:round;stroke-miterlimit:4;stroke-dasharray:none;stroke-dashoffset:0;stroke-opacity:1;-inkscape-stroke:none;paint-order:markers fill stroke;stop-color:#000000;stop-opacity:1"
         inkscape:transform-center-x="0.10216297"
         inkscape:transform-center-y="-0.0062018934"
         d="m 194.79446,111.02803 c 0.0318,0.17601 -0.13847,0.39277 -0.38897,0.39933 -0.27462,0.007 -0.40284,-0.0589 -0.43461,-0.23484 -0.0318,-0.17603 0.0906,-0.31231 0.31953,-0.40259 0.23312,-0.0919 0.47228,0.0621 0.50405,0.2381 z"
         sodipodi:nodetypes="sssss" /><path
         id="path1873"
         style="font-weight:bold;font-size:24.6944px;font-family:'LubalGraph Bd BT';-inkscape-font-specification:'LubalGraph Bd BT Bold';fill:#ffffff;stroke:none;stroke-width:0.00353477;stroke-linecap:square;stroke-linejoin:round;paint-order:markers fill stroke"
         d="m 199.46411,109.24635 -0.16649,0.0309 -0.24239,-1.28197 -0.0598,0.0101 -0.0233,-0.36165 0.3192,-0.0486 0.0193,0.35872 -0.0648,0.0111 0.11377,0.67411 0.0575,-1.06316 0.16958,-0.026 0.15228,1.0475 0.0485,-0.71995 -0.0648,0.0101 -0.0132,-0.35682 0.3112,-0.0484 0.0102,0.35588 -0.0589,0.009 -0.11689,1.32624 -0.16351,0.0298 -0.15924,-0.98737 z m -1.13738,-0.12619 -0.0923,-0.99254 -0.0788,0.0124 -0.0354,-0.36444 0.35509,-0.0552 0.0303,0.36353 -0.0728,0.0113 0.0275,0.31357 0.23335,-0.0391 -0.0245,-0.31262 -0.0738,0.0123 -0.0283,-0.36256 0.35011,-0.0541 0.0243,0.36063 -0.0778,0.0124 0.0692,0.98494 0.0748,-0.0133 0.0218,0.32967 -0.32798,0.0617 -0.0268,-0.33158 0.0708,-0.0122 -0.0257,-0.3296 -0.23033,0.04 0.0288,0.33055 0.0708,-0.0132 0.0278,0.33156 -0.33397,0.0618 -0.0318,-0.33249 z m -0.37189,0.0665 0.0748,-0.0133 0.0348,0.33345 -0.33893,0.0639 -0.0399,-0.33536 0.0738,-0.0133 -0.11445,-1.00015 -0.0768,0.0123 0.0282,0.23954 -0.14959,0.0246 -0.0746,-0.60779 0.66331,-0.10258 0.0605,0.60304 -0.1466,0.0246 -0.0242,-0.23862 -0.0768,0.0123 z" /><path
         style="font-variation-settings:normal;opacity:1;fill:#333333;fill-opacity:1;stroke:none;stroke-width:0.102835;stroke-linecap:square;stroke-linejoin:round;stroke-miterlimit:4;stroke-dasharray:none;stroke-dashoffset:0;stroke-opacity:1;paint-order:markers fill stroke;stop-color:#000000;stop-opacity:1"
         d="m 199.0468,111.49368 c 0.34187,-0.0663 0.83591,-0.27856 0.89033,-0.23701 0.0544,0.0415 0.0491,0.87371 -0.0237,0.91912 -0.0728,0.0454 -1.7242,0.48612 -1.77575,0.45416 -0.0515,-0.032 0.0103,-0.90126 0.0661,-0.9536 0.0558,-0.0523 0.72259,-0.15957 0.84297,-0.18267 z"
         id="path6276" /><path
         style="font-variation-settings:normal;opacity:1;vector-effect:none;fill:#00387a;fill-opacity:1;stroke:none;stroke-width:0;stroke-linecap:butt;stroke-linejoin:miter;stroke-miterlimit:10;stroke-dasharray:none;stroke-dashoffset:0;stroke-opacity:1;-inkscape-stroke:none;paint-order:markers fill stroke;stop-color:#000000;stop-opacity:1"
         d="m 169.46534,109.56883 c 0,0 2.15512,0.20748 3.01332,0.25877 0.8582,0.0513 3.76446,0.35228 4.64325,0.43034 0.87878,0.0781 3.86537,0.38356 4.57396,0.42798 0.70858,0.0444 3.75294,0.38353 3.75294,0.38353 0,0 -0.2869,0.63561 -0.31708,1.16789 -0.0302,0.53227 0.0961,0.71529 -0.52218,0.62049 -3.28158,-0.34899 -10.29337,-1.06847 -13.85812,-1.43749 -0.89008,-0.0921 -0.97041,-0.0807 -0.98888,-0.40558 0.0113,-0.46508 -0.13805,-1.05455 -0.29721,-1.44595 z"
         id="path6336"
         sodipodi:nodetypes="cscccccsccc" /><path
         style="font-variation-settings:normal;opacity:1;vector-effect:none;fill:#000000;fill-opacity:1;stroke:none;stroke-width:0.411395;stroke-linecap:square;stroke-linejoin:round;stroke-miterlimit:4;stroke-dasharray:none;stroke-dashoffset:0;stroke-opacity:1;-inkscape-stroke:none;paint-order:markers fill stroke;stop-color:#000000;stop-opacity:1"
         d="m 167.97931,113.1513 c 0.57308,-0.0682 0.9067,-0.1097 0.9067,-0.1097 0,0 0.1368,-0.0505 0.18302,-0.11392 0.0462,-0.0634 -0.67836,-0.20308 -0.67836,-0.20308 z"
         id="path6532" /><path
         id="path6476"
         style="opacity:1;vector-effect:none;fill:#333333;stroke-width:0.411395;stroke-linecap:square;stroke-linejoin:round;paint-order:markers fill stroke;stop-color:#000000;stop-opacity:1"
         d="m 169.45435,110.85768 a 1.6299182,2.3009496 0 0 1 -1.62992,2.30095 1.6299182,2.3009496 0 0 1 -1.62992,-2.30095 1.6299182,2.3009496 0 0 1 1.62992,-2.30095 1.6299182,2.3009496 0 0 1 1.62992,2.30095 z" /><path
         id="ellipse6530"
         style="opacity:1;vector-effect:none;fill:#ffffff;stroke-width:0.272236;stroke-linecap:square;stroke-linejoin:round;paint-order:markers fill stroke;stop-color:#000000;stop-opacity:1"
         d="m 168.90301,110.85768 a 1.0785795,1.5226268 0 0 1 -1.07858,1.52263 1.0785795,1.5226268 0 0 1 -1.07858,-1.52263 1.0785795,1.5226268 0 0 1 1.07858,-1.52263 1.0785795,1.5226268 0 0 1 1.07858,1.52263 z" /><path
         style="font-variation-settings:normal;opacity:1;vector-effect:none;fill:#000000;fill-opacity:1;stroke:none;stroke-width:0.411395;stroke-linecap:square;stroke-linejoin:round;stroke-miterlimit:4;stroke-dasharray:none;stroke-dashoffset:0;stroke-opacity:1;-inkscape-stroke:none;paint-order:markers fill stroke;stop-color:#000000;stop-opacity:1"
         d="m 188.9309,115.66307 0.72723,-0.18653 0.0639,-0.32185 -0.97414,0.28427 z"
         id="path6544"
         sodipodi:nodetypes="ccccc" /><path
         id="path6538"
         style="opacity:1;vector-effect:none;fill:#333333;stroke-width:0.411395;stroke-linecap:square;stroke-linejoin:round;paint-order:markers fill stroke;stop-color:#000000;stop-opacity:1"
         d="m 191.0273,112.83794 a 2.6110995,2.8826368 0 0 1 -2.6111,2.88263 2.6110995,2.8826368 0 0 1 -2.6111,-2.88263 2.6110995,2.8826368 0 0 1 2.6111,-2.88264 2.6110995,2.8826368 0 0 1 2.6111,2.88264 z" /><path
         id="ellipse6540"
         style="opacity:1;vector-effect:none;fill:#ffffff;stroke-width:0.295632;stroke-linecap:square;stroke-linejoin:round;paint-order:markers fill stroke;stop-color:#000000;stop-opacity:1"
         d="m 190.29255,112.83794 a 1.8763562,2.071485 0 0 1 -1.87635,2.07148 1.8763562,2.071485 0 0 1 -1.87636,-2.07148 1.8763562,2.071485 0 0 1 1.87636,-2.07149 1.8763562,2.071485 0 0 1 1.87635,2.07149 z" /><path
         id="path6704"
         style="font-weight:bold;font-size:1.3068px;font-family:'LubalGraph Bd BT';-inkscape-font-specification:'LubalGraph Bd BT Bold';display:none;fill:#ffffff;stroke-width:0.00529191;stroke-linecap:square;stroke-linejoin:round;paint-order:markers fill stroke"
         d="m 177.878,104.112 0.029,-0.633 -0.116,-0.003 0.016,-0.35 0.363,0.009 -0.009,0.2 c 0.037,-0.076 0.08,-0.132 0.128,-0.168 0.048,-0.037 0.102,-0.055 0.162,-0.053 0.06,10e-4 0.11,0.023 0.151,0.066 0.042,0.044 0.074,0.107 0.095,0.189 0.044,-0.083 0.089,-0.144 0.138,-0.182 0.048,-0.039 0.102,-0.058 0.162,-0.057 0.1,0.003 0.175,0.049 0.225,0.141 0.05,0.09 0.072,0.219 0.065,0.386 l -0.021,0.503 0.127,0.005 -0.015,0.36 -0.406,-0.016 0.032,-0.746 c 0.004,-0.102 -0.004,-0.174 -0.023,-0.216 -0.02,-0.044 -0.054,-0.066 -0.103,-0.067 -0.046,-0.001 -0.084,0.023 -0.114,0.073 -0.029,0.049 -0.046,0.116 -0.05,0.201 l -0.016,0.386 0.125,0.005 -0.015,0.358 -0.392,-0.015 0.033,-0.742 c 0.004,-0.099 -0.004,-0.171 -0.024,-0.214 -0.019,-0.043 -0.053,-0.066 -0.102,-0.067 -0.045,-0.001 -0.082,0.023 -0.111,0.071 -0.029,0.049 -0.045,0.116 -0.049,0.202 l -0.017,0.383 0.111,0.004 -0.016,0.356 -0.5,-0.02 0.016,-0.354 z m -0.299,-0.991 -0.045,0.981 0.116,0.004 -0.017,0.351 -0.369,-0.015 0.008,-0.174 c -0.034,0.065 -0.074,0.112 -0.121,0.143 -0.046,0.03 -0.1,0.044 -0.161,0.042 -0.104,-0.004 -0.182,-0.05 -0.233,-0.139 -0.052,-0.089 -0.074,-0.214 -0.066,-0.376 l 0.024,-0.489 -0.116,-0.003 0.017,-0.347 0.386,0.009 -0.035,0.726 c -0.005,0.098 0.003,0.169 0.024,0.211 0.021,0.043 0.059,0.065 0.111,0.067 0.05,0.002 0.091,-0.021 0.123,-0.069 0.032,-0.049 0.05,-0.115 0.054,-0.2 l 0.018,-0.378 -0.108,-0.003 0.016,-0.349 z m -1.597,0.925 0.032,-0.618 -0.105,-0.003 0.018,-0.341 0.349,0.008 -0.009,0.189 c 0.028,-0.069 0.063,-0.12 0.104,-0.153 0.042,-0.034 0.093,-0.051 0.154,-0.052 l -0.018,0.364 c -0.085,0.004 -0.147,0.033 -0.187,0.087 -0.039,0.054 -0.061,0.142 -0.068,0.263 l -0.013,0.265 0.106,0.003 -0.018,0.348 -0.478,-0.019 0.017,-0.345 z m -0.63,0.321 0.05,-0.956 -0.112,-0.003 0.017,-0.338 0.113,0.002 0.02,-0.38 0.259,0.004 -0.02,0.382 0.114,0.003 -0.018,0.34 -0.113,-0.003 -0.032,0.615 0.087,0.003 -0.018,0.345 z m -1.072,-0.381 0.034,-0.604 -0.107,-0.003 0.019,-0.334 0.34,0.008 -0.009,0.169 c 0.033,-0.063 0.071,-0.11 0.114,-0.14 0.044,-0.031 0.094,-0.046 0.15,-0.045 0.099,0.002 0.172,0.047 0.221,0.133 0.048,0.086 0.069,0.208 0.06,0.366 l -0.025,0.478 0.113,0.004 -0.018,0.342 -0.372,-0.014 0.039,-0.708 c 0.005,-0.097 -0.002,-0.166 -0.022,-0.206 -0.018,-0.041 -0.053,-0.062 -0.102,-0.063 -0.047,-0.001 -0.086,0.022 -0.117,0.069 -0.03,0.046 -0.048,0.11 -0.052,0.191 l -0.02,0.366 0.101,0.004 -0.019,0.339 -0.458,-0.018 0.019,-0.337 z m -0.238,-0.05 c -0.045,0.128 -0.108,0.226 -0.187,0.295 -0.079,0.069 -0.167,0.102 -0.263,0.098 -0.067,-0.003 -0.126,-0.021 -0.177,-0.055 -0.052,-0.033 -0.097,-0.083 -0.138,-0.149 -0.039,-0.065 -0.067,-0.137 -0.085,-0.217 -0.017,-0.08 -0.023,-0.166 -0.017,-0.259 0.005,-0.092 0.021,-0.177 0.048,-0.256 0.027,-0.08 0.063,-0.15 0.109,-0.21 0.047,-0.061 0.099,-0.107 0.156,-0.139 0.058,-0.032 0.119,-0.048 0.181,-0.046 0.078,10e-4 0.149,0.029 0.214,0.082 0.065,0.054 0.116,0.128 0.154,0.222 0.022,0.054 0.037,0.112 0.046,0.174 0.009,0.063 0.011,0.13 0.007,0.201 -0.001,0.022 -0.003,0.044 -0.006,0.068 -0.002,0.024 -0.005,0.049 -0.009,0.076 l -0.636,-0.021 c 0.007,0.057 0.026,0.103 0.058,0.138 0.031,0.035 0.07,0.054 0.115,0.055 0.024,0.001 0.048,-0.004 0.069,-0.015 0.022,-0.011 0.043,-0.029 0.064,-0.053 z m -0.594,-0.406 0.383,0.012 c -0.009,-0.07 -0.029,-0.124 -0.06,-0.161 -0.031,-0.038 -0.071,-0.058 -0.121,-0.059 -0.046,-0.001 -0.087,0.017 -0.122,0.053 -0.036,0.037 -0.062,0.088 -0.08,0.155 z m -0.457,0.745 -0.685,-0.027 0.018,-0.304 0.411,-0.607 -0.146,-0.004 -0.006,0.104 -0.21,-0.006 0.026,-0.427 0.655,0.015 -0.02,0.333 -0.394,0.579 0.159,0.006 0.007,-0.107 0.211,0.007 z m -0.871,-0.035 -0.67,-0.026 0.019,-0.301 0.403,-0.599 -0.142,-0.004 -0.007,0.103 -0.205,-0.006 0.027,-0.423 0.64,0.015 -0.021,0.329 -0.386,0.573 0.155,0.006 0.007,-0.106 0.207,0.007 z m -1.585,-0.384 0.037,-0.575 -0.096,-0.003 0.021,-0.317 0.309,0.007 -0.011,0.161 c 0.03,-0.061 0.065,-0.106 0.105,-0.134 0.04,-0.03 0.085,-0.044 0.137,-0.043 0.088,0.002 0.154,0.044 0.197,0.127 0.043,0.081 0.06,0.197 0.05,0.348 l -0.029,0.454 0.103,0.003 -0.02,0.326 -0.337,-0.013 0.044,-0.674 c 0.006,-0.092 0,-0.157 -0.017,-0.195 -0.017,-0.039 -0.047,-0.059 -0.092,-0.06 -0.043,-0.001 -0.078,0.021 -0.107,0.065 -0.028,0.044 -0.044,0.105 -0.049,0.182 l -0.023,0.349 0.091,0.003 -0.021,0.323 -0.414,-0.016 0.021,-0.322 z m -0.215,-0.048 c -0.043,0.122 -0.101,0.216 -0.174,0.281 -0.072,0.066 -0.152,0.097 -0.239,0.094 -0.06,-0.003 -0.114,-0.02 -0.16,-0.052 -0.046,-0.032 -0.087,-0.079 -0.123,-0.142 -0.035,-0.061 -0.059,-0.13 -0.074,-0.206 -0.015,-0.076 -0.019,-0.158 -0.013,-0.247 0.006,-0.087 0.022,-0.168 0.047,-0.244 0.025,-0.075 0.059,-0.142 0.102,-0.2 0.042,-0.058 0.09,-0.102 0.143,-0.132 0.053,-0.03 0.107,-0.045 0.164,-0.044 0.071,0.002 0.135,0.028 0.193,0.078 0.058,0.051 0.104,0.121 0.137,0.211 0.019,0.052 0.032,0.107 0.039,0.166 0.007,0.059 0.009,0.123 0.004,0.191 -0.001,0.02 -0.003,0.042 -0.006,0.065 -0.002,0.022 -0.006,0.046 -0.009,0.072 l -0.576,-0.019 c 0.005,0.054 0.022,0.098 0.05,0.131 0.029,0.034 0.063,0.051 0.104,0.052 0.022,0.001 0.043,-0.004 0.063,-0.014 0.02,-0.011 0.039,-0.028 0.058,-0.051 z m -0.534,-0.385 0.347,0.01 c -0.007,-0.066 -0.024,-0.117 -0.052,-0.153 -0.028,-0.036 -0.064,-0.054 -0.109,-0.055 -0.042,-10e-4 -0.079,0.016 -0.112,0.05 -0.032,0.035 -0.057,0.084 -0.074,0.148 z m -0.704,0.698 0.061,-0.879 -0.095,-0.002 0.021,-0.312 0.096,0.002 0.024,-0.35 0.22,0.004 -0.025,0.351 0.096,0.002 -0.021,0.314 -0.096,-0.003 -0.039,0.565 0.073,0.003 -0.022,0.317 z m -0.168,-0.361 c -0.042,0.119 -0.098,0.211 -0.168,0.276 -0.07,0.064 -0.147,0.095 -0.231,0.091 -0.058,-0.002 -0.109,-0.019 -0.153,-0.05 -0.045,-0.031 -0.084,-0.078 -0.118,-0.139 -0.033,-0.06 -0.057,-0.128 -0.071,-0.203 -0.013,-0.074 -0.017,-0.155 -0.011,-0.241 0.006,-0.086 0.022,-0.166 0.047,-0.24 0.024,-0.074 0.057,-0.139 0.098,-0.196 0.042,-0.057 0.088,-0.1 0.139,-0.129 0.051,-0.031 0.104,-0.045 0.158,-0.044 0.068,0.002 0.13,0.027 0.186,0.077 0.056,0.05 0.099,0.118 0.13,0.206 0.018,0.051 0.031,0.105 0.037,0.163 0.007,0.058 0.008,0.121 0.003,0.188 -0.001,0.019 -0.004,0.04 -0.006,0.063 -0.003,0.022 -0.006,0.045 -0.01,0.071 l -0.554,-0.019 c 0.005,0.053 0.021,0.096 0.048,0.129 0.027,0.033 0.061,0.05 0.1,0.051 0.021,0.001 0.042,-0.004 0.061,-0.014 0.019,-0.011 0.037,-0.027 0.056,-0.05 z m -0.511,-0.377 0.333,0.009 c -0.006,-0.064 -0.022,-0.114 -0.049,-0.15 -0.026,-0.035 -0.061,-0.053 -0.105,-0.054 -0.04,-0.001 -0.075,0.015 -0.107,0.05 -0.032,0.034 -0.056,0.082 -0.072,0.145 z m -0.895,0.091 c -0.006,0.084 0.005,0.154 0.034,0.21 0.029,0.055 0.07,0.084 0.121,0.086 0.05,0.002 0.094,-0.024 0.131,-0.078 0.038,-0.054 0.06,-0.123 0.066,-0.207 0.006,-0.085 -0.006,-0.155 -0.035,-0.211 -0.029,-0.056 -0.069,-0.085 -0.119,-0.086 -0.051,-0.002 -0.096,0.025 -0.133,0.079 -0.037,0.054 -0.058,0.122 -0.065,0.207 z m -0.253,0.637 0.068,-0.918 -0.079,-0.002 0.023,-0.304 0.277,0.007 -0.011,0.143 c 0.031,-0.055 0.065,-0.095 0.104,-0.121 0.038,-0.026 0.082,-0.038 0.131,-0.037 0.103,0.002 0.185,0.061 0.244,0.176 0.06,0.116 0.083,0.261 0.071,0.437 -0.013,0.175 -0.058,0.319 -0.134,0.431 -0.076,0.111 -0.166,0.164 -0.27,0.16 -0.047,-0.002 -0.088,-0.016 -0.122,-0.041 -0.033,-0.026 -0.06,-0.064 -0.081,-0.114 l -0.014,0.191 0.072,0.003 -0.023,0.309 -0.358,-0.016 0.023,-0.307 z m -1.234,-0.413 0.042,-0.539 -0.084,-0.002 0.023,-0.298 0.264,0.006 -0.013,0.17 c 0.03,-0.065 0.063,-0.112 0.099,-0.143 0.036,-0.032 0.076,-0.047 0.12,-0.046 0.043,10e-4 0.079,0.019 0.108,0.056 0.029,0.037 0.05,0.09 0.062,0.161 0.035,-0.071 0.07,-0.123 0.106,-0.156 0.037,-0.033 0.077,-0.049 0.12,-0.048 0.073,0.001 0.126,0.041 0.159,0.118 0.033,0.077 0.045,0.186 0.034,0.328 l -0.032,0.428 0.092,0.004 -0.023,0.306 -0.294,-0.011 0.048,-0.635 c 0.006,-0.087 0.003,-0.148 -0.01,-0.184 -0.012,-0.037 -0.036,-0.056 -0.072,-0.057 -0.033,-0.001 -0.062,0.02 -0.085,0.063 -0.023,0.041 -0.037,0.099 -0.043,0.171 l -0.025,0.329 0.091,0.003 -0.023,0.305 -0.285,-0.011 0.049,-0.631 c 0.007,-0.085 0.003,-0.146 -0.01,-0.182 -0.012,-0.037 -0.036,-0.057 -0.072,-0.057 -0.033,-0.001 -0.061,0.019 -0.083,0.06 -0.023,0.042 -0.037,0.099 -0.043,0.172 l -0.025,0.327 0.081,0.003 -0.024,0.303 -0.364,-0.014 0.024,-0.302 z m -0.67,-0.291 c -0.006,0.077 0.004,0.143 0.031,0.199 0.027,0.056 0.062,0.084 0.106,0.086 0.044,0.001 0.084,-0.025 0.12,-0.078 0.035,-0.053 0.056,-0.119 0.062,-0.197 0.006,-0.08 -0.004,-0.147 -0.031,-0.202 -0.026,-0.056 -0.061,-0.084 -0.106,-0.086 -0.044,-0.001 -0.084,0.026 -0.119,0.08 -0.036,0.054 -0.057,0.12 -0.063,0.198 z m -0.205,-0.006 c 0.007,-0.082 0.022,-0.159 0.045,-0.23 0.024,-0.071 0.055,-0.133 0.093,-0.188 0.039,-0.054 0.082,-0.096 0.128,-0.124 0.048,-0.029 0.096,-0.043 0.146,-0.042 0.049,0.001 0.095,0.017 0.137,0.048 0.043,0.03 0.079,0.074 0.11,0.131 0.03,0.057 0.051,0.122 0.064,0.194 0.012,0.072 0.015,0.15 0.008,0.233 -0.006,0.083 -0.021,0.161 -0.045,0.232 -0.023,0.072 -0.055,0.135 -0.094,0.19 -0.039,0.054 -0.082,0.096 -0.129,0.124 -0.047,0.027 -0.096,0.039 -0.146,0.037 -0.05,-0.002 -0.096,-0.018 -0.139,-0.05 -0.042,-0.031 -0.078,-0.075 -0.108,-0.131 -0.029,-0.057 -0.05,-0.121 -0.062,-0.193 -0.012,-0.072 -0.014,-0.149 -0.008,-0.231 z m -0.621,0.268 0.081,0.003 -0.023,0.272 -0.374,-0.014 0.024,-0.298 0.083,0.003 0.07,-0.846 -0.083,-0.002 0.025,-0.294 0.374,0.007 -0.023,0.273 -0.081,-0.002 -0.03,0.375 0.257,-0.37 -0.091,-0.002 0.022,-0.273 0.378,0.007 -0.024,0.297 -0.074,-0.001 -0.278,0.4 0.24,0.455 0.052,10e-4 -0.024,0.302 -0.38,-0.015 0.023,-0.273 0.083,0.003 -0.196,-0.386 z m 5.688,-2.843 c -0.005,0.086 0.007,0.156 0.039,0.212 0.031,0.056 0.075,0.084 0.129,0.083 0.054,0 0.101,-0.028 0.14,-0.084 0.039,-0.056 0.062,-0.127 0.068,-0.214 0.005,-0.086 -0.008,-0.157 -0.04,-0.213 -0.031,-0.056 -0.074,-0.084 -0.128,-0.083 -0.055,0.001 -0.102,0.029 -0.141,0.086 -0.039,0.056 -0.061,0.127 -0.067,0.213 z m -0.264,0.658 0.064,-0.937 -0.084,0.001 0.021,-0.31 0.295,-0.004 -0.01,0.146 c 0.032,-0.057 0.069,-0.099 0.109,-0.127 0.041,-0.028 0.087,-0.042 0.14,-0.043 0.11,-10e-4 0.198,0.055 0.262,0.17 0.065,0.116 0.092,0.263 0.081,0.442 -0.012,0.179 -0.058,0.327 -0.139,0.444 -0.08,0.116 -0.175,0.173 -0.286,0.173 -0.051,0 -0.094,-0.012 -0.13,-0.037 -0.036,-0.025 -0.065,-0.062 -0.088,-0.113 l -0.014,0.195 0.077,0.001 -0.021,0.315 -0.382,-0.002 0.021,-0.314 z m -0.738,-0.652 c -0.006,0.085 0.006,0.155 0.036,0.21 0.031,0.054 0.073,0.082 0.126,0.082 0.053,0 0.098,-0.028 0.136,-0.083 0.039,-0.056 0.061,-0.126 0.067,-0.211 0.006,-0.086 -0.007,-0.156 -0.038,-0.21 -0.03,-0.056 -0.072,-0.083 -0.125,-0.082 -0.053,0 -0.098,0.028 -0.137,0.084 -0.037,0.055 -0.059,0.125 -0.065,0.21 z m -0.26,0.649 0.066,-0.924 -0.082,0.001 0.021,-0.306 0.287,-0.004 -0.01,0.145 c 0.032,-0.057 0.068,-0.098 0.107,-0.125 0.04,-0.028 0.085,-0.042 0.136,-0.043 0.107,-10e-4 0.192,0.054 0.255,0.168 0.063,0.114 0.088,0.259 0.076,0.435 -0.012,0.177 -0.057,0.323 -0.136,0.438 -0.078,0.114 -0.171,0.171 -0.279,0.171 -0.049,0 -0.092,-0.012 -0.127,-0.037 -0.034,-0.024 -0.063,-0.061 -0.085,-0.111 l -0.013,0.193 h 0.074 l -0.021,0.311 -0.373,-0.002 0.022,-0.31 z m -0.182,-1.226 -0.062,0.858 h 0.091 l -0.021,0.306 h -0.29 l 0.01,-0.152 c -0.028,0.057 -0.061,0.1 -0.098,0.128 -0.037,0.028 -0.08,0.042 -0.128,0.042 -0.082,0 -0.142,-0.038 -0.18,-0.114 -0.038,-0.076 -0.052,-0.185 -0.042,-0.326 l 0.031,-0.428 -0.091,10e-4 0.022,-0.304 0.304,-0.004 -0.046,0.635 c -0.006,0.086 -0.002,0.148 0.013,0.184 0.016,0.036 0.045,0.054 0.086,0.054 0.039,0 0.072,-0.021 0.098,-0.064 0.026,-0.043 0.042,-0.102 0.048,-0.176 l 0.023,-0.331 -0.084,0.001 0.022,-0.306 z m -1.282,0.859 0.041,-0.542 -0.083,10e-4 0.023,-0.299 0.275,-0.004 -0.012,0.166 c 0.024,-0.061 0.053,-0.107 0.087,-0.137 0.033,-0.031 0.074,-0.047 0.122,-0.05 l -0.024,0.318 c -0.066,0.006 -0.116,0.034 -0.149,0.083 -0.032,0.048 -0.052,0.125 -0.06,0.232 l -0.017,0.231 h 0.083 l -0.023,0.304 h -0.377 l 0.023,-0.303 z m -0.506,0.302 0.064,-0.839 -0.089,0.001 0.023,-0.297 0.089,-0.001 0.025,-0.3344 0.205,-0.0039 -0.025,0.3353 0.089,-0.001 -0.022,0.298 -0.09,0.001 -0.041,0.54 h 0.069 l -0.023,0.302 z m -0.432,-0.127 c -0.027,0.049 -0.058,0.085 -0.094,0.108 -0.035,0.023 -0.076,0.034 -0.121,0.034 -0.098,0 -0.175,-0.055 -0.231,-0.165 -0.056,-0.109 -0.077,-0.247 -0.064,-0.414 0.014,-0.167 0.056,-0.305 0.129,-0.415 0.073,-0.11 0.158,-0.165 0.256,-0.167 0.048,0 0.088,0.012 0.121,0.037 0.032,0.025 0.059,0.065 0.081,0.118 l 0.01,-0.139 0.269,-0.004 -0.022,0.297 -0.078,0.001 -0.06,0.78 c -0.013,0.167 -0.055,0.297 -0.127,0.388 -0.072,0.091 -0.166,0.136 -0.282,0.135 -0.097,-10e-4 -0.175,-0.036 -0.233,-0.106 -0.058,-0.07 -0.087,-0.164 -0.089,-0.281 l 0.231,0.001 c 0.005,0.033 0.018,0.057 0.037,0.074 0.019,0.016 0.045,0.025 0.079,0.025 0.054,0 0.096,-0.02 0.127,-0.062 0.031,-0.042 0.05,-0.103 0.056,-0.185 z m -0.3,-0.438 c -0.007,0.081 0.004,0.148 0.031,0.201 0.028,0.053 0.066,0.079 0.115,0.079 0.048,0 0.09,-0.027 0.126,-0.08 0.036,-0.053 0.057,-0.12 0.063,-0.202 0.006,-0.082 -0.004,-0.149 -0.032,-0.201 -0.028,-0.054 -0.065,-0.08 -0.114,-0.079 -0.049,0 -0.091,0.027 -0.127,0.081 -0.035,0.053 -0.056,0.12 -0.062,0.201 z m -0.324,-0.555 -0.065,0.824 h 0.084 l -0.023,0.294 h -0.267 l 0.011,-0.146 c -0.027,0.055 -0.057,0.096 -0.092,0.123 -0.035,0.027 -0.074,0.04 -0.119,0.04 -0.075,0 -0.13,-0.036 -0.165,-0.109 -0.034,-0.073 -0.046,-0.178 -0.035,-0.314 l 0.033,-0.411 -0.084,0.001 0.024,-0.291 0.28,-0.004 -0.049,0.609 c -0.007,0.084 -0.003,0.143 0.011,0.177 0.014,0.035 0.04,0.053 0.078,0.053 0.036,0 0.066,-0.021 0.091,-0.062 0.025,-0.042 0.04,-0.098 0.046,-0.169 l 0.025,-0.318 -0.078,10e-4 0.023,-0.294 z m -1.034,0.823 0.014,-0.167 0.189,-0.001 -0.038,0.462 -0.643,-10e-4 0.025,-0.3 0.456,-0.833 -0.168,0.003 -0.013,0.152 -0.187,0.002 0.037,-0.4417 0.601,-0.0116 -0.024,0.2923 -0.462,0.844 z"
         inkscape:label="zugtrupp_kompetenzzentrum"
         sodipodi:insensitive="true" /></g><g
       id="g3478"
       inkscape:label="zugtrupp_taktisches_zeichen"
       transform="matrix(1.0079549,0,0,1.0079549,62.382518,4.6831009)"
       inkscape:path-effect="#path-effect3788"
       style="display:inline"><path
         id="rect3360"
         style="display:inline;fill:#ffffff;stroke-width:0;stroke-miterlimit:10;-inkscape-stroke:none;paint-order:markers fill stroke;stop-color:#000000"
         d="m 26.947632,40.833382 c -0.117408,1.538073 -0.237548,2.428053 -0.232966,3.940278 0.0036,1.202333 0.04866,2.180118 0.04866,2.180118 1.986913,0.154314 5.366414,0.346856 8.232186,0.560438 2.865773,0.213583 5.081237,0.329069 5.081237,0.329069 2e-6,-1.177367 -0.02738,-3.034341 -0.01142,-4.673947 0.01596,-1.639605 0.02946,-2.930371 0.02946,-2.930371 -4.350851,0.187807 -8.695946,0.54391 -13.147164,0.594415 z m 0.296181,0.330394 c 2.273044,-0.03645 4.761516,-0.166562 7.685815,-0.306431 2.735265,-0.130828 4.844511,-0.221736 4.844511,-0.221736 -0.0075,1.151755 -0.0449,2.96458 -0.04537,4.379203 -4.74e-4,1.414623 0.0082,2.449056 0.0082,2.449056 -2.277818,-0.05957 -5.211408,-0.260634 -8.087493,-0.471013 -2.685664,-0.19645 -4.58288,-0.350338 -4.58288,-0.350338 -0.03963,-1.767844 -0.01718,-3.412881 0.177227,-5.478741 z"
         inkscape:original-d="m 26.687777,40.224418 v 7.169588 h 13.219865 v -7.169588 z m 0.326507,0.343715 12.572644,0.0173 -0.01811,6.434333 -12.540831,-0.02763 z"
         sodipodi:nodetypes="cccccccccc" /><path
         id="ellipse3173"
         style="fill:#ffffff;stroke-width:0.0560158"
         d="m 33.786596,39.633859 c -0.01862,0.26462 -0.266675,0.504456 -0.549881,0.521139 -0.282273,0.01663 -0.486711,-0.195346 -0.462715,-0.459016 0.02408,-0.264601 0.26309,-0.476534 0.538574,-0.493062 0.27589,-0.01655 0.492602,0.166913 0.474022,0.430939 z"
         inkscape:original-d="m 33.650757,39.264906 a 0.52037537,0.52037537 0 0 1 -0.520376,0.520375 0.52037537,0.52037537 0 0 1 -0.520375,-0.520375 0.52037537,0.52037537 0 0 1 0.520375,-0.520375 0.52037537,0.52037537 0 0 1 0.520376,0.520375 z" /><path
         id="ellipse3175"
         style="fill:#ffffff;stroke-width:0.0560158"
         d="m 30.219582,41.928322 c -0.03295,0.303262 -0.296722,0.546746 -0.593643,0.550103 -0.296812,0.0034 -0.512468,-0.230622 -0.479288,-0.522497 0.03328,-0.292755 0.303563,-0.542554 0.599183,-0.553279 0.295476,-0.01072 0.506616,0.223151 0.473748,0.525673 z"
         inkscape:original-d="m 30.207678,41.456539 a 0.56015819,0.56015819 0 0 1 -0.560158,0.560158 0.56015819,0.56015819 0 0 1 -0.560158,-0.560158 0.56015819,0.56015819 0 0 1 0.560158,-0.560158 0.56015819,0.56015819 0 0 1 0.560158,0.560158 z" /><path
         id="ellipse3177"
         style="fill:#ffffff;stroke-width:0.0560158"
         d="m 33.710022,41.821736 c -0.02114,0.327274 -0.291581,0.597187 -0.606739,0.603744 -0.315372,0.0066 -0.549125,-0.24961 -0.523648,-0.566527 0.02551,-0.317289 0.298941,-0.584026 0.607381,-0.59754 0.308706,-0.01352 0.544133,0.233244 0.523006,0.560323 z"
         inkscape:original-d="m 33.737183,41.456539 a 0.56015819,0.56015819 0 0 1 -0.560158,0.560158 0.56015819,0.56015819 0 0 1 -0.560158,-0.560158 0.56015819,0.56015819 0 0 1 0.560158,-0.560158 0.56015819,0.56015819 0 0 1 0.560158,0.560158 z" /><path
         id="ellipse3179"
         style="fill:#ffffff;stroke-width:0.0560158"
         d="m 37.559354,41.676716 c -0.0077,0.339512 -0.275538,0.626225 -0.601371,0.638206 -0.326181,0.01199 -0.581963,-0.254621 -0.571012,-0.591024 0.01095,-0.336361 0.28261,-0.616528 0.603796,-0.630712 0.321624,-0.0142 0.576321,0.243869 0.568587,0.58353 z"
         inkscape:original-d="m 37.443039,41.456539 a 0.56015819,0.56015819 0 0 1 -0.560158,0.560158 0.56015819,0.56015819 0 0 1 -0.560158,-0.560158 0.56015819,0.56015819 0 0 1 0.560158,-0.560158 0.56015819,0.56015819 0 0 1 0.560158,0.560158 z" /><path
         id="path3489"
         d="m 35.368814,43.300055 c -0.67202,0.02372 -1.999864,0.02234 -1.999864,0.02234 -0.0066,0.277837 -0.04062,0.781442 -0.04062,0.781442 0.152226,0.01211 0.428146,0.0047 0.428146,0.0047 0.02593,-0.105835 0.0492,-0.353953 0.0492,-0.353953 0.29325,0.01075 0.856701,-0.0023 0.856701,-0.0023 -0.458961,0.687803 -1.356058,1.875274 -1.356058,1.875274 0.01463,0.118828 0.0125,0.318457 0.0125,0.318457 0.707141,0.04404 2.116164,0.07803 2.116164,0.07803 0.01393,-0.216363 0.01434,-0.72104 0.01434,-0.72104 -0.134243,0.0087 -0.434127,-0.005 -0.434127,-0.005 -0.0023,0.122568 -0.03803,0.329321 -0.03803,0.329321 -0.320365,0.0027 -0.985952,-0.02733 -0.985952,-0.02733 0.425639,-0.540532 1.371801,-1.93162 1.371801,-1.93162 0.0015,-0.122244 0.0034,-0.244936 0.0058,-0.368352 z m -2.277368,0.02299 c -0.827517,0.01165 -2.407525,-0.01559 -2.407525,-0.01559 -0.0041,0.244236 -0.03034,0.687604 -0.03034,0.687604 0.144526,0.01445 0.407672,0.01364 0.407672,0.01364 0.01951,-0.08553 0.03165,-0.289986 0.03165,-0.289986 0.172106,0.01369 0.491764,0.01075 0.491764,0.01075 -0.01196,0.632364 -0.0031,1.783051 -0.0031,1.783051 -0.08665,0.01975 -0.289434,0.02986 -0.289434,0.02986 0.0133,0.104978 0.0097,0.280384 0.0097,0.280384 0.382885,0.03576 1.136275,0.0748 1.136275,0.0748 0.0065,-0.08316 -0.01108,-0.285442 -0.01108,-0.285442 -0.08894,-0.01253 -0.296884,-0.0663 -0.296884,-0.0663 -0.0078,-0.555971 -0.0022,-1.806425 -0.0022,-1.806425 0.17635,0.01281 0.503563,0.0071 0.503563,0.0071 0.01483,0.112376 0.0161,0.303483 0.0161,0.303483 0.151008,0.01285 0.425356,0.0072 0.425356,0.0072 0.0034,-0.241991 0.0096,-0.486112 0.0185,-0.734189 z"
         style="font-weight:bold;font-size:2.68876px;font-family:'Roboto Slab';text-anchor:middle;fill:#ffffff;stroke-width:0.0789412"
         inkscape:label="TZ"
         inkscape:original-d="m 35.394884,42.878749 h -1.91679 l -0.02219,0.760426 h 0.412592 l 0.04256,-0.344134 h 0.819632 l -1.313632,1.922341 v 0.355237 h 2.018551 l 0.0333,-0.758577 H 35.05817 l -0.04441,0.344134 h -0.938053 l 1.319181,-1.935293 z m -2.186918,0 h -2.40154 v 0.717872 h 0.41259 l 0.02222,-0.30158 h 0.493999 v 1.89829 l -0.28863,0.05551 v 0.323783 h 1.117512 v -0.323789 l -0.288635,-0.05551 v -1.898284 h 0.495849 l 0.02219,0.30158 h 0.414443 z" /></g></g><g
     inkscape:groupmode="layer"
     id="layer6"
     inkscape:label="thw_kranz"
     transform="translate(3.2185991,1.2130823)"
     style="display:inline"
     sodipodi:insensitive="true"><path
       id="path804"
       style="display:inline;fill:#ffffff;fill-opacity:1;fill-rule:nonzero;stroke:none;stroke-width:0;stroke-linecap:butt;stroke-linejoin:miter;stroke-miterlimit:10"
       d="m 36.781401,9.1795647 c -0.930613,9.51e-4 -1.860955,0.04293 -2.78846,0.127124 -0.342943,2.0361683 -0.685936,4.0725033 -1.028878,6.1086713 -1.53988,0.256978 -3.053713,0.662145 -4.51652,1.208712 -1.316032,-1.589327 -2.632049,-3.178338 -3.948079,-4.767668 -1.719459,0.761925 -3.342783,1.728863 -4.88394,2.805514 0.722341,1.931915 1.444967,3.864111 2.16731,5.796029 -1.202006,0.998032 -2.335456,2.091239 -3.305742,3.319694 -1.940337,-0.721581 -3.880495,-1.443146 -5.820833,-2.164726 -1.07663,1.539112 -2.047938,3.158606 -2.8101641,4.878772 1.5913791,1.313873 3.1830061,2.627488 4.7743851,3.941361 -0.547547,1.460563 -0.952932,2.973631 -1.211812,4.512386 l -6.1148721,1.026294 c -0.160335,1.872153 -0.160494,3.757491 0,5.629631 2.038372,0.342764 4.0764991,0.685598 6.1148721,1.028361 0.258196,1.53803 0.661728,3.050918 1.211812,4.509802 -1.591379,1.314583 -3.183006,2.629363 -4.7743851,3.943945 0.7682931,1.715425 1.7253861,3.34412 2.8101641,4.876189 1.940338,-0.720696 3.880496,-1.441445 5.820833,-2.162142 0.973932,1.224988 2.102361,2.322759 3.305742,3.319177 -0.722343,1.931383 -1.444969,3.862578 -2.16731,5.793962 1.541397,1.076289 3.163743,2.045444 4.88394,2.80603 1.31603,-1.589503 2.632047,-3.179198 3.948079,-4.768701 1.46078,0.551618 2.975891,0.961471 4.51652,1.211812 0.342942,2.035454 0.685935,4.070633 1.028878,6.106087 0.92757,0.08496 1.85788,0.127255 2.78846,0.128158 v -10.70684 c -1.367429,-0.0021 -2.734389,-0.149327 -4.072102,-0.443901 -3.559885,-0.740723 -4.035795,-1.425899 -5.669422,-2.271179 -5.849869,-3.400369 -9.477336,-10.16589 -9.117273,-16.934367 0.154893,-6.612107 4.143245,-12.890213 9.991638,-15.912724 2.266554,-1.127489 3.878741,-1.96985 8.867159,-2.045353 z"
       inkscape:label="zahnenkranz_left" /></g></svg>
